<svg xmlns="http://www.w3.org/2000/svg" xmlns:xlink="http://www.w3.org/1999/xlink" viewBox="0 0 297.62 16.58"><defs><style>.cls-1{fill:url(#gold_text);}.cls-2{fill:url(#gold_text-2);}.cls-3{fill:url(#gold_text-3);}.cls-4{fill:url(#gold_text-4);}.cls-5{fill:url(#gold_text-5);}.cls-6{fill:url(#gold_text-6);}.cls-7{fill:url(#gold_text-7);}</style><linearGradient id="gold_text" x1="3.49" y1="18.99" x2="257.27" y2="2.14" gradientUnits="userSpaceOnUse"><stop offset="0.01" stop-color="#fbc926"/><stop offset="0.25" stop-color="#fdedb0"/><stop offset="0.31" stop-color="#f5e19f"/><stop offset="0.44" stop-color="#e1c272"/><stop offset="0.6" stop-color="#c3922e"/><stop offset="1" stop-color="#eed688"/></linearGradient><linearGradient id="gold_text-2" x1="2.8" y1="8.72" x2="256.59" y2="-8.13" xlink:href="#gold_text"/><linearGradient id="gold_text-3" x1="2.89" y1="10.06" x2="256.68" y2="-6.79" xlink:href="#gold_text"/><linearGradient id="gold_text-4" x1="2.98" y1="11.37" x2="256.77" y2="-5.48" xlink:href="#gold_text"/><linearGradient id="gold_text-5" x1="2.94" y1="10.72" x2="256.72" y2="-6.13" xlink:href="#gold_text"/><linearGradient id="gold_text-6" x1="4.05" y1="27.44" x2="257.84" y2="10.59" xlink:href="#gold_text"/><linearGradient id="gold_text-7" x1="4" y1="26.67" x2="257.78" y2="9.81" xlink:href="#gold_text"/></defs><g id="Capa_1" data-name="Capa 1"><rect class="cls-1" x="47.11" y="7.58" width="230.46" height="1.73"/><path class="cls-2" d="M26.6,8.28C3.4-10.29,0,8.17,0,8.17,4.73,27,26.6,8.28,26.6,8.28ZM6.22,7.39a.89.89,0,0,1,0,1.78.89.89,0,0,1,0-1.78Zm2.49.88c10.64-5.51,12.14,0,12.14,0C18.63,14,8.71,8.27,8.71,8.27Z"/><path class="cls-3" d="M28.32,10.81a2.43,2.43,0,0,0,2.45-2.43h0a2.45,2.45,0,0,0-2.43-2.46h0a2.46,2.46,0,0,0-2.46,2.44h0a2.45,2.45,0,0,0,2.44,2.45Z"/><path class="cls-4" d="M47.1,10.89a2.46,2.46,0,0,0,2.46-2.44h0A2.45,2.45,0,0,0,47.12,6h0a2.43,2.43,0,0,0-2.45,2.43h0a2.45,2.45,0,0,0,2.43,2.46Z"/><path class="cls-5" d="M37.72,14.88s-8.36-6.47-8.29-6.51,8.34-6.44,8.34-6.44c1,2.12,8.34,6.5,8.33,6.51S38.71,12.77,37.72,14.88Z"/><path class="cls-6" d="M297.62,8.27s-2.22-12-17.33.07C280.29,8.34,294.54,20.55,297.62,8.27Zm-3.48.06a.58.58,0,1,1-1.15,0,.58.58,0,0,1,1.15,0Zm-10.1,0s1-3.62,7.91,0C292,8.33,285.48,12,284,8.36Z"/><path class="cls-7" d="M279.17,10a1.59,1.59,0,0,1-1.59-1.59h0a1.59,1.59,0,0,1,1.58-1.6h0a1.6,1.6,0,0,1,1.6,1.59h0a1.6,1.6,0,0,1-1.59,1.6Z"/></g></svg>