<svg xmlns="http://www.w3.org/2000/svg" xmlns:xlink="http://www.w3.org/1999/xlink" viewBox="0 0 297.62 16.58"><defs><style>.cls-1{fill:url(#gold_text);}.cls-2{fill:url(#gold_text-2);}.cls-3{fill:url(#gold_text-3);}.cls-4{fill:url(#gold_text-4);}.cls-5{fill:url(#gold_text-5);}.cls-6{fill:url(#gold_text-6);}.cls-7{fill:url(#gold_text-7);}</style><linearGradient id="gold_text" x1="3.49" y1="18.99" x2="257.27" y2="2.14" gradientTransform="translate(297.62 16.58) rotate(180)" gradientUnits="userSpaceOnUse"><stop offset="0.01" stop-color="#fbc926"/><stop offset="0.25" stop-color="#fdedb0"/><stop offset="0.31" stop-color="#f5e19f"/><stop offset="0.44" stop-color="#e1c272"/><stop offset="0.6" stop-color="#c3922e"/><stop offset="1" stop-color="#eed688"/></linearGradient><linearGradient id="gold_text-2" x1="2.8" y1="8.72" x2="256.59" y2="-8.13" xlink:href="#gold_text"/><linearGradient id="gold_text-3" x1="2.89" y1="10.06" x2="256.68" y2="-6.79" xlink:href="#gold_text"/><linearGradient id="gold_text-4" x1="2.98" y1="11.37" x2="256.77" y2="-5.48" xlink:href="#gold_text"/><linearGradient id="gold_text-5" x1="2.94" y1="10.72" x2="256.72" y2="-6.13" xlink:href="#gold_text"/><linearGradient id="gold_text-6" x1="4.05" y1="27.44" x2="257.84" y2="10.59" xlink:href="#gold_text"/><linearGradient id="gold_text-7" x1="4" y1="26.67" x2="257.78" y2="9.81" xlink:href="#gold_text"/></defs><g id="Capa_1" data-name="Capa 1"><rect class="cls-1" x="20.04" y="7.28" width="230.46" height="1.73"/><path class="cls-2" d="M271,8.3c23.2,18.57,26.6.11,26.6.11C292.89-10.45,271,8.3,271,8.3Zm20.37.89a.89.89,0,1,1,0-1.77.89.89,0,0,1,0,1.77Zm-2.48-.87c-10.65,5.51-12.14-.05-12.14-.05C279,2.62,288.91,8.32,288.91,8.32Z"/><path class="cls-3" d="M269.3,5.77a2.46,2.46,0,0,0-2.46,2.44h0a2.45,2.45,0,0,0,2.44,2.45h0a2.43,2.43,0,0,0,2.45-2.43h0a2.45,2.45,0,0,0-2.43-2.46Z"/><path class="cls-4" d="M250.52,5.7a2.44,2.44,0,0,0-2.46,2.43h0a2.46,2.46,0,0,0,2.44,2.46h0A2.45,2.45,0,0,0,253,8.15h0a2.43,2.43,0,0,0-2.43-2.45Z"/><path class="cls-5" d="M259.9,1.7s8.36,6.48,8.29,6.51-8.35,6.45-8.35,6.45c-1-2.12-8.34-6.51-8.32-6.52S258.9,3.81,259.9,1.7Z"/><path class="cls-6" d="M0,8.32s2.21,12,17.32-.07C17.32,8.25,3.08-4,0,8.32Zm3.47-.07a.58.58,0,1,1,.58.57A.57.57,0,0,1,3.47,8.25Zm10.11,0s-1,3.61-7.91,0C5.67,8.26,12.13,4.54,13.58,8.23Z"/><path class="cls-7" d="M18.44,6.6A1.58,1.58,0,0,1,20,8.18h0a1.6,1.6,0,0,1-1.59,1.6h0A1.58,1.58,0,0,1,16.86,8.2h0a1.58,1.58,0,0,1,1.58-1.6Z"/></g></svg>