<svg id="Capa_1" data-name="Capa 1" xmlns="http://www.w3.org/2000/svg" viewBox="0 0 416.9 382.68"><defs><style>.cls-1{fill:#fff;}.cls-2{fill:#ffe255;}</style></defs><g id="Capa_1-2" data-name="Capa 1"><path class="cls-1" d="M30,109.51H53.26c1.76,0,3.54-.12,5.09,1,.36.25.66.73,1.2.45,5.67-3,11.74-.8,17.6-1.37,1.44-.14,3.5-.23,3.9,1.56s-1.49,2.5-2.91,3a2.48,2.48,0,0,0-2,2.78q.12,6.52,0,13c0,2.39,1,2.22,2.56,1.36s2.87-1.6,4.32-2.39a17.49,17.49,0,0,1,8.77-2.24c7.15.1,11.17,4,11.25,11.15q.15,12.15,0,24.32c0,2.45.29,4.34,2.86,5.36,1,.4,2.29,1.07,2.09,2.5-.17,1.16-1.3,1.68-2.31,1.94a32.73,32.73,0,0,1-16.62,0c-1-.26-2.1-.85-2.2-2.05s1-1.87,1.93-2.25c2.65-1,3.11-3,3-5.6-.17-6.93,0-13.87-.07-20.8,0-5.49-3-7.7-8.23-6.29-.79.21-1.57.47-2.37.68-5,1.27-5,1.27-5,6.66,0,6.7.06,13.39,0,20.09,0,2.31.29,4.13,2.72,5.1,1,.41,2.37,1.05,2.28,2.4-.1,1.52-1.59,2-2.81,2.29-5.43,1.06-10.94,1.47-16.27-.31-2.9-1-3-2.65-.33-4S65,164.43,65,161.61c-.12-14.58-.22-29.15.07-43.72.06-3.56-2.4-3.77-4.31-5-.49-.31-.82,0-1,.54-2.11,4.39-6.61,6.18-10,9.14-2,1.69-4,3-1,5.72a2.41,2.41,0,0,1,.19,3.41,2.27,2.27,0,0,1-.78.59,3.63,3.63,0,0,1-5-.84c-1.24-1.49-1.11-3.26-.7-5a36.1,36.1,0,0,1,3.38-8.12c1.4-2.74.47-3.57-2.31-3.54-9.3.11-7.77-.91-7.82,7.5-.08,12.45.11,24.91-.11,37.36-.06,3.33,1,5.36,3.88,6.71a3,3,0,0,1,.6.35c1.47,1.21,4.36,1.74,3.74,4s-3.39,2.5-5.42,2.43a138.3,138.3,0,0,0-16.54.09,7.19,7.19,0,0,1-2.75-.52c-1.19-.4-2.77-.63-3-2.09s1.11-2.38,2.25-2.82c5.42-2.09,6.32-6.14,6.17-11.48-.36-12.57-.19-25.15-.06-37.72,0-2.92-.85-3.92-3.8-3.87-8.61.14-8.37-.37-4.67,7.23a15,15,0,0,1,1.89,6.37c0,2.2-.75,4-3.13,4.45-1.45.31-2.84.13-3.71-1.3a2.57,2.57,0,0,1,.52-3.52c2.43-2,1.2-3.35-.56-4.71-2.6-2-5.3-3.91-7.8-6-1.55-1.31-3.73-2.63-2.73-5.18.76-2.49,3.07-2.49,5.23-2.49H30Z"/><path class="cls-1" d="M367,126.38h10.27a12.91,12.91,0,0,1,4.49.71,4.1,4.1,0,0,1,3.09,4.22,3.59,3.59,0,0,1-3.16,3.68c-2.14.36-4.53.49-5.39-2-.63-1.81-1.64-2-3.15-2h-9.51c-1.65,0-3.57.09-3.95,2.13s1.42,2.52,2.8,3.1c3.9,1.61,7.86,3.09,11.76,4.71a27.21,27.21,0,0,1,8.85,5.64,16.28,16.28,0,0,1,2.9,19.84c-2.36,4.2-5.89,6.81-10.87,6.39a109.41,109.41,0,0,0-19.66,0c-4.34.4-8.24-.93-10.49-5s-1.37-7.9,1.39-11.47c.62-.81,1.38-2,1.2-2.84-.84-3.83,1.76-3.32,3.85-3.13,3.38.31,5.45,2.36,5.66,5.69s2.12,4.64,5.21,4.9a23.86,23.86,0,0,0,7.35-.31c2.25-.52,4.28-1.55,4.87-4s-.67-4.33-2.49-5.81a44,44,0,0,0-9.45-5.39,92.23,92.23,0,0,1-12.44-6.56c-2.33-1.56-4.36-3.4-3.86-6.55s3.12-4.19,5.76-5C357.15,125.79,362.48,126.58,367,126.38Z"/><path class="cls-1" d="M394.86,149.25c0-3.75-.05-7.51,0-11.26.05-2.82.33-5.46-3.17-6.86-1.91-.76-1.67-2.33.47-3.14,3.12-1.19,3.52-3.43.79-5.54-2.18-1.67-1-2.51.53-3.25a61.39,61.39,0,0,0,11.18-6.62c.64-.5,1.42-1.08,2.23-.53s.4,1.45.13,2.22c-1.48,4.11-.42,8.38-.74,12.56-.09,1.23.55,1.7,1.71,1.5.69-.12,1.37-.33,2.06-.47,6-1.21,7.7.58,5.85,6.28a6.52,6.52,0,0,0-.21,4.14c.54,1.61,1.48,3.08-1.07,3.76-2.39.63-4.48.39-5.75-2a6.55,6.55,0,0,1-.51-4.46c.17-.86.17-1.72-1.07-1.67-1,0-1,.77-1,1.5v28.87c0,2,1.8,2.23,3,3.06,2.49,1.75,2.56,3.26-.26,4.12a27.64,27.64,0,0,1-17.18-.08c-2.6-.89-2.69-2.59-.15-3.85s3.26-3.21,3.15-5.92c-.16-4.1,0-8.21,0-12.32Z"/><path class="cls-1" d="M239.65,138c0,7.86.09,15.72,0,23.58-.05,2.68.24,4.84,3.13,5.9.93.33,2,1,1.83,2.28a2.74,2.74,0,0,1-2.3,2,32.32,32.32,0,0,1-16.57,0c-1-.27-2.12-.86-2.27-2s.94-1.89,1.88-2.27c2.62-1,3.13-2.94,3.11-5.58-.07-14.43,0-28.86.1-43.29,0-2.55-.29-4.65-3-5.66a1.82,1.82,0,0,1-1.36-2.17h0c.27-1.08,1.17-1.37,2.19-1.37H237.3c2.4,0,2.51,1.52,2.51,3.31v25.34Z"/><path class="cls-1" d="M121.56,256.24c8.4-1.37,8.4-1.37,8.4,6.55v8.45c0,1.56.51,2.89,2.3,2.94s3.77-.72,3.89-2.75c.24-4.2.06-8.44,0-12.66,0-1.67-1.66-1.72-2.82-2.67,2.69-.92,5.25-.32,7.74-.46,1.59-.1,1.51,1.06,1.51,2.15v12.68c0,1.91-.18,3.8,2.17,5-2.44.44-5.8,2.08-7.15,1.07-3-2.25-4.64.42-6.84.65-4.12.43-6.93-1.69-7.09-5.85-.13-3.52-.07-7,0-10.56C123.69,258.94,123.72,257.21,121.56,256.24Z"/><path class="cls-1" d="M182.56,276.36H172.43c2.8-4.11,2.83-26.92-.39-30.57h7.2c1.9,0,1.5,1.41,1.5,2.5v22.83C180.71,273,180.7,274.84,182.56,276.36Z"/><path class="cls-1" d="M295,276.13H282.84c3.25-3.55,3.26-17.3.23-20.17,4.86-1.48,7.66-.88,8.54,1.89a28.06,28.06,0,0,1,3.7-2.52c2-1,4-.78,5.22,1.29a2.9,2.9,0,0,1-.39,3.88c-1.81,1.57-3.25.7-4.81-.83-2.23-2.19-3.43.1-3.58,1.66a115.4,115.4,0,0,0-.17,11.91C291.6,274.9,293.44,274.75,295,276.13Z"/><path class="cls-1" d="M216.15,271.85c-3.76,5.32-9.35,6.63-13.85,3.71s-6-10.23-3-15.5c2.64-4.56,9.09-6.49,13.53-4.07a4.82,4.82,0,0,1,2.37,2.5,3,3,0,0,1-.43,3.31,3,3,0,0,1-2.89.87c-1.42-.29-1.78-1.39-1.94-2.61-.19-1.43.38-3.44-1.85-3.57s-3.14,1.78-3.51,3.7a20.47,20.47,0,0,0-.41,4.88C204.63,273.08,208.59,275.58,216.15,271.85Z"/><path class="cls-1" d="M196.29,276.33H185.16c2.82-4.67,2.76-17.51-.62-20.84h7.3c1.86,0,1.6,1.3,1.6,2.44v12C193.45,272.14,192.89,274.58,196.29,276.33Z"/><path class="cls-1" d="M302.42,276.83c-2.44-.35-3.75-1.79-3.56-4.07a3.49,3.49,0,0,1,3.48-3.5,2.88,2.88,0,0,1,.59.05,3.44,3.44,0,0,1,3.49,3.39,4.18,4.18,0,0,1-.05.61C306.2,275.74,304.64,276.75,302.42,276.83Z"/><path class="cls-1" d="M190.44,245.16a3.2,3.2,0,0,1,3.25,3.13,4,4,0,0,1-.05.6c-.12,2.12-1.47,3.14-3.51,3.1a3,3,0,0,1-3.29-2.68,2.74,2.74,0,0,1,0-.64C186.86,246.43,188.11,245.25,190.44,245.16Z"/><path class="cls-1" d="M406.68,73.51a37.59,37.59,0,0,0-11.88-8.06c-9.64-4.36-19.88-6.42-30.28-7.71-27.89-3.45-55.81-2.26-83.72-.23-25.55,1.87-51,5.11-76.29,8.8A17,17,0,0,1,194,64.46a158.51,158.51,0,0,1-25.48-16.33c-9.12-7.22-9-17.22.28-24.3A41.34,41.34,0,0,1,193,15.27c12.64-.46,24,2.93,33.36,11.6,6.43,6,6.49,14.22.68,20.77a24.71,24.71,0,0,1-15.23,8.11c-3.59.56-7.17,1.25-10.71,2.06-1.41.32-3.49.67-3.23,2.57.2,1.5,2.25,1.35,3.54,1.74,2,.59,4,.11,6-.1,10-1.08,19.83-2.77,28.39-8.51,11.93-8,13.18-22.27,2.92-32.26a31.5,31.5,0,0,0-9.55-6.51,86.57,86.57,0,0,0-49.69-5.82c-9.84,1.65-19.21,4.54-26.87,11.39-5.72,5.1-7.38,11.46-5.9,18.84,1.14,5.76,4.48,10,9,13.4A124.23,124.23,0,0,0,177.16,65.3c1.22.58,2.64.9,3.49,2.28C175,70,169.56,71.26,163.73,68a136.3,136.3,0,0,0-14-6.59c-29.44-12.31-60-17.84-91.92-14.71-11.88,1.16-23.43,3.82-34.19,9.18-7.46,3.72-14,8.51-18.52,15.79-2.74,4.44-2.41,8.67.28,12.9,3,4.64,7.36,7.54,12.2,9.81a78.08,78.08,0,0,0,32.36,7.45c21,.34,41.24-4,61.19-10.38,17.54-5.64,35.2-11,53.38-14.34a7.9,7.9,0,0,1,7.62,2.23,231.07,231.07,0,0,1,24.51,28.14,1,1,0,0,1,0,1.41H193c-7.36.29-13.38,3.19-17.85,9.14-9.6,12.83-9.12,37,1,49.43,3.26,4,7.24,6.23,12.6,5.42a26.43,26.43,0,0,1,8.42,0c7.4,1.3,12.21-2.12,15.34-8.45A56.35,56.35,0,0,0,218,130.58c-.81-5.44-2.39-10.93-6.79-14.35-5.27-4.09-8.53-9.59-12.42-14.67A177.9,177.9,0,0,0,176,76.2c11.73-5.38,22.84-3.91,33.83,1,3.11,1.38,6.22,2.78,9.43,3.9a637.34,637.34,0,0,0,83.59,22.66c23.39,4.76,46.9,8.65,70.92,7.87,9.57-.3,19-1.26,27.71-5.72C414.09,99.31,416.55,83.8,406.68,73.51ZM157.13,72.35c-.17,1.24-1.69,1.5-2.81,1.79l-23.56,6c-18.1,4.57-36.11,9.6-54.71,11.9-12,1.54-24,2.34-36.12-.2a32.36,32.36,0,0,1-11.09-4.37c-8.33-5.45-9.27-14-2.29-21.19,4.77-4.89,10.91-7.25,17.32-9,11-2.92,22.24-3.53,33.55-3.57,25.23,0,49.44,5.16,72.9,14.21A38.65,38.65,0,0,1,154.79,70c1,.57,2.53,1,2.34,2.34Zm50.07,51.49c3.3,9.27,3.79,18.47-.36,27.45-3.13,6.78-9.33,9.51-16.68,7.9-6.56-1.44-9.26-7.61-6.28-14.37a13.29,13.29,0,0,1,5.27-6c2.49-1.55,5.09-2.93,7.66-4.32,4.52-2.45,8.77-5.12,10.39-10.66Zm-4.51-5.64c1.11,3.35.06,6.25-2.43,8.61a26,26,0,0,1-6.24,3.88c-10,5.07-11.14,6.3-15.71,16.81-1.82-8.39-2-16,1-23.45s8.87-11.17,16.46-10.4c3.06.3,5.85,1.3,6.92,4.55Zm181.39-21c-5.31,3.35-11.33,4.48-17.43,5.1-14.72,1.51-29.32,0-43.85-2.12A518.11,518.11,0,0,1,228.21,77c-1.87-.66-3.69-1.49-5.52-2.28q-1.08-.6-2.1-1.29c6.47-2.41,12.5-3.25,18.5-4.14,30.59-4.5,61.33-7.14,92.28-6.28,14.68.41,29.33,1.39,43.4,6.19a32.19,32.19,0,0,1,11.08,6C393.28,81.72,392.46,91.91,384.08,97.2Z"/><path class="cls-1" d="M392.56,192.05c-6.59-4.51-14.1-6.92-21.81-8.63-21.76-4.85-43.82-4.71-65.91-3.68-26.56,1.24-52.81,5.16-79.07,9-32,4.66-64,8.67-96.28,10.13C105.8,200,82.35,199.53,59,195c-12.31-2.41-24.84-3.55-37.24-6.1.16,1.36,1.13,1.74,1.8,2.34,8.56,7.69,17.2,15.29,25.67,23.09a7.57,7.57,0,0,0,6.9,2.07,257.68,257.68,0,0,1,52-2.15c10.78.67,21,3.8,31.45,5.89A958.52,958.52,0,0,0,260.35,236c28.14,2,56.31,2.77,84.43-.44,13.57-1.55,27-3.9,39.34-10.19,6-3,11.45-6.9,14-13.36C402.22,201.39,400.3,197.34,392.56,192.05Zm-23,23.43c-8.26,5.93-18,8-27.75,9.49-21.45,3.37-43.06,3.32-64.68,2.33a843.33,843.33,0,0,1-126.52-15c-2.22-.44-4.53-.69-6.46-2.33,12.26-1.69,24.42-3.52,36.57-5.35,30.31-4.57,60.61-9.3,91.11-12.47,24.77-2.57,49.58-4.79,74.52-2.51a69.53,69.53,0,0,1,15.19,2.94,41.23,41.23,0,0,1,6.51,2.63c9.95,5.21,10.64,13.7,1.49,20.27Z"/><path class="cls-1" d="M294.67,166.58c-2.71-1.19-3.17-3.21-3.11-5.91.15-7.63.05-15.26.05-22.89h.06c0-8.1-.06-16.2,0-24.3,0-3-1.09-4.29-4.16-4.14-3.4.15-6.81,0-10.21,0-1.3,0-2.77-.12-3.21,1.48-.48,1.77.89,2.67,2.2,3.11,3.53,1.18,4.62,3.57,4.11,7.07a27.77,27.77,0,0,0,0,3.87c0,4.65,0,4.65-4.38,2.65-9.76-4.5-18.73-1.77-24.18,7.47-4.56,7.75-5.09,16-2.51,24.47,2.74,9,9.35,14,18.73,13.27a196.52,196.52,0,0,1,22.11-.35,14.08,14.08,0,0,0,3.48-.4c1.48-.34,3.27-.68,3.56-2.42S295.9,167.11,294.67,166.58Zm-14.36-20.31h0v8.79c0,2.71-1.29,4.24-4,4.33-3.4.11-6.8.15-10.19,0-2.63-.11-4.13-2-5.36-4.08-3.31-5.52-2.52-15.64,1.55-20.68,2.77-3.42,6.44-4.13,10.47-3.13,6.13,1.52,7.52,3.46,7.5,9.84Z"/><path class="cls-1" d="M339.63,156.2c-1.28-1.44-2.65-3-4.14,0a7.36,7.36,0,0,1-4.4,3.32c-4.74,1.7-9.43,1.22-14.17-.13-2.89-.82-3-2.33-1.74-4.64,1.94-3.46,5.12-5.41,8.43-7.21,4.53-2.46,9.45-4.21,13.53-7.46,3.32-2.65,4.8-6.21,3.7-9.19-1.38-3.76-4.78-4.28-8.09-4.4-5.28-.18-10.57-.17-15.84,0a15.41,15.41,0,0,0-12.68,6.6c-6.71,9.7-8.05,20.19-2.81,30.94,3,6.15,7.93,9.8,15.33,8.73,1.62-.24,3.27-.27,4.9-.39v.47c3.16,0,6.34.17,9.48,0a10.77,10.77,0,0,0,9.68-7.06C342.21,162.42,342.21,159.08,339.63,156.2Zm-29.51-2c-3-5.37-2.41-15,.88-19.15,3.13-3.94,12.68-5.44,17-2.59,2.35,1.56,2.32,3.65.87,5.79a10.26,10.26,0,0,1-4.17,3.17c-5.95,2.9-11.78,5.92-14.58,12.74Z"/><path class="cls-1" d="M154.49,156.83c-1.43-1.83-2.9-3.7-4.76-.14-1,1.93-3.12,2.79-5.2,3.37a21.62,21.62,0,0,1-12.81-.44c-3.47-1.15-3.77-1.88-1.93-5,2.33-3.94,6.25-5.9,10.13-7.87s8.15-3.66,11.66-6.48c2.95-2.36,4.86-5.37,3.69-9.19s-4.73-4.31-8-4.43c-5.28-.18-10.56-.14-15.84,0a16.51,16.51,0,0,0-12.08,5.68c-7.66,8.35-8.71,24.94-2.16,34.19,3.29,4.65,7.55,7.27,13.48,6.48,1.86-.25,3.74-.27,5.61-.4V173c3.16,0,6.34.15,9.48,0a10.65,10.65,0,0,0,9.33-6.52C156.6,163.22,156.86,159.87,154.49,156.83Zm-29.92-2.52c-5.14-8.8-1.22-20.93,7-22.72a17.68,17.68,0,0,1,9.38.32c3.74,1.24,4.48,4.61,1.58,7.31a14.28,14.28,0,0,1-3.18,2.16C133.39,144.44,127.36,147.33,124.57,154.31Z"/><path class="cls-1" d="M252.23,261.34c-1-.57-2.15-1-3.63-1.67,3.74-1.6,6.68-3.33,6.17-7.58-.41-3.46-2.89-5.09-5.88-5.73-6.45-1.39-13-.47-19.63-.26,3.55.88,3.81,3.29,3.72,6.2-.18,5.63-.15,11.27,0,16.9.06,3,.23,5.9-3.88,6.8,7,.18,13.87,1.16,20.62-.53a10.37,10.37,0,0,0,2.87-1.31C257.79,270.9,257.63,264.32,252.23,261.34Zm-12-11.16c.14-2.86,1.86-3.88,4.46-2.65s2.53,3.69,2.53,6-.48,4.42-3.07,5.32c-3.17,1.1-3.91.62-3.94-2.75v-2.45h0c0-1.13,0-2.3,0-3.47Zm6.19,23.57a4.83,4.83,0,0,1-4.63.89c-1.91-.66-1.55-2.39-1.59-3.87v-3.51a16.83,16.83,0,0,1,0-2.46c.22-1.29-.84-3.12.81-3.78s3.25,0,4.69.88c3.39,2.05,3.85,9.47.75,11.85Z"/><path class="cls-1" d="M113.12,246.39c-6.33-1-12.73-.25-19.48,0,4.07.75,3.78,3.64,3.78,6.34v16.55c0,2.92.28,6-3.55,7.13h14.45l1-1c-5.08.32-4.61-2.71-4.59-5.47a31.23,31.23,0,0,0,0-3.87c-.24-2.3.34-3.5,3-3.27a19.32,19.32,0,0,0,5.25-.48c4.27-.86,7.11-4.1,7.18-8C120.23,250.24,117.8,247.17,113.12,246.39Zm-.88,9.13c-.09,2.62-1,4.8-4,5.4-2.33.47-3.91.13-3.45-2.85a25.41,25.41,0,0,0,0-3.49v-3.85c.08-3,1.77-4.16,4.55-2.83C112.66,249.47,112.34,252.64,112.24,255.52Z"/><path class="cls-1" d="M169.19,261.64a8.8,8.8,0,0,0-4.35-5.71c-3.1-1.61-6.07-.78-9.26,1v-3.87c0-7.76,0-7.76-8-7.15a7.7,7.7,0,0,0-1.12.54c2.84.93,2.79,2.87,2.77,4.9q-.09,10.74,0,21.46c0,1.33-.38,2.75.56,4.28,2.2-2.46,4.37-2.17,6.8-.56,1.5,1,3.41.7,5.15.3C167.88,275.45,171.21,268.58,169.19,261.64Zm-7.31,11.69a3.12,3.12,0,0,1-3.55,2.23c-1.82-.23-2.55-1.57-2.65-3.21-.11-2,0-4,0-6h0v-5.26a3.23,3.23,0,0,1,2.78-3.5,3.09,3.09,0,0,1,3.52,2.3A20.25,20.25,0,0,1,161.88,273.33Z"/><path class="cls-1" d="M278.19,273c-.06-.58-.08-1.16-.09-1.75v-4.93c0-1.64-.07-3.06,0-4.58.2-3.37-1.54-5.28-4.57-6.21a14.11,14.11,0,0,0-8.67,0,5.92,5.92,0,0,0-4.19,3.94,3.08,3.08,0,0,0,4.9,3.4,2.34,2.34,0,0,0,.64-3.24,1.56,1.56,0,0,0-.16-.2c-1.6-2.4.15-2.95,1.91-3.06s3.63.52,3.79,2.77c.16,2.05,1.21,4.5-2.21,5.28a17.9,17.9,0,0,0-7.92,3.67,4.89,4.89,0,0,0-1.52,6c1,2.23,2.91,3,5.19,2.83a8.78,8.78,0,0,0,4.89-1.79c1-.81,1.51-.82,2.44.36,1.79,2.28,4.13,1.68,6.32.39C282.12,274,278.3,274,278.19,273Zm-6.47-4.52c.24,2.63.1,4.91-3,5.1-1.83.11-2.34-1.42-2.29-2.89a4.7,4.7,0,0,1,4.24-4.83c2.16-.25.52,2,1.05,2.62Z"/></g><path class="cls-2" d="M101.58,325.75q2.31-1.81,4.37-3.23a11.16,11.16,0,0,1,4.1-1.81,6.08,6.08,0,0,1,2.91.13,8,8,0,0,1,3,1.76,19.56,19.56,0,0,1,3.42,3,4.32,4.32,0,0,1,1,2.74,11.53,11.53,0,0,1-.76,3.86c-.52,1.54-1.17,3.67-1.92,6.38-.31,1.23-.67,2.41-1.05,3.55s-.73,2.24-1,3.27a23.29,23.29,0,0,0-.63,2.88,7,7,0,0,0,0,2.47,4.82,4.82,0,0,1,.65,1.2,1.15,1.15,0,0,1-.26,1.29c-.24.35-.44.54-.62.58s-.44-.08-.62-.39a1.12,1.12,0,0,0-.66-.55.77.77,0,0,1-.59-.21,1,1,0,0,1-.4-.61,5,5,0,0,1-3.32-2.24,8.23,8.23,0,0,1-1-3.95,22.51,22.51,0,0,1,.59-5.2c.43-1.91.86-3.92,1.31-6,.18-.64.32-1.19.41-1.64a3.83,3.83,0,0,0,.13-.76,14.42,14.42,0,0,0-3.13,2.54c-1.31,1.29-2.64,2.74-4,4.35a55.67,55.67,0,0,0-3.76,4.95,24.19,24.19,0,0,0-2.39,4.22,17.65,17.65,0,0,0-1.45,3.17,31.93,31.93,0,0,0-1.13,4.08,30.14,30.14,0,0,0-.59,4.28,15.38,15.38,0,0,0,.19,3.81,5.2,5.2,0,0,0,1.2,2.61,2.49,2.49,0,0,0,2.46.63,8.34,8.34,0,0,0,2.75-.91,17.11,17.11,0,0,0,3-1.9,22.73,22.73,0,0,0,2.79-2.61,15.88,15.88,0,0,0,2.15-2.89c.79-1.56,1.84-2.16,3.13-1.8.53.2.79.46.79.76a6.41,6.41,0,0,1-.72,2l-.07.11.36-.53a3.82,3.82,0,0,1,.69-.68c.18,0,0,.47-.48,1.51a27.17,27.17,0,0,1-2.22,3.69,31.37,31.37,0,0,1-3.42,4.1,12.46,12.46,0,0,1-4,2.84,12.26,12.26,0,0,0,3.68-1.82,19,19,0,0,0,3.24-2.92,17.13,17.13,0,0,0,2.46-3.6,12.67,12.67,0,0,0,1.31-3.64,4.57,4.57,0,0,1-.36,3.32,23.77,23.77,0,0,1-2,3.66c-.85,1.26-1.22,1.88-1.1,1.86l.28-.42c.09-.14.22-.3.36-.49s.33-.38.53-.6a8.59,8.59,0,0,0,2.16-3.49c.24-1,.51-2.1.82-3.33a8.14,8.14,0,0,1,0,5.61,16.9,16.9,0,0,1-3.17,5.43,18.51,18.51,0,0,1-4.93,4.07,12,12,0,0,1-5.35,1.73,4.78,4.78,0,0,1-2.22-.81,11.48,11.48,0,0,1-1.86-1.56c-.58-.59-1.14-1.2-1.69-1.83a9.65,9.65,0,0,0-1.77-1.58,17.55,17.55,0,0,1-6.5-10.06A25.56,25.56,0,0,1,86.93,348a40.19,40.19,0,0,1,5.57-12.13A46.31,46.31,0,0,1,101.58,325.75ZM88.39,350.32a7.64,7.64,0,0,0,.4-1.27c.25-.9.47-1.8.66-2.69a1.39,1.39,0,0,0,.09-.48.25.25,0,0,0,.06-.19q-.09,0-.33.66a14.26,14.26,0,0,0-.45,1.46c-.14.55-.25,1.06-.34,1.53A3,3,0,0,0,88.39,350.32Zm4.54-.7a42.81,42.81,0,0,1,6.12-12.37,54.87,54.87,0,0,1,9.37-9.8c.19-.28.26-.42.2-.41a6,6,0,0,0-.73.47,15.93,15.93,0,0,0-1.4,1.09c-.49.44-1,.87-1.49,1.3s-.9.77-1.22,1a44.26,44.26,0,0,0-8.72,10.77,28,28,0,0,0-3.79,11.19c-.12,1.25-.13,1.86,0,1.83s.17-.24.32-.7.32-1,.48-1.56.31-1.14.45-1.69A4,4,0,0,1,92.93,349.62Zm-.39,6.5c0-.38.12-.74.2-1.1s.15-.59.18-.72c.23-.72.51-1.58.83-2.59s.66-2,1-3,.72-2,1.09-2.87.72-1.65,1-2.26a6.48,6.48,0,0,0,.79-1.62,3,3,0,0,1,.26-.51c-.11,0-.4.43-.86,1.22s-.94,1.69-1.44,2.71-1,2-1.4,2.93a11.15,11.15,0,0,0-.74,1.88,4.79,4.79,0,0,1,.34-.61.25.25,0,0,1,.06-.19c.11,0,.09.19-.06.65s-.3.67-.43.63a5.82,5.82,0,0,0-.29.88c-.14.52-.28,1.11-.43,1.78a18.1,18.1,0,0,0-.31,1.94,5.39,5.39,0,0,0,0,1.47q0,.45,0,.36C92.42,357,92.47,356.68,92.54,356.12Zm3.6-9.78a40.26,40.26,0,0,1,4-7,65.06,65.06,0,0,1,4.62-5.71,16.87,16.87,0,0,0-2.53,2.55c-.94,1.14-1.85,2.35-2.73,3.65a41.7,41.7,0,0,0-2.38,4,28.57,28.57,0,0,0-1.61,3.52c-.2.53-.27.72-.21.59S95.65,347.29,96.14,346.34Zm6.13,28.7-.53.1c-.16.09-.06.1.33,0S102.52,375.05,102.27,375Zm4.44-4.07a16.48,16.48,0,0,0,2.85-2.3,20.16,20.16,0,0,0,2.06-2.6,6,6,0,0,0,.56-.89s-.15.14-.45.5a19.13,19.13,0,0,1-3.07,3.3c-1.23,1.07-2.3,2-3.19,2.69-.1.14,0,.14.23,0S106.28,371.29,106.71,371Zm3-26.91q.12.63.39-1.26a6.53,6.53,0,0,1,.27-1.93c.25-1.24.54-2.59.87-4s.63-2.75.89-3.94a8.17,8.17,0,0,0,.3-1.75l-.06.19-.18.5c-.16.76-.37,1.69-.65,2.78s-.56,2.24-.85,3.42-.52,2.32-.71,3.4A14.37,14.37,0,0,0,109.73,344.06Zm3.41-.38a4.36,4.36,0,0,1,.27-1.43c.22-.78.49-1.72.83-2.82s.7-2.29,1.09-3.56.72-2.42,1-3.45a20.18,20.18,0,0,0,.51-2.57c.08-.69,0-1-.23-1s-.35.28-.5.74-.53,1.66-1.13,3.61c-.64,2.38-1.17,4.37-1.6,5.95s-.73,2.92-.91,4a26.67,26.67,0,0,0-.34,3,21,21,0,0,0,0,2.74c.14-.82.31-1.69.5-2.61S113,344.5,113.14,343.68Zm.43,4.13a13.2,13.2,0,0,1,.55-3.09q.6-2.36,1.41-5.27l1.62-5.81c.54-1.94.94-3.46,1.22-4.55-.09-.16-.2-.24-.32-.21s-.19.16-.24.41-.09.52-.16.81a6.45,6.45,0,0,0-.15.86.8.8,0,0,1-.22.54.78.78,0,0,0-.16.36c0,.09,0,.07.12-.07s.09,0-.06.14-.16.3,0,.33a.15.15,0,0,1-.14.21c-.12,0-.14.06-.07.11s0,.15-.13.3a.47.47,0,0,0,0,.5c.1.2.08.27,0,.24s-.23,0-.24.18,0,.26.11.12.09,0-.06.15-.16.29,0,.32.1.15-.11.16-.25.07-.1.16,0,.16-.12.34-.15.32,0,.42.12.16-.06.19-.29.44-.39,1a7.12,7.12,0,0,0-.13,1c0-.06-.06,0-.16.12a1.76,1.76,0,0,0-.22.5c-.06.2-.1.38-.13.53s0,.24,0,.22l-.12.3c-.15.16-.21.29-.15.4a.23.23,0,0,1-.08.29c-.11.08-.21.44-.3,1.07s-.19,1-.3,1.06c-.11.39-.22.89-.35,1.49s-.25,1.23-.37,1.86-.22,1.24-.29,1.8a10.08,10.08,0,0,0-.12,1.31C113.11,349.67,113.27,349.4,113.57,347.81Z"/><path class="cls-2" d="M114.25,375.37a3.07,3.07,0,0,0,0-.83.71.71,0,0,0-.17-.38,1.37,1.37,0,0,0-.37-.25,4.17,4.17,0,0,1-.69-.51c-.68-.66-.83-1.75-.45-3.26a31.5,31.5,0,0,1,1.88-5.18q1.3-2.91,3-6.18t3-6.26a4.3,4.3,0,0,0,.75-1.56,10.21,10.21,0,0,0,.14-1.18,3.56,3.56,0,0,1,.21-1,2.33,2.33,0,0,1,.9-1c.94-1.46,2-3.25,3-5.35s2.24-4.34,3.47-6.68,2.46-4.74,3.69-7.18,2.49-4.72,3.76-6.83a58.27,58.27,0,0,1,3.74-5.54,12.53,12.53,0,0,1,3.57-3.35c.75.09,1.1.18,1.05.25s0,.09.11.07.32-.14.33.07.11.3.29.27.26,0,.3.17.11.24.21.09.21-.05.37.25.24.4.28.27.17-.19.24-.14a.6.6,0,0,1,.19.24,2.42,2.42,0,0,0,.21.37c.09.14.16.2.22.19a.84.84,0,0,1,.56.53.84.84,0,0,0,.56.53c.3,0,.5.2.61.76a7.79,7.79,0,0,0,.33,1.26c0-.19,0-.45.08-.79a3.53,3.53,0,0,1,.09-.71,9.48,9.48,0,0,1,1.81,4.14,18.61,18.61,0,0,1,.12,4.38c-.12,1.55-.34,3.2-.64,4.94a41.07,41.07,0,0,0-.56,5.84c-.08.56-.23,1.77-.45,3.61s-.47,4-.74,6.34-.55,4.86-.84,7.45-.57,4.94-.83,7-.52,3.78-.76,5-.42,1.76-.54,1.48q-.84.9-1,.51a1.07,1.07,0,0,1,.08-.8c-.26.24-.41.17-.45-.18a6.8,6.8,0,0,1,0-1.34,11.84,11.84,0,0,1,.22-1.46c.09-.45.11-.67.05-.65l-.05.19-.18.49a8.17,8.17,0,0,1-.68,1.46c-.3.52-.52.73-.66.64a7.87,7.87,0,0,1,0-1.11l.09-.93q0-.46.09-.75c0-.18-.14-.22-.3-.13s-.25.13-.23.28a.33.33,0,0,1-.11.34q-.48-.09-.27-.45c.13-.24.1-.4-.1-.49s-.3-.2-.23,0,.05.34,0,.42a2.32,2.32,0,0,0-.27.74c-.09.36-.24.28-.46-.23-.14-.71-.22-.92-.26-.64a.94.94,0,0,1-.46.69c-.12,0-.25-.07-.38-.29a.66.66,0,0,1-.08-.63c0-.12-.11-.1-.26.05-.59.12-.95-.32-1.08-1.3a18.08,18.08,0,0,1-.07-3.43c.08-1.3.21-2.59.39-3.88a13.23,13.23,0,0,0,.18-2.83c-.68.26-1.53.53-2.54.82l-3.18.89c-1.1.31-2.19.58-3.27.82s-2.07.45-2.95.62q-1.28,2.44-3.11,5.46c-1.23,2-2.42,4-3.56,6s-2.15,3.89-3,5.68a14.07,14.07,0,0,0-1.5,4.55,1.52,1.52,0,0,1-.37.94,1.29,1.29,0,0,1-.8.57.42.42,0,0,1-.51-.26.74.74,0,0,1-.14-.71c.06-.32,0-.5,0-.55a.34.34,0,0,0-.24,0,.88.88,0,0,1-.28,0C114.3,375.83,114.25,375.67,114.25,375.37Zm2.78-4.58.15-.21a1.57,1.57,0,0,0-.47.46C116.76,371.27,116.87,371.19,117,370.79Zm.36-1c-.2.53-.21.62,0,.28l1.27-2.45a70.07,70.07,0,0,1,4-7.33,55.51,55.51,0,0,0,3.2-5.71,10.28,10.28,0,0,0-2.07,2.83q-1.26,2.22-2.56,4.76T118.85,367A26.47,26.47,0,0,1,117.39,369.81Zm.62-3.42c.14-.22.19-.3.13-.26a.91.91,0,0,0-.18.22l-.18.26c0,.07,0,.1,0,.09S118,366.57,118,366.39Zm6.67-12.85c-.69,1.17-1.28,2.22-1.77,3.14s-1,1.91-1.58,3-1.07,2-1.53,3-1,2-1.54,3.19l.29-.43c.09-.14.19-.31.31-.52s.26-.47.43-.81a12.17,12.17,0,0,1,1.09-2.19l2-3.36q1-1.75,1.8-3.24C124.65,354.26,124.83,353.69,124.68,353.54Zm-.92,0c.09-.2.12-.28.09-.25l-.14.22a1.52,1.52,0,0,0-.17.3c0,.1,0,.15,0,.14l.07-.11A.53.53,0,0,0,123.76,353.53Zm8-20.08c-.05.07-.43.79-1.14,2.15L128.29,340c-.85,1.61-1.6,3.08-2.25,4.43a21.27,21.27,0,0,0-1,2.11c0,.12.09.09.21-.08s.38-.64.79-1.39c.53-1,1.14-2.23,1.82-3.61l1.9-3.9,1.47-3C131.65,333.75,131.83,333.38,131.78,333.45Zm-4.13,12.27c.1.16.38-.26.86-1.27s1.05-2.13,1.73-3.36c.74-1.55,1.32-2.72,1.75-3.51s.82-1.51,1.17-2.2c-.14.21-.47.81-1,1.8s-1.07,2-1.67,3.17-1.18,2.2-1.72,3.22S127.88,345.3,127.65,345.72Zm2,7.58,1-.19A1.38,1.38,0,0,0,129.68,353.3Zm13-32.89c0-.17-.43.36-1.2,1.61s-1.7,2.82-2.79,4.72-2.28,4-3.52,6.18-2.36,4.3-3.34,6.2-1.71,3.45-2.21,4.65-.59,1.7-.26,1.51.66-1,1.39-2.28,1.59-2.74,2.57-4.49,2-3.62,3.13-5.61,2.12-3.85,3-5.58,1.67-3.25,2.28-4.53A8.68,8.68,0,0,0,142.72,320.41Zm-9.37,19.71a5.48,5.48,0,0,0-.68,1c-.29.51-.59,1.05-.88,1.59a12.81,12.81,0,0,0-.68,1.46c-.16.43-.18.63-.06.61a7.33,7.33,0,0,0,.92-.91c.21-.47.6-1.23,1.16-2.29s1.18-2.23,1.88-3.53,1.45-2.68,2.27-4.15,1.56-2.86,2.26-4.16,1.31-2.45,1.84-3.47.89-1.73,1.06-2.13a16.92,16.92,0,0,0-1.31,2q-1.15,1.88-2.52,4.25T136,335c-.8,1.5-1.34,2.52-1.6,3.06,0-.05-.08,0-.2.18s-.24.38-.38.62a3.1,3.1,0,0,0-.28.65c-.06.2-.06.26,0,.19s.12-.16.08-.06S133.49,339.9,133.35,340.12Zm.27,12.23c-.12,0-.12,0,0,0a1.45,1.45,0,0,0,.36,0,1.35,1.35,0,0,0,.34-.11c.12-.06.11-.07,0-.05A.76.76,0,0,0,133.62,352.35Zm6.17-9.27c.4.17.67.13.81-.11a3.24,3.24,0,0,0,.29-1.11c.05-.5.08-1.13.09-1.9a17.07,17.07,0,0,1,.2-2.47c.21-2.06.36-3.6.43-4.62s.17-2,.29-3c-.34.49-.89,1.41-1.67,2.75s-1.61,2.79-2.5,4.34-1.71,3-2.46,4.33-1.26,2.27-1.52,2.81c.36-.07.85-.19,1.49-.38s1.27-.34,1.92-.47,1.23-.22,1.73-.29S139.7,342.91,139.79,343.08Zm-7.37-7.74c.09-.2.11-.29.08-.29s-.08.06-.15.17a1.94,1.94,0,0,0-.17.31c0,.1,0,.14,0,.13Zm.39-.81.2-.4a1.42,1.42,0,0,0-.42.45.6.6,0,0,0-.08.29C132.57,334.86,132.67,334.75,132.81,334.53Zm3.25,17.16q-.26.13.15.06c.26-.05.33-.09.2-.13S136.22,351.6,136.06,351.69Zm-3.32-19c.14-.21.2-.3.17-.27l-.14.21a1.6,1.6,0,0,1-.22.28q-.12.1,0,.09Zm4.29-8.08a9.83,9.83,0,0,0-1,1.56c-.45.82-.9,1.69-1.37,2.61s-1.05,2.08-1.75,3.5a4.31,4.31,0,0,0,.34-.61,17.29,17.29,0,0,0,.95-1.75,14.41,14.41,0,0,1,.68-1.41c.29-.55.59-1.08.89-1.6s.57-1,.82-1.4A2.53,2.53,0,0,0,137,324.64Zm-2.68,6.94c.12-.33.19-.53.2-.59s0,0-.09.2a5.79,5.79,0,0,0-.41.72l-.54,1a3.61,3.61,0,0,1-.25.6c0,.07,0,0,.07-.1a7.12,7.12,0,0,0,.48-.83Zm-.49,3.12c.08-.2.11-.3.08-.29s-.08.06-.15.17a1.14,1.14,0,0,0-.17.3c-.05.1,0,.15,0,.14l.07-.11A.16.16,0,0,1,133.86,334.7Zm.53-1c.14-.21.2-.33.16-.35s-.09,0-.16.12l-.25.37a.53.53,0,0,0-.12.3C134.08,334.11,134.2,334,134.39,333.68Zm2.14-4.08c.54-1,.92-1.71,1.16-2.06a1.9,1.9,0,0,1,.25-.6q-.69,1.14-1.17,2c-.31.58-.64,1.18-1,1.8s-.61,1.16-.83,1.63a1.76,1.76,0,0,0-.17.3.67.67,0,0,1-.1.21.29.29,0,0,0-.05.19,9.94,9.94,0,0,0,.55-.93c.18-.34.38-.72.61-1.13S136.27,330.14,136.53,329.6Zm-1.31.34c.09-.2.11-.3.08-.29s-.08.06-.15.17a1.87,1.87,0,0,0-.17.3c0,.1,0,.15,0,.14Zm4.8-.29q2.89-5,2.29-4.3a8.17,8.17,0,0,0-.84,1.36l-1.64,2.89c-.59,1-1.34,2.39-2.23,4.1a4,4,0,0,0,.61-.9C138.55,332.21,139.16,331.16,140,329.65Zm-2-6.77a2.59,2.59,0,0,0-.48.6,1.47,1.47,0,0,0-.31.56c0,.06.16-.12.45-.55Zm.08,3.74.29-.42c.14-.21.19-.33.16-.35s-.09,0-.16.12a3.82,3.82,0,0,0-.21.36A.63.63,0,0,0,138.15,326.62Zm7.3,34.25c.07.05.12-.15.16-.58a5.76,5.76,0,0,0,.06-.66c-.08-.1-.16.06-.22.5S145.38,360.82,145.45,360.87Zm4.13-42a21.41,21.41,0,0,0-.22,2.19c-.05,1-.14,2-.25,3.17s-.22,2.35-.31,3.59-.22,2.4-.38,3.47l-.42,3.75q-.28,2.52-.6,5.66t-.62,6.45l-.57,6c-.17,1.81-.36,3.89-.57,6.26a12.71,12.71,0,0,0,.33-2.27q.25-2.25.85-7.68c.25-3.11.55-5.79.91-8.06s.66-4.43.94-6.47.52-4.09.73-6.14a65,65,0,0,0,.29-7A18.53,18.53,0,0,0,149.58,318.9Zm-1.75,2.81c-.06.93-.19,2.26-.37,4s-.37,3.6-.55,5.66-.38,4.17-.6,6.35-.41,4.19-.57,6-.3,3.41-.42,4.71-.17,2.11-.17,2.42c.21-1.45.43-3.15.66-5.12s.48-4.15.75-6.52.53-4.17.72-5.73.33-2.91.45-4,.21-2.11.29-3,.13-1.7.16-2.5c.09-1.42.13-2.55.12-3.37s0-1.23-.1-1.22A6.55,6.55,0,0,0,147.83,321.71Zm-3.94,8c.19-1.87.28-3,.28-3.26s0-.39-.14-.25-.08.66-.18,1.41-.19,1.57-.26,2.44-.14,2-.18,3.33c.06,0,.11-.29.16-.85S143.72,331,143.89,329.72Zm2,3.28c-.1-.22-.17-.18-.2.13a3.5,3.5,0,0,0,0,.56c.14.09.19,0,.14-.21A2.58,2.58,0,0,0,145.9,333Zm.45-4.76c.13-1.25.23-2.29.31-3.14s.13-1.5.16-2a11.6,11.6,0,0,1,.08-1.48c-.28,2-.48,3.65-.6,4.93s-.23,2.52-.33,3.73-.15,2-.14,2.37a6.26,6.26,0,0,0,.2-1.33C146.12,330.51,146.23,329.48,146.35,328.24Zm-1.42-10.64c0-.19,0-.27-.06-.26s-.09.06-.1.16,0,.2,0,.32,0,.18.08.17Zm4.78.54c-.05-.23-.13-.25-.24-.05s-.08.3.09.26A.16.16,0,0,0,149.71,318.14Z"/><path class="cls-2" d="M150.87,358.07c.12-.33.22-.65.31-1a1.15,1.15,0,0,1,.83-.71,22.07,22.07,0,0,0,.77-6.15,32.83,32.83,0,0,1,1-7.57q.51-3,1.26-6t1.5-5.75c.49-1.83,1-3.54,1.48-5.1s.93-2.9,1.33-4a4.58,4.58,0,0,0-1.15,1.18c-.54.69-1.07,1.32-1.6,1.92a6.79,6.79,0,0,1-1.32,1.22c-.35.22-.46-.08-.31-.91.19-.28.24-.42.14-.44a1,1,0,0,0-.39.08,1.43,1.43,0,0,1-.45.09c-.12,0-.12-.15,0-.42a3,3,0,0,0-.62-1.11c-.27-.29-.53-.57-.77-.86a3.17,3.17,0,0,1-.54-.91,1.4,1.4,0,0,1,.23-1.19,22.16,22.16,0,0,1,5.92-7.25,16.75,16.75,0,0,1,6.81-3.2,13.63,13.63,0,0,1,6.27.2,13.27,13.27,0,0,1,5.27,2.83,13.6,13.6,0,0,1,3.54,5,13.32,13.32,0,0,1,.89,6.7,21.34,21.34,0,0,1-2.64,7.89,34.73,34.73,0,0,1-6.9,8.59q4.08,4.51,4.73,8.52a9.79,9.79,0,0,1-1.37,7.1,14.76,14.76,0,0,1-6.25,5.11,29.43,29.43,0,0,1-9.82,2.55c-.61,0-1.26,0-1.94-.08a6.89,6.89,0,0,1-1.86-.37,4.72,4.72,0,0,1-1.38-.74,1.33,1.33,0,0,1-.51-1.19c-.12,0-.28-.17-.48-.59s-.15-.6.17-.54a.74.74,0,0,0,.44.14c.15,0,.19,0,.12-.07s-.05-.29-.28-.49-.46-.4-.71-.6l-.75-.58-.49-.37c0-.19-.09-.33-.36-.43S150.67,358.29,150.87,358.07Zm14.77,1q2.37-1,4.66-2.19a7.54,7.54,0,0,0,3.31-3c.29-.67.39-1,.29-1.11s-.36.14-.75.64a8.73,8.73,0,0,1-2.56,2.38,30.62,30.62,0,0,1-3.73,2.06c-1.34.62-2.72,1.18-4.12,1.67s-2.69.87-3.85,1.16a3.24,3.24,0,0,0,1.07-.12c.59-.11,1.24-.25,1.94-.42s1.4-.35,2.09-.55S165.24,359.19,165.64,359.05Zm-5.41-34.43c.2-.53.36-.94.49-1.24a4.42,4.42,0,0,0,.28-.92,16.14,16.14,0,0,0-1.34,3.24q-.84,2.49-1.58,5.3t-1.35,5.35c-.4,1.7-.64,2.83-.71,3.39,0-.12.16-.56.38-1.31s.48-1.65.76-2.71.6-2.23,1-3.49.69-2.44,1-3.54.53-2,.75-2.76ZM162.64,355c.84-.41,1.79-.88,2.84-1.42a22.17,22.17,0,0,0,3-1.82,9.59,9.59,0,0,0,2.23-2.22,3.33,3.33,0,0,0,.59-2.63,2.69,2.69,0,0,0-1.67-1.24,4.84,4.84,0,0,0-2.56-.23,2.85,2.85,0,0,0-1.42.73,6.91,6.91,0,0,1-1.91,1,5.79,5.79,0,0,0-1.48.65,3.26,3.26,0,0,0-1.08,1.26,10,10,0,0,0-.8,3,26.39,26.39,0,0,1-.81,3.18c-.22.59-.06.84.47.73a5.08,5.08,0,0,0,1-.33Zm-4.46-34.25c.26-.23.57-.54.93-.91s.68-.72,1-1q1-.93.84-.9a8.28,8.28,0,0,0-1.37,1,12.83,12.83,0,0,0-2,1.85,21,21,0,0,0-1.66,2.07c-.46.76-.61,1.12-.43,1.09s.3-.2.54-.52l.81-1,.85-1A7,7,0,0,0,158.18,320.71Zm3.47,12.62q1-4.05,1.85-6.5a43.14,43.14,0,0,0,1.28-4.74,1.4,1.4,0,0,1,.25-.83c.2-.38.39-.58.57-.62s.19,0,.22.19l.09.49a1.09,1.09,0,0,0,.11.34c0,.06.17,0,.37-.25q.92.46.69,2.61a36.66,36.66,0,0,1-.86,4.76q-.65,2.6-1.33,5a14.82,14.82,0,0,0-.69,3.29,40.34,40.34,0,0,0,3.45-3.47,44.35,44.35,0,0,0,3.72-4.71,38.48,38.48,0,0,0,3-5.17,13.39,13.39,0,0,0,1.43-4.68,3.5,3.5,0,0,0-1.88-1.15,10.09,10.09,0,0,0-2.68-.35,21.94,21.94,0,0,0-2.89.2c-1,.13-1.83.26-2.54.4-.46.15-.89.28-1.3.39s-.57.22-.49.33.23.2.32.67.17.55.26.4.15.22,0,.93-.45,1.54-.75,2.49-.63,1.89-1,2.84a13.17,13.17,0,0,0-.63,2.19c-.34,1.41-.69,2.82-1.06,4.24s-.67,2.68-.91,3.8-.43,2-.57,2.72-.18,1-.12,1a6.75,6.75,0,0,0,.56-1.58Q160.62,337,161.65,333.33Zm4.42,27.47a39.32,39.32,0,0,0,4.55-2,8.72,8.72,0,0,0,2.74-1.95c.1-.14.11-.21.06-.2a5.24,5.24,0,0,0-.73.51,32.22,32.22,0,0,1-3.06,1.7c-1.4.7-2.74,1.32-4,1.88-1.13.47-1.63.7-1.51.71A13.42,13.42,0,0,0,166.07,360.8Zm-6.61-25c0,.12.07.05.14-.21a.65.65,0,0,1,0-.28c-.08-.11-.15-.06-.2.13S159.39,335.73,159.46,335.77Zm2.42,10.08c0,.12.11.16.25.13s.21-.1.19-.22-.12-.14-.29-.08S161.81,345.8,161.88,345.85Zm1-22a7.84,7.84,0,0,1,.54-1.43q.33-.66.12-.81a8.83,8.83,0,0,0-.82,2.13c-.4,1.27-.81,2.67-1.25,4.19s-.83,3-1.18,4.31a19.64,19.64,0,0,0-.54,2.4c.08-.2.26-.83.55-1.9s.6-2.22,1-3.49.7-2.43,1-3.5S162.74,324,162.83,323.84Zm-1.14,14.89c.15-.76.45-1.89.9-3.38s.89-3.05,1.34-4.66.85-3.16,1.21-4.64a15.6,15.6,0,0,0,.52-3.22c-.09-.1-.25.22-.5,1s-.53,1.69-.83,2.82-.63,2.37-1,3.72-.68,2.59-1,3.72-.54,2.06-.74,2.8-.26,1.08-.21,1C160.93,339.74,161,340,161.69,338.73Zm1.58,4.83c0-.06.1-.17.34-.34s.49-.33.74-.47a5.49,5.49,0,0,0,.61-.39q.24-.18.06-.15a3.49,3.49,0,0,0-1.48.61,3.25,3.25,0,0,0-1.16.91q-.12.3.06.27A4.6,4.6,0,0,0,163.27,343.56Zm7.18,9.15a.5.5,0,0,0,.21-.13l.27-.24c.15-.21.11-.24-.1-.07C170.4,352.59,170.28,352.74,170.45,352.71Zm0-14.58a30,30,0,0,0,7.78-11.88c0-.37,0-.51,0-.41s-.39.67-1,1.72a56.22,56.22,0,0,1-3.44,5.16,48.36,48.36,0,0,1-4.29,5,4.94,4.94,0,0,0-1.17,1.32c-.1.27,0,.37.29.32A3.59,3.59,0,0,0,170.46,338.13Zm.81,16.43c.22-.16.44-.34.68-.54a3.56,3.56,0,0,0,.57-.61l.37-.44-.82.75C171.79,354,171.52,354.27,171.27,354.56Zm2-2.58.57-.84a7.84,7.84,0,0,0-.94,1.09c-.36.5-.51.75-.45.73S172.82,352.61,173.25,352Zm-.31-14.79a35.49,35.49,0,0,0,3.95-5.13,19.43,19.43,0,0,0,2.43-5.46c-.3.67-.75,1.52-1.34,2.55s-1.27,2.11-2,3.23-1.56,2.23-2.39,3.31a19.78,19.78,0,0,1-2.41,2.67c-1,1.1-1.3,1.63-1.07,1.58S171.33,339,172.94,337.19Zm-2.78-2c.12,0,.21-.16.29-.42s.21-.33.2-.36-.06,0-.16.12a1.6,1.6,0,0,0-.25.37A.6.6,0,0,0,170.16,335.16Zm1.42-1.65.14-.21a.66.66,0,0,1,.16-.17.51.51,0,0,0,.13-.25l.34-.62c-.1.14-.29.41-.58.8S171.42,333.6,171.58,333.51Zm.16-2.51A28.56,28.56,0,0,0,174,328a13.31,13.31,0,0,0,1.65-3.3c-.41.75-.82,1.46-1.24,2.12l-1.68,2.67c-.24.35-.43.65-.56.89s-.26.43-.35.57l-.36.53Zm.85,2.5c.32-.55.72-1.18,1.19-1.89l1.46-2.16c.5-.74.95-1.47,1.36-2.19a13.74,13.74,0,0,0,.92-1.87c-.31.61-.69,1.29-1.16,2.06s-1,1.51-1.48,2.26-1,1.46-1.46,2.16a12.62,12.62,0,0,0-1,1.94c-.11.33-.09.37.07.13S172.66,333.54,172.59,333.5Zm-.05-1.19.14-.21a.61.61,0,0,1,.16-.16.56.56,0,0,0,.13-.26l.34-.62c-.1.15-.29.41-.58.8S172.38,332.41,172.54,332.31Z"/><path class="cls-2" d="M175.39,363.48a2.63,2.63,0,0,0,0-.83.79.79,0,0,0-.16-.38,1.93,1.93,0,0,0-.37-.25,4.39,4.39,0,0,1-.7-.5c-.67-.66-.82-1.75-.45-3.26a31.31,31.31,0,0,1,1.89-5.18c.87-1.94,1.88-4,3-6.18s2.12-4.26,3-6.26a4.61,4.61,0,0,0,.75-1.57,10.31,10.31,0,0,0,.14-1.17,4,4,0,0,1,.2-1,2.35,2.35,0,0,1,.91-1c.94-1.47,1.95-3.25,3-5.36s2.24-4.33,3.47-6.68,2.45-4.74,3.69-7.18,2.49-4.71,3.76-6.83a59.58,59.58,0,0,1,3.74-5.54,12.64,12.64,0,0,1,3.56-3.35c.76.1,1.11.18,1.06.25s0,.1.11.08c.21-.17.32-.14.33.07s.11.3.28.26.27,0,.31.17.11.24.2.1.22-.06.37.25.25.4.28.27.18-.19.25-.14a.54.54,0,0,1,.19.24,3,3,0,0,0,.21.37c.08.13.16.2.22.18a.88.88,0,0,1,.56.54.82.82,0,0,0,.56.53c.29-.06.5.19.6.75a8.08,8.08,0,0,0,.34,1.27c0-.19.05-.46.08-.8a3.4,3.4,0,0,1,.09-.7,9.49,9.49,0,0,1,1.81,4.14,18.58,18.58,0,0,1,.12,4.38c-.13,1.55-.34,3.19-.64,4.93a41.28,41.28,0,0,0-.57,5.84c-.07.57-.22,1.77-.44,3.62s-.47,4-.74,6.33-.55,4.86-.84,7.45-.57,4.94-.84,7-.51,3.79-.76,5.06-.42,1.76-.53,1.48c-.56.59-.88.76-1,.5a1,1,0,0,1,.08-.79c-.26.23-.41.17-.45-.19a6.6,6.6,0,0,1,0-1.33,14.32,14.32,0,0,1,.22-1.47c.1-.44.12-.66.06-.65l0,.2-.18.49a9.34,9.34,0,0,1-.68,1.46q-.45.78-.66.63a6.48,6.48,0,0,1,0-1.1l.09-.94c0-.31.06-.56.08-.75s-.13-.21-.3-.12-.25.13-.22.27a.33.33,0,0,1-.12.35c-.31-.06-.4-.22-.27-.46s.11-.4-.09-.48-.3-.2-.23,0,.05.34-.06.42a2.52,2.52,0,0,0-.26.74c-.09.35-.24.27-.46-.23-.14-.71-.23-.92-.26-.64a1,1,0,0,1-.47.69c-.11,0-.24-.08-.37-.3a.64.64,0,0,1-.08-.62c0-.12-.11-.1-.27.05-.58.11-.94-.32-1.07-1.31a17.18,17.18,0,0,1-.07-3.42c.08-1.3.21-2.59.39-3.88a13.26,13.26,0,0,0,.18-2.83c-.68.25-1.53.52-2.54.81l-3.18.89c-1.1.31-2.19.59-3.28.83s-2.06.44-2.95.62q-1.26,2.44-3.11,5.46t-3.55,6q-1.71,3-3,5.67a13.8,13.8,0,0,0-1.5,4.56,1.61,1.61,0,0,1-.37.94,1.36,1.36,0,0,1-.81.57.43.43,0,0,1-.51-.27.76.76,0,0,1-.13-.71c.06-.31.05-.49,0-.54a.33.33,0,0,0-.24-.05.8.8,0,0,1-.27,0C175.44,364,175.39,363.79,175.39,363.48Zm2.78-4.57.14-.21a1.39,1.39,0,0,0-.46.45C177.9,359.39,178,359.31,178.17,358.91Zm.36-1c-.2.53-.22.63,0,.28l1.27-2.44a72.1,72.1,0,0,1,4-7.33,53.69,53.69,0,0,0,3.2-5.71,10.31,10.31,0,0,0-2.06,2.83c-.84,1.48-1.7,3.06-2.56,4.76s-1.64,3.28-2.33,4.76A26.87,26.87,0,0,1,178.53,357.92Zm.62-3.42c.14-.21.18-.29.13-.25a1.18,1.18,0,0,0-.19.22l-.17.26c0,.07,0,.1,0,.09S179.12,354.69,179.15,354.5Zm6.67-12.85c-.69,1.18-1.28,2.22-1.77,3.14s-1,1.91-1.58,3-1.07,2-1.54,3-1,2-1.53,3.18l.28-.42A4.46,4.46,0,0,0,180,353c.12-.2.26-.48.44-.82a12.19,12.19,0,0,1,1.09-2.18c.62-1.07,1.27-2.19,2-3.36s1.29-2.25,1.8-3.24S186,341.81,185.82,341.65Zm-.92,0c.08-.2.11-.28.09-.25l-.14.21a1.94,1.94,0,0,0-.17.31c0,.1,0,.14,0,.13l.08-.1A.53.53,0,0,0,184.9,341.65Zm8-20.08c0,.07-.43.79-1.14,2.15l-2.35,4.44q-1.27,2.4-2.26,4.43a21,21,0,0,0-1,2.11q0,.18.21-.09c.12-.17.38-.64.79-1.39.53-1,1.14-2.22,1.82-3.61l1.9-3.9,1.47-3C192.79,321.87,193,321.5,192.92,321.57Zm-4.13,12.26c.09.17.38-.26.85-1.27s1.06-2.12,1.74-3.36c.73-1.55,1.31-2.71,1.74-3.5s.82-1.52,1.18-2.2c-.14.21-.47.81-1,1.8s-1.07,2-1.68,3.16l-1.71,3.22C189.4,332.7,189,333.42,188.79,333.83Zm2,7.58,1-.18A1.41,1.41,0,0,0,190.81,341.41Zm13.05-32.88c0-.18-.43.36-1.2,1.61s-1.7,2.82-2.8,4.72-2.27,3.95-3.52,6.18-2.36,4.3-3.33,6.2-1.71,3.44-2.21,4.64-.59,1.71-.26,1.52.65-1,1.39-2.29,1.59-2.74,2.57-4.49l3.12-5.6c1.11-2,2.13-3.85,3-5.59s1.68-3.24,2.29-4.52A9.06,9.06,0,0,0,203.86,308.53Zm-9.37,19.7a5.34,5.34,0,0,0-.68,1c-.3.52-.59,1-.88,1.6a12.06,12.06,0,0,0-.68,1.46c-.16.43-.18.63-.07.61a7.61,7.61,0,0,0,.93-.92c.21-.47.6-1.23,1.16-2.28s1.18-2.24,1.88-3.53,1.45-2.68,2.26-4.16,1.57-2.85,2.27-4.15,1.31-2.46,1.84-3.48.89-1.73,1-2.13a19.86,19.86,0,0,0-1.3,2q-1.16,1.88-2.52,4.25c-.92,1.58-1.78,3.13-2.59,4.63s-1.34,2.52-1.6,3.06c0-.06-.08,0-.2.17s-.24.39-.38.63a3.19,3.19,0,0,0-.29.65c-.05.19-.05.26,0,.19s.12-.16.08-.07A2.57,2.57,0,0,1,194.49,328.23Zm.27,12.24c-.12,0-.12,0,0,0a1.14,1.14,0,0,0,.37,0,1.5,1.5,0,0,0,.34-.11c.11-.05.11-.07,0,0A.71.71,0,0,0,194.76,340.47Zm6.17-9.27c.4.16.67.13.8-.11A2.84,2.84,0,0,0,202,330a16.54,16.54,0,0,0,.09-1.9,18.58,18.58,0,0,1,.21-2.47c.21-2.06.36-3.6.43-4.62s.17-2,.28-3c-.33.5-.89,1.41-1.66,2.75s-1.62,2.79-2.51,4.34-1.71,3-2.46,4.33-1.25,2.28-1.51,2.82c.35-.07.85-.2,1.48-.38s1.28-.34,1.93-.47,1.23-.22,1.73-.29S200.84,331,200.93,331.2Zm-7.37-7.74c.08-.2.11-.3.08-.29s-.08.06-.15.17a1.87,1.87,0,0,0-.17.3c0,.1,0,.15,0,.14Zm.39-.81.2-.4a1.51,1.51,0,0,0-.42.44.65.65,0,0,0-.08.29Q193.74,323,194,322.65Zm3.25,17.16q-.25.13.15.06c.26-.05.33-.1.2-.13S197.36,339.72,197.2,339.81Zm-3.33-19,.18-.26-.14.21a1.6,1.6,0,0,1-.22.27c-.08.08-.09.11,0,.1Zm4.3-8.08a10.65,10.65,0,0,0-1,1.57c-.45.82-.91,1.69-1.37,2.6s-1,2.09-1.75,3.51a6,6,0,0,0,.34-.62,14.57,14.57,0,0,0,.94-1.74c.17-.4.4-.87.69-1.42s.59-1.07.88-1.59.58-1,.83-1.4A2.63,2.63,0,0,0,198.17,312.75Zm-2.68,6.94c.12-.32.18-.52.2-.59s0,0-.1.21-.23.38-.41.72-.35.68-.53,1a3.61,3.61,0,0,1-.25.6c-.05.07,0,0,.07-.11a8.54,8.54,0,0,0,.48-.83C195.13,320.37,195.31,320,195.49,319.69Zm-.5,3.13c.09-.2.11-.3.08-.3s-.08.07-.15.17a1.94,1.94,0,0,0-.17.31c0,.1,0,.14,0,.13l.07-.1C194.83,322.91,194.87,322.84,195,322.82Zm.54-1c.14-.21.19-.32.16-.35s-.09,0-.16.13-.16.22-.25.36-.14.25-.13.3S195.34,322.08,195.53,321.79Zm2.14-4.08c.53-1,.92-1.7,1.16-2.06a2,2,0,0,1,.25-.6c-.47.77-.86,1.44-1.17,2s-.64,1.18-1,1.79-.62,1.16-.83,1.63a1.25,1.25,0,0,0-.17.31.62.62,0,0,1-.1.2.26.26,0,0,0-.05.2c.19-.29.37-.6.55-.94s.38-.71.61-1.12S197.41,318.25,197.67,317.71Zm-1.31.35c.08-.2.11-.3.08-.29s-.08.06-.15.16a1.94,1.94,0,0,0-.17.31c0,.1,0,.14,0,.13Zm4.8-.29q2.9-5,2.28-4.3a9.12,9.12,0,0,0-.83,1.35c-.5.9-1.05,1.86-1.64,2.89s-1.34,2.4-2.23,4.1a3.73,3.73,0,0,0,.61-.9Zm-2-6.78a4.25,4.25,0,0,0-.48.6,1.71,1.71,0,0,0-.3.56q0,.09.45-.54Zm.09,3.75.29-.42c.14-.22.19-.33.16-.36s-.09,0-.16.13a2.87,2.87,0,0,0-.21.36A.6.6,0,0,0,199.29,314.74Zm7.3,34.24c.07,0,.12-.14.16-.58,0-.19,0-.4.06-.65s-.16.06-.23.5S206.52,348.94,206.59,349Zm4.13-42a20.8,20.8,0,0,0-.22,2.19c-.06,1-.14,2-.25,3.17s-.22,2.35-.31,3.59-.23,2.39-.38,3.46q-.13,1.23-.42,3.75t-.6,5.67q-.3,3.12-.62,6.44c-.22,2.22-.41,4.22-.57,6s-.36,3.89-.58,6.25a10.84,10.84,0,0,0,.34-2.26q.25-2.25.85-7.69.38-4.65.9-8.06c.36-2.27.67-4.42.95-6.46s.52-4.09.73-6.15a62.6,62.6,0,0,0,.28-7A17.78,17.78,0,0,0,210.72,307ZM209,309.83c-.06.93-.19,2.25-.37,4s-.37,3.6-.55,5.65-.39,4.17-.6,6.35-.41,4.19-.57,6-.31,3.4-.42,4.71-.17,2.11-.17,2.42c.21-1.45.43-3.16.65-5.13s.48-4.14.75-6.52.54-4.16.72-5.73.34-2.91.46-4,.21-2.12.29-3,.13-1.7.15-2.5c.09-1.43.13-2.55.13-3.38s0-1.23-.1-1.21A6.55,6.55,0,0,0,209,309.83Zm-3.94,8c.18-1.87.28-3,.28-3.26s-.05-.39-.14-.25-.09.66-.18,1.41-.19,1.56-.26,2.43-.14,2-.18,3.34c.06,0,.11-.3.15-.86S204.86,319.16,205,317.84Zm2,3.28c-.11-.23-.17-.18-.2.13a2.47,2.47,0,0,0,0,.55c.14.1.18,0,.14-.21S207,321.3,207,321.12Zm.45-4.77c.12-1.24.23-2.29.31-3.13s.13-1.51.16-2a11.49,11.49,0,0,1,.08-1.48c-.29,2-.48,3.65-.6,4.93s-.23,2.52-.33,3.73-.15,2-.14,2.36a6.92,6.92,0,0,0,.2-1.32C207.26,318.63,207.37,317.6,207.49,316.35Zm-1.43-10.63c0-.19,0-.28-.05-.27s-.09.07-.1.16a1.69,1.69,0,0,0,0,.33c0,.12,0,.18.08.17Zm4.78.54c0-.24-.12-.25-.23-.05s-.08.29.09.26S210.87,306.37,210.84,306.26Z"/><path class="cls-2" d="M213.87,341.61a33.16,33.16,0,0,1,.21-4.81c.2-2.24.52-4.79.94-7.65s.93-5.89,1.54-9.06,1.24-6.18,1.91-9,1.37-5.36,2.11-7.56a15.78,15.78,0,0,1,2.13-4.58,2.16,2.16,0,0,1,.81-.34c.26-.05.41,0,.45.19a.23.23,0,0,0,.31.21q.38-.44.3.12l0,.27a.89.89,0,0,1,.4-.31c.17-.06.27,0,.29.08s-.09.15.07.36.08.24.13.2a.63.63,0,0,0,.15-.17.25.25,0,0,1,.16-.12c.06,0,.08.08,0,.27-.09.75-.14,1.16-.13,1.21s.09,0,.24-.23.2-.37.21-.31a.87.87,0,0,1,0,.23.44.44,0,0,0,0,.23c0,.06.08,0,.23-.23l.39-.35c-.67,2.57-1.42,5.61-2.27,9.1s-1.7,7.15-2.55,10.95-1.61,7.57-2.29,11.31-1.17,7.17-1.49,10.28q.17-1,.75-3.72c.39-1.78.85-3.88,1.39-6.27s1.15-5,1.84-7.79,1.32-5.54,1.92-8.26,1.14-5.26,1.63-7.65.85-4.36,1.09-5.94c-.43,0-.45-.19,0-.45a2.53,2.53,0,0,0,.75-.61c.11-.08.18,0,.22.19l.13.66.12.62c0,.18.09.17.18,0s.16-.2.19-.18,0,.14-.07.34,0,.4.05.26a1.87,1.87,0,0,0,.22-.77c.06-.32.17-.37.33-.16.26.38.46.69.6.94a3.07,3.07,0,0,1,.31.9,4.67,4.67,0,0,1,0,1.32c-.05.53-.17,1.27-.35,2.23a19.6,19.6,0,0,1-.58,3.14c-.4,1.72-.88,3.79-1.45,6.19s-1.18,5-1.81,7.69-1.23,5.23-1.79,7.54-1.16,5-1.8,8a1.72,1.72,0,0,0,.52-.19,6.7,6.7,0,0,0,1.2-.42q3.06-1.23,6.84-2.52a57.45,57.45,0,0,1,7.67-2,37.36,37.36,0,0,1,6.15-.69,15.92,15.92,0,0,1,5.42.74,13,13,0,0,0,0,2.24,21,21,0,0,1,0,2.37,11.52,11.52,0,0,1-.34,2.27,3.43,3.43,0,0,1-1.16,1.83c-2.31.39-5,.92-8.07,1.61s-6.13,1.41-9.17,2.15-5.86,1.45-8.48,2.11-4.64,1.13-6,1.4c-.09-.1,0-.23.29-.37s.24-.19-.11-.12c-.22-.45.22-.87,1.31-1.26l4.37-1.59q2-.66,4.72-1.42c1.82-.5,3.7-1,5.62-1.5s3.8-1,5.64-1.42,3.4-.8,4.7-1.05l2-.39q.23,0-.78,0c-1.25.18-3,.52-5.12,1s-4.45,1-6.84,1.65-4.7,1.25-7,1.9a50.79,50.79,0,0,0-5.42,1.83c-.74.27-1.24.44-1.5.52s-.38.11-.36.07a2.71,2.71,0,0,1,.41-.26,5.86,5.86,0,0,0,.69-.45c0-.06-.16,0-.44.08s-.59.25-.93.41-.67.3-1,.43a1.4,1.4,0,0,1-.7.14,5.83,5.83,0,0,1,.86-.77c.37-.28.73-.57,1.07-.85a9,9,0,0,0,.78-.7q.27-.29.06-.42c0-.12-.12-.13-.29,0l-.62.35-.7.41a2,2,0,0,1-.5.24c-.24,0-.12-.16.34-.62.21-.16.3-.26.26-.28s-.12,0-.25.1l-.45.27a.83.83,0,0,0-.32.24c-.22.17-.36.22-.43.18a2.37,2.37,0,0,1-.37-.48c-.25-.38-.37-.6-.35-.67s.16-.18.43-.36.39-.19.14-.21-.3-.08-.31,0a.5.5,0,0,1-.27.28q-.3-.12-.33-.3A.75.75,0,0,1,215,345l.18-.49a.57.57,0,0,0-.05-.49c-.06-.3-.13-.42-.21-.38a.82.82,0,0,1-.3.11c-.18,0-.33-.06-.47-.28A5.6,5.6,0,0,1,213.87,341.61Zm11,3.18c1.48-.53,3.31-1.09,5.49-1.66s4.41-1.13,6.69-1.67,4.5-1,6.64-1.47,3.9-.77,5.27-1a13,13,0,0,0-3.43.07c-1.4.18-2.9.43-4.49.73-.41.08-1.18.27-2.32.55l-3.9.94c-1.46.34-3,.73-4.58,1.17l-4.44,1.22c-1.36.39-2.5.75-3.41,1.08a4.68,4.68,0,0,0-1.52.71c-.27.48-.14.67.39.56a8.24,8.24,0,0,0,1.76-.61A8.9,8.9,0,0,1,224.85,344.79Zm-7.71-17.48c0,.18.1,0,.2-.4s.31-1.53.65-3.25.63-3.51.94-5,.61-2.93.88-4.2.53-2.46.78-3.55.48-2.14.71-3.16a11.75,11.75,0,0,0-.66,2c-.26,1-.54,2.15-.84,3.46s-.6,2.72-.92,4.21-.61,2.92-.87,4.25-.48,2.51-.65,3.52A11.57,11.57,0,0,0,217.14,327.31Zm2.09,1.8c0,.12.08,0,.17-.31s.25-1.12.5-2.39c.61-3.11,1.3-6.36,2-9.75s1.41-6.29,2-8.73a13.25,13.25,0,0,0-1,3.27c-.48,2-1,4.15-1.52,6.58s-1,4.73-1.45,6.93A39.43,39.43,0,0,0,219.23,329.11Zm3-18.38c.08.11.16,0,.25-.37s.09-.52,0-.51-.17,0-.25.37S222.2,310.74,222.26,310.73Zm14.45-15.28a1.82,1.82,0,0,1,1.7,0c.7.29,1,.66,1,1.09,0,.25.11.32.36.2s.28.1.08.63a38,38,0,0,1-1.24,5q-1,3.56-2.23,7.59c-.8,2.69-1.52,5.23-2.19,7.62a41.35,41.35,0,0,0-1.18,5c-.09.51-.16.93-.21,1.28a4.17,4.17,0,0,1-.21.82,6.58,6.58,0,0,0-.15.67,6.2,6.2,0,0,0,.53-1.53l1-3.45q.58-2,1.11-3.93a26.3,26.3,0,0,1,.91-2.88q1.19-3.81,1.89-6.1c.46-1.52.86-2.81,1.17-3.85a24.68,24.68,0,0,0,.7-2.79c.14-.82.29-1.8.44-2.93-.21-.45-.15-.6.19-.45a1.22,1.22,0,0,1,.67.65c.05.24.12.28.21.14s.28.08.51.5a4.37,4.37,0,0,1,.49,1.32,6.63,6.63,0,0,1,0,2,32.69,32.69,0,0,1-.71,3.44q-.54,2.16-1.51,5.43c-.65,2.17-1.48,4.86-2.51,8.05a19,19,0,0,1-1.32,3.83c-.51,1-.52,1.48,0,1.39a3.57,3.57,0,0,0,1.17-.6c.62-.24,1.4-.5,2.32-.77s1.89-.5,2.89-.7a21.73,21.73,0,0,1,2.69-.34,8,8,0,0,1,2.37.18,3.06,3.06,0,0,1,1.62,1,3.12,3.12,0,0,1,.58,2c-.12,0-.16.12-.13.3.19.33.13.51-.17.54a.35.35,0,0,0-.36.48.84.84,0,0,0,.74.5c.37.05.32.24-.17.58-.22.11-.27.18-.14.21a.35.35,0,0,0,.42,0,.22.22,0,0,1,.32,0,.55.55,0,0,1-.26.33c-.13.08-.15.24,0,.46-.05,1-.38,1.54-1,1.66l-3.18.62a30.68,30.68,0,0,0-3.74.58c-1.29.29-2.54.61-3.76,1s-2.34.69-3.38,1-1.95.52-2.72.67a.26.26,0,0,1,.11-.39q.25-.13.09-.48a.18.18,0,0,1-.08-.21c0-.09,0-.15.1-.16.15-.21.18-.34.11-.38a.66.66,0,0,0-.33-.08.57.57,0,0,1-.4-.15.78.78,0,0,1-.16-.61,2.63,2.63,0,0,0-.18-.65.19.19,0,0,0-.24-.09,3.09,3.09,0,0,1-1.22-.36,5,5,0,0,1-1.28-.72,9,9,0,0,1-.24-4,64.87,64.87,0,0,1,1-6.47c.48-2.42,1.07-4.93,1.79-7.55s1.41-5.05,2.1-7.33,1.34-4.22,1.94-5.83A13.61,13.61,0,0,1,236.71,295.45Zm-12.26,7.7c.15-.51.19-.77.13-.76s-.09.17-.23.69-.28.8-.21.82S224.31,303.67,224.45,303.15Zm3.94.43-.21-.14c-.19,0-.21,0-.06.19S228.36,303.77,228.39,303.58Zm6.93,27.63c0-.13.29-.29.77-.48l1.5-.56,1.28-.48c.34-.13.4-.17.16-.12s-.5.11-1,.23-1,.26-1.48.42a13.15,13.15,0,0,0-1.49.57,3.13,3.13,0,0,0-1.09.76.15.15,0,0,0,.21.14A7.41,7.41,0,0,0,235.32,331.21Zm1.47-1.85a13.71,13.71,0,0,1,2.6-1c1-.29,2-.56,3.09-.83s2.08-.49,3.08-.69l2.56-.5a8.73,8.73,0,0,0-2.49-.06,31.55,31.55,0,0,0-3.57.51,30.07,30.07,0,0,0-4.87,1.36,5.76,5.76,0,0,0-3,2c0,.31.27.3.82,0A8.09,8.09,0,0,1,236.79,329.36Zm-1.09,1.95-.35.07c-.11.08,0,.12.2.1S235.84,331.41,235.7,331.31Zm3.47-1a13.22,13.22,0,0,1,2.21-.66c1-.21,2-.41,3-.57s1.92-.33,2.75-.49a8.36,8.36,0,0,0,1.57-.4,4.09,4.09,0,0,0-1.41.05c-.69.1-1.53.25-2.53.44-1.53.3-3.11.66-4.75,1.06a13.22,13.22,0,0,0-3.51,1.28c-.39.2-.45.26-.19.18Zm-2.39-2.37-.26.05c-.17.09-.13.13.11.11S236.92,328,236.78,327.9Zm1.78-2.64-.44.08c-.16.16-.09.2.21.15S238.7,325.35,238.56,325.26Z"/><path class="cls-2" d="M250.47,351.18a52.4,52.4,0,0,1,.37-7.54q.49-4.54,1.49-10.06T254.67,322c.89-4,1.84-8,2.82-11.88s2-7.61,3-11.17,2-6.71,2.84-9.45a1.37,1.37,0,0,1,.61-.85,2.82,2.82,0,0,1,1-.37,3.36,3.36,0,0,1,1.86.14c.59.22.9.54.92,1,.08.11.18.08.3-.1s.18-.23.19-.17.12.51-.07,1.25-.54,2-1,3.91q-.47,1.38-1.49,5.29c-.69,2.61-1.46,5.64-2.31,9.11s-1.76,7.17-2.7,11.12-1.83,7.73-2.65,11.37-1.56,6.92-2.21,9.83-1.1,5.06-1.32,6.45c-.25,1.21-.45,2.25-.58,3.14s-.42,1.3-.85,1.26c-.24-.26-.32-.26-.23,0s0,.37-.08.34-.17.12-.17.3-.05.26-.18.22-.13-.16-.19-.51-.11-.41-.13-.16,0,.34-.17.31a1.16,1.16,0,0,1-.51-.27,5.39,5.39,0,0,1-.56-.53A1.8,1.8,0,0,1,250.47,351.18Zm3,2.81q1-5.61,2.87-13.31t4-15.94q2.1-8.25,4.17-16.26t3.6-14.27a21.08,21.08,0,0,0,.6-2.32c.07-.44.14-.94.21-1.51-.14-.4-.05-.59.25-.59s.48.27.53.81l.09.49s0,0,0-.1,0-.2,0-.33,0-.19.1-.2.21,0,.12.16.06,0,.16-.12.09-.17.16-.12a7.37,7.37,0,0,1,.67.6,5.58,5.58,0,0,1,1,3.15,12.87,12.87,0,0,1-.66,3.7q-.65,2.1-1.56,4.93c-.61,1.9-1.21,4.15-1.8,6.77q-.74,2.81-1.49,5.56c-.49,1.84-1,3.55-1.38,5.13s-.8,2.95-1.13,4.12-.56,2-.7,2.52a19.2,19.2,0,0,0-1,3.21q-.58,2.42-1.31,5.53t-1.58,6.49q-.86,3.39-1.67,6.24c-.55,1.91-1.07,3.5-1.56,4.75s-.94,1.93-1.35,2c-.12,0-.25,0-.4-.2a.81.81,0,0,1,0-1,4.68,4.68,0,0,0,.45-1q1.55-6.72,3.67-15.06T262.9,321Q265,312.5,267,304.74T270,291.45a20.63,20.63,0,0,0-1.22,4.13q-.57,2.73-2,7.68c-.84,2.91-1.49,5.29-2,7.12s-.7,2.78-.69,2.84c.17.21.18.27,0,.17s-.16.22-.3.61-.26.83-.38,1.31-.26,1.11-.42,1.87l.14-.21.22-.77a4.71,4.71,0,0,1,.34-1.08,9.91,9.91,0,0,1-.22,1.24,1.58,1.58,0,0,1-.37.94c-.16.12-.19.24-.11.34s.13.22-.06.19-.14,0,0,.19.11.29-.09.2-.15,0,0,.14.12.24,0,.14-.23,0-.1.21.13.28,0,.18-.23,0-.1.21.13.28,0,.18-.16,0-.06.15.08.25-.06.15-.15,0-.06.19.08.26,0,.29-.2.1-.06.19,0,.16-.11.34-.16.3,0,.33a11.22,11.22,0,0,0-.92,2.84q-.56,2.31-1.31,5.52c-.5,2.15-1,4.47-1.58,7s-1.11,4.91-1.66,7.24-1.12,4.45-1.7,6.34A24.9,24.9,0,0,1,253.5,354Zm-.24-15.82c.08.11.15.05.2-.18a1.09,1.09,0,0,0,0-.42c-.08-.11-.14-.05-.19.18A1.5,1.5,0,0,0,253.26,338.17Zm1.67-7.48c.23-1,.54-2.39.94-4.12s.8-3.52,1.2-5.37.78-3.59,1.14-5.22.61-2.82.77-3.59a21.73,21.73,0,0,0-.74,2.35c-.36,1.29-.73,2.84-1.11,4.66s-.8,3.75-1.25,5.79-.86,3.94-1.19,5.69-.63,3.24-.87,4.48a14.59,14.59,0,0,0-.34,2c.07-.25.16-.61.25-1.05s.24-1.12.44-2S254.61,332.22,254.93,330.69Zm5.31-17c.07.05.19-.21.36-.76s.22-.85.15-.9-.19.21-.36.76S260.17,313.66,260.24,313.71Zm.46-1.92c.06,0,.18-.21.35-.76s.22-.85.15-.9-.19.21-.36.76S260.63,311.74,260.7,311.79Zm1.4-5.5c-.19.58-.34,1.09-.44,1.5s-.19.83-.26,1.25-.13.68-.16.81q0-.19.21-.78c.11-.39.21-.8.31-1.25s.19-.83.28-1.15S262.15,306.22,262.1,306.29Zm.51,3.11c0-.12-.1.08-.25.59a6.18,6.18,0,0,0-.23.69c.14.1.23-.1.25-.6A6,6,0,0,0,262.61,309.4Zm0-5c0-.06,0,0-.08.06a2.27,2.27,0,0,0-.11.34,1,1,0,0,0-.18.5c.07,0,.13-.09.19-.41A1,1,0,0,0,262.64,304.35Zm7.7-10.39a3.5,3.5,0,0,0,.12-.58,1.68,1.68,0,0,1,.06-.37.7.7,0,0,0,0-.29,11.47,11.47,0,0,0-.9,2.93c-.46,1.74-.9,3.37-1.34,4.89s-.79,2.84-1.06,4-.58,2.36-.93,3.72q.65-1.87,1.05-3.33c.27-1,.56-2.05.88-3.24s.63-2.32.95-3.39.57-2,.79-2.77A9.26,9.26,0,0,0,270.34,294Z"/><path class="cls-2" d="M282.58,298.91c-.69.2-1.51.47-2.46.8l-2.91,1c-1,.35-1.93.68-2.79,1s-1.54.59-2,.81a10.55,10.55,0,0,0-1.44.6,5.57,5.57,0,0,1-1.37.49.71.71,0,0,1-.95-.64c.06-.31.5-.69,1.33-1.13s1.86-.91,3.07-1.42,2.5-1,3.83-1.52,2.55-1,3.63-1.4a22,22,0,0,0,2.41-1.06c.52-.29.59-.48.2-.59-1.26.43-2.37.83-3.34,1.2q-1.2.42-2.22.84c-.68.29-1,.46-1,.52s0,.09-.42.17-.46,0-.46.05.05,0,.11.07a.14.14,0,0,1,.11.11c0,.06-.1.08-.35.07s-.55,0-.53.1a6.77,6.77,0,0,0-1.22.56c-.64.34-1.32.67-2,1s-1.41.61-2,.85-1,.31-1.06.21a8.68,8.68,0,0,1,2.45-1.58c1.22-.6,2.57-1.22,4-1.84s2.94-1.21,4.42-1.78l3.67-1.4c.47-.09.76-.27.86-.53a5,5,0,0,0,.24-.87c0-.12-.53,0-1.52.39s-2.18.85-3.53,1.42-2.74,1.17-4.14,1.81-2.49,1.19-3.26,1.64a7.06,7.06,0,0,1-1.35.81,4.65,4.65,0,0,1-.74.24q-.43.09-.36-.21c.05-.19-.13-.12-.56.2-.09.15-.17.07-.22-.23a2.67,2.67,0,0,1-.29-2.42,5.93,5.93,0,0,1,1.83-1.91,29.19,29.19,0,0,1,4.47-2.7c1.92-1,4-2,6.31-2.93s4.64-1.83,7.05-2.61a60.57,60.57,0,0,1,6.81-1.78,33.83,33.83,0,0,1,4-.54,9.4,9.4,0,0,1,3.13.26,3,3,0,0,1,1.43,1.7,2.48,2.48,0,0,1,.08,1.86c.11.22-.09.4-.58.53s-1.64.3-3.43.52a7.08,7.08,0,0,0-1.52.21l-3,.58c-1.12.22-2.27.46-3.44.72a25.88,25.88,0,0,0-2.87.78,2.77,2.77,0,0,0-1.29.71c-.11.21.3.37,1.25.49a33.3,33.3,0,0,1,3.29-1q2.37-.6,5.79-1.35l3.67-.71a12.42,12.42,0,0,1,1.83-.27c.36,0,.52,0,.48.14a1.87,1.87,0,0,1-.54.51c0,.13-.42.3-1.14.5s-1.65.43-2.76.67l-3.52.78-3.38.75c-1,.23-1.86.42-2.5.58s-.86.27-.67.36c1.07-.21,2.27-.46,3.62-.75s2.68-.6,4-.92,2.57-.63,3.76-1l3-.81c.15-.21.22-.24.22-.09a3,3,0,0,1-.26.83c.07.66-.32,1.23-1.18,1.7a16.05,16.05,0,0,1-3.19,1.26q-1.91.56-4,1a32.81,32.81,0,0,0-3.54.87,51.44,51.44,0,0,1-1.11,7.28q-1,4.68-2.29,9.89c-.89,3.47-1.8,6.84-2.76,10.11s-1.75,5.95-2.38,8a10.76,10.76,0,0,0-.42,1.36c-.24.85-.5,1.84-.8,3s-.63,2.39-1,3.68-.76,2.48-1.11,3.52a14.41,14.41,0,0,1-1,2.44c-.31.58-.56.71-.75.37.14-.21.12-.33-.07-.35s-.21-.29-.21-.6a5.76,5.76,0,0,1,.09-1,6.72,6.72,0,0,1,.38-1.31c.12-.33.5-1.72,1.12-4.16s1.45-5.57,2.49-9.38q2.2-8.4,3.7-13.74c1-3.55,1.79-6.47,2.42-8.77s1.07-4.15,1.34-5.57a20.09,20.09,0,0,0,.39-4.16c-.18.65-.45,1.69-.81,3.14s-.75,3-1.16,4.67-.8,3.33-1.18,5-.73,3.1-1,4.32c0-.05-.11.2-.31.75s-.4,1.2-.59,1.91-.37,1.35-.5,1.93-.18.83-.13.75.12-.09.07.13-.11.28-.19.17-.13,0-.18.27,0,.26.07.12.1,0,.12.16-.17.22-.23.23-.14,0,0,.18.13.29,0,.19-.23,0-.11.16.13.24,0,.14-.15,0,0,.18.1.29-.1.21-.15,0,0,.18.1.29-.1.2-.15,0,0,.15.12.23,0,.14-.23,0-.09.2.13.28,0,.18-.24,0-.1.21.13.28,0,.18-.24,0-.11.16.12.24,0,.14-.12,0-.14,0,0,.11.09.22c-.17.7-.46,1.75-.86,3.14s-.83,2.9-1.27,4.51-.9,3.2-1.33,4.75-.76,2.87-1,3.95a35.26,35.26,0,0,0-1,3.77,1.31,1.31,0,0,1-.91,1.18,17.83,17.83,0,0,1,.58-3.6q.6-2.58,1.55-6.17t2.15-7.79q1.2-4.23,2.44-8.45t2.31-8.2l1.85-7c.53-2,.89-3.6,1.09-4.8s.14-1.77-.15-1.71a1,1,0,0,0-.55.47,9.28,9.28,0,0,1-.28,1.16q-.3,1.06-.78,2.85c-.31,1.2-.69,2.58-1.11,4.16s-.87,3.27-1.31,5.07q-3.65,13.36-5.59,21.26a69.75,69.75,0,0,0-1.92,9c0,.42,0,.59-.18.49s-.13.09,0,.55c0,.12-.06.19-.23.23s-.22-.08-.22,0,.08.2.27.22,0,.13-.44.09l-.44.08a1.05,1.05,0,0,1,.13.21s-.11.06-.35.11c-.4.14-.6.07-.59-.21s-.06-.33-.22-.18q-.18.49-.54.06c-.24-.29-.31-.51-.21-.65a.23.23,0,0,0,.08-.29c-.06-.11-.12,0-.19.22-.72.08-1.05-.76-1-2.51a44.62,44.62,0,0,1,.91-6.87c.55-2.83,1.27-6,2.16-9.41s1.78-6.78,2.68-10,1.76-6.14,2.57-8.75S282.25,300,282.58,298.91Zm-7.3,34.15c.23-1,.53-2.31.9-3.88s.75-3.19,1.16-4.86l1.18-4.81c.37-1.54.67-2.82.9-3.85-.05.08-.2.53-.47,1.38s-.54,1.85-.83,3-.6,2.34-.92,3.53-.58,2.24-.77,3.13c-.18.64-.38,1.49-.61,2.54s-.43,2.08-.64,3.06-.42,2.18-.63,3.57c.05,0,.13-.23.24-.65S275.05,334.09,275.28,333.06Zm.93,5.23c.08.11.15,0,.19-.17a1.59,1.59,0,0,0,.06-.43c-.08-.1-.15,0-.2.18A1.78,1.78,0,0,0,276.21,338.29Zm4.18-20c.15-.21.16-.31,0-.29s-.14,0-.18.27S280.26,318.59,280.39,318.32Zm.24-.69c.14-.21.15-.33,0-.37s-.13.06-.17.31S280.48,317.84,280.63,317.63Zm.36-1.45c.14-.21.15-.3,0-.28s-.14,0-.17.27S280.86,316.46,281,316.18Zm-1.43-22.45-.45.08c-.16.1-.1.11.2.06S279.68,293.76,279.56,293.73Zm3.62,18.18q0,.09.3-.84c.18-.62.41-1.41.68-2.38s.57-2,.89-3.2.62-2.23.89-3.2l.68-2.42c.18-.64.24-.93.2-.86s-.11.22-.3.83-.41,1.43-.67,2.43-.56,2.06-.89,3.2-.63,2.2-.9,3.19-.49,1.81-.67,2.43S283.13,312,283.18,311.91Zm-1.5-19.06.18,0a.36.36,0,0,0-.42,0C281.3,292.9,281.38,292.91,281.68,292.85Zm.89,4.14.36-.07a1,1,0,0,0-.58.11C282.1,297.14,282.17,297.13,282.57,297Zm-.1-3.37-.44.08c-.23.11-.16.14.2.1S282.67,293.7,282.47,293.62Zm3-3.15a33,33,0,0,1,3.25-1.22c.87-.26,1.79-.55,2.77-.86a33,33,0,0,0-4.23,1.14q-2.28.77-4.47,1.74c-.79.34-1,.45-.49.33S283.78,291.1,285.43,290.47Zm-1.12,1.32-.35.07q-.24.13.15.06C284.38,291.87,284.44,291.83,284.31,291.79Zm.77-.33-.36.07c-.16.09-.1.11.2.05S285.26,291.49,285.08,291.46Zm1-.38-.26.05c-.16.15-.12.2.12.16S286.24,291.17,286.1,291.08Zm1.78.66,1.38-.45c-.3.06-.73.17-1.31.35s-1,.32-1.38.45-.47.18-.38.16S286.84,292.07,287.88,291.74Zm2,2.91a4,4,0,0,0,1.56-.26c.54-.2,1.3-.42,2.3-.68a19,19,0,0,1,1.92-.46l2.34-.46c.8-.15,1.54-.33,2.24-.52s1.24-.37,1.64-.51c.11-.08-.08-.09-.55,0s-1.12.17-1.91.33-1.65.33-2.55.54-1.74.42-2.5.62c-1.74.47-2.93.8-3.56,1S289.9,294.59,289.91,294.65Zm.22-3.62.35-.07a1.19,1.19,0,0,0-.58.07C289.64,291.11,289.71,291.11,290.13,291Z"/><path class="cls-2" d="M304.86,289a13.68,13.68,0,0,1,4.39-5.21,15.63,15.63,0,0,1,6.24-2.82,10.64,10.64,0,0,1,3.89-.06,7.27,7.27,0,0,1,3.38,1.59q2.33,1.65,3.63,2.64a11.36,11.36,0,0,1,2.08,2,7.45,7.45,0,0,1,1.21,2.24q.42,1.25,1.05,3.51a24.57,24.57,0,0,1,.12,7.44,48.87,48.87,0,0,1-2,9,66.63,66.63,0,0,1-3.71,9.25,47.47,47.47,0,0,1-5.05,8.22,30.31,30.31,0,0,1-6.1,6.09,13.19,13.19,0,0,1-6.71,2.73,6.65,6.65,0,0,1-2.11-1.38c-.6-.59-1.18-1.19-1.72-1.82a2.27,2.27,0,0,0-.83-.71c-.38-.2-.78-.4-1.22-.59a9.61,9.61,0,0,1-1.16-.6,2.05,2.05,0,0,1-.8-.8,23.77,23.77,0,0,1-2.77-10,43.94,43.94,0,0,1,.72-11,60,60,0,0,1,3.06-10.64A61.83,61.83,0,0,1,304.86,289ZM302,314.67a31.19,31.19,0,0,1,.83-4.65c.45-1.8,1-3.65,1.53-5.57s1.2-3.75,1.87-5.5,1.28-3.23,1.84-4.43c-.85.34-1.66,1.36-2.43,3a35.65,35.65,0,0,0-2,5.67,63.17,63.17,0,0,0-1.36,6.22c-.33,2.05-.54,3.67-.62,4.84a10.39,10.39,0,0,0,0,2.21A9.2,9.2,0,0,0,302,314.67Zm1.61-1.13a50.34,50.34,0,0,1,1.21-5.56q.75-2.72,1.5-5c.5-1.53,1-2.86,1.38-4s.73-2,.92-2.57a32.87,32.87,0,0,0-2.17,4.6,56.52,56.52,0,0,0-1.89,5.64,58.13,58.13,0,0,0-1.3,5.8,33.35,33.35,0,0,0-.52,5.1q0,1.45.09,1.17a12.11,12.11,0,0,0,.2-1.32c.08-.69.18-1.44.3-2.26A12.55,12.55,0,0,1,303.58,313.54Zm2.68,12.86a17.86,17.86,0,0,0,3.42-2.68,32.67,32.67,0,0,0,3.45-4,47,47,0,0,0,3.2-5,51,51,0,0,0,2.72-5.62c.33-.79.74-1.91,1.22-3.35s.93-3,1.34-4.66.76-3.36,1-5.06a20.76,20.76,0,0,0,.3-4.56,6.11,6.11,0,0,0-.88-3.12,2.18,2.18,0,0,0-2.45-.81,6.88,6.88,0,0,0-2.05.76,4.47,4.47,0,0,0-.7.41.39.39,0,0,0-.06.38,2.1,2.1,0,0,1-.3,1.53q-.47.74-1,.66a24.61,24.61,0,0,0-4.09,5.37,43.3,43.3,0,0,0-3.2,6.91,66.18,66.18,0,0,0-2.24,7.58,65.33,65.33,0,0,0-1.28,7.54,14.7,14.7,0,0,1-.09,2.13c-.1.93-.14,1.86-.15,2.78a13.22,13.22,0,0,0,.18,2.35c.13.64.43.92.9.83A2,2,0,0,0,306.26,326.4Zm5.56,2.68a28.7,28.7,0,0,0,4.14-4,49.83,49.83,0,0,0,4-5.26,53.53,53.53,0,0,0,3.52-6.19,49.74,49.74,0,0,0,2.69-6.67,36.41,36.41,0,0,0,1.51-6.66,24.6,24.6,0,0,0,0-6.24,44.25,44.25,0,0,1-1.7,9.64,66.31,66.31,0,0,1-3.74,10,55,55,0,0,1-5.23,8.95,29.11,29.11,0,0,1-6.16,6.47,7.35,7.35,0,0,0-1.08.85c-.12.15-.13.21,0,.18a4.53,4.53,0,0,0,1-.41A5.7,5.7,0,0,0,311.82,329.08Zm-4.63-27.62a10.82,10.82,0,0,1,.74-1.84c.35-.71.72-1.43,1.09-2.18l1.13-2.23a10.94,10.94,0,0,0,.77-1.9c-.11,0-.34.34-.68,1s-.72,1.35-1.13,2.19-.84,1.77-1.25,2.77-.77,1.89-1,2.67-.24.92-.17.82A10.69,10.69,0,0,0,307.19,301.46Zm6.59,28.71A32.69,32.69,0,0,0,317,327a44,44,0,0,0,3.17-4c1-1.42,1.93-2.86,2.78-4.34a43.15,43.15,0,0,0,2.08-4.12,2.84,2.84,0,0,0,.18-.5c0-.12.07-.25.11-.38a1.54,1.54,0,0,1,.12-.3l-1.15,2.06c-.8,1.56-1.59,3-2.37,4.31s-1.63,2.57-2.52,3.79a38.64,38.64,0,0,1-2.94,3.5c-1.07,1.13-2.27,2.31-3.62,3.55-.42.39-.51.53-.29.42A7.24,7.24,0,0,0,313.78,330.17Zm7-9.06a57.64,57.64,0,0,0,3.71-6.36,54.87,54.87,0,0,0,2.77-6.54,41.56,41.56,0,0,0,1.63-6.19,23.65,23.65,0,0,0,.42-5.4,7.55,7.55,0,0,0-.16-1.8,8.21,8.21,0,0,0-.17,2,37.45,37.45,0,0,1-1.12,7.46,54.94,54.94,0,0,1-2.37,7.15,58.05,58.05,0,0,1-3.2,6.63c-1.19,2.1-2.33,4.05-3.45,5.85a10.89,10.89,0,0,0,.84-1.12Zm-.86-8.63c0,.12.13,0,.32-.25l.13-.3-.16.12Zm.43-.64.14-.21a.75.75,0,0,0,.1-.2.75.75,0,0,1,.1-.2c.17-.4.21-.58.13-.53s-.19.23-.31.56S320.24,311.85,320.3,311.84Zm.86-1.72a1.66,1.66,0,0,0,.21-.55,1.49,1.49,0,0,1,.22-.54c.21-.47.26-.63.13-.49a4.43,4.43,0,0,0-.49,1C321,310.09,321,310.28,321.16,310.12Zm2.5-9.75c.1-.44.22-.94.36-1.49a10.67,10.67,0,0,0,.26-1.47c.05-.68.1-1.2.16-1.54a6.25,6.25,0,0,0,0-1.25c-.08.51-.17,1-.25,1.52s-.22,1.26-.39,2.27c-.41,2-.55,2.95-.44,2.93a.25.25,0,0,0,.06-.19c0-.13.07-.26.11-.39S323.63,300.5,323.66,300.37Zm2.68-1.34c.09-.76.18-1.49.26-2.21s.07-1.1,0-1.15a12.62,12.62,0,0,0-.34,2c-.09.81-.21,1.6-.37,2.36-.05.38-.11.71-.17,1s-.12.49-.16.62a2.43,2.43,0,0,1-.07.57q.09,0,.36-1C326,300.58,326.19,299.85,326.34,299Z"/></svg>