<svg id="Capa_1" data-name="Capa 1" xmlns="http://www.w3.org/2000/svg" viewBox="0 0 416.9 382.68"><defs><style>.cls-1{fill:#fff;}.cls-2{fill:#ffe255;}</style></defs><g id="Capa_1-2" data-name="Capa 1"><path class="cls-1" d="M30,109.51H53.26c1.76,0,3.54-.12,5.09,1,.36.25.66.73,1.2.45,5.67-3,11.74-.8,17.6-1.37,1.44-.14,3.5-.23,3.9,1.56s-1.49,2.5-2.91,3a2.48,2.48,0,0,0-2,2.78q.12,6.52,0,13c0,2.39,1,2.22,2.56,1.36s2.87-1.6,4.32-2.39a17.49,17.49,0,0,1,8.77-2.24c7.15.1,11.17,4,11.25,11.15q.15,12.15,0,24.32c0,2.45.29,4.34,2.86,5.36,1,.4,2.29,1.07,2.09,2.5-.17,1.16-1.3,1.68-2.31,1.94a32.73,32.73,0,0,1-16.62,0c-1-.26-2.1-.85-2.2-2.05s1-1.87,1.93-2.25c2.65-1,3.11-3,3-5.6-.17-6.93,0-13.87-.07-20.8,0-5.49-3-7.7-8.23-6.29-.79.21-1.57.47-2.37.68-5,1.27-5,1.27-5,6.66,0,6.7.06,13.39,0,20.09,0,2.31.29,4.13,2.72,5.1,1,.41,2.37,1.05,2.28,2.4-.1,1.52-1.59,2-2.81,2.29-5.43,1.06-10.94,1.47-16.27-.31-2.9-1-3-2.65-.33-4S65,164.43,65,161.61c-.12-14.58-.22-29.15.07-43.72.06-3.56-2.4-3.77-4.31-5-.49-.31-.82,0-1,.54-2.11,4.39-6.61,6.18-10,9.14-2,1.69-4,3-1,5.72a2.41,2.41,0,0,1,.19,3.41,2.27,2.27,0,0,1-.78.59,3.63,3.63,0,0,1-5-.84c-1.24-1.49-1.11-3.26-.7-5a36.1,36.1,0,0,1,3.38-8.12c1.4-2.74.47-3.57-2.31-3.54-9.3.11-7.77-.91-7.82,7.5-.08,12.45.11,24.91-.11,37.36-.06,3.33,1,5.36,3.88,6.71a3,3,0,0,1,.6.35c1.47,1.21,4.36,1.74,3.74,4s-3.39,2.5-5.42,2.43a138.3,138.3,0,0,0-16.54.09,7.19,7.19,0,0,1-2.75-.52c-1.19-.4-2.77-.63-3-2.09s1.11-2.38,2.25-2.82c5.42-2.09,6.32-6.14,6.17-11.48-.36-12.57-.19-25.15-.06-37.72,0-2.92-.85-3.92-3.8-3.87-8.61.14-8.37-.37-4.67,7.23a15,15,0,0,1,1.89,6.37c0,2.2-.75,4-3.13,4.45-1.45.31-2.84.13-3.71-1.3a2.57,2.57,0,0,1,.52-3.52c2.43-2,1.2-3.35-.56-4.71-2.6-2-5.3-3.91-7.8-6-1.55-1.31-3.73-2.63-2.73-5.18.76-2.49,3.07-2.49,5.23-2.49H30Z"/><path class="cls-1" d="M367,126.38h10.27a12.91,12.91,0,0,1,4.49.71,4.1,4.1,0,0,1,3.09,4.22,3.59,3.59,0,0,1-3.16,3.68c-2.14.36-4.53.49-5.39-2-.63-1.81-1.64-2-3.15-2h-9.51c-1.65,0-3.57.09-3.95,2.13s1.42,2.52,2.8,3.1c3.9,1.61,7.86,3.09,11.76,4.71a27.21,27.21,0,0,1,8.85,5.64,16.28,16.28,0,0,1,2.9,19.84c-2.36,4.2-5.89,6.81-10.87,6.39a109.41,109.41,0,0,0-19.66,0c-4.34.4-8.24-.93-10.49-5s-1.37-7.9,1.39-11.47c.62-.81,1.38-2,1.2-2.84-.84-3.83,1.76-3.32,3.85-3.13,3.38.31,5.45,2.36,5.66,5.69s2.12,4.64,5.21,4.9a23.86,23.86,0,0,0,7.35-.31c2.25-.52,4.28-1.55,4.87-4s-.67-4.33-2.49-5.81a44,44,0,0,0-9.45-5.39,92.23,92.23,0,0,1-12.44-6.56c-2.33-1.56-4.36-3.4-3.86-6.55s3.12-4.19,5.76-5C357.15,125.79,362.48,126.58,367,126.38Z"/><path class="cls-1" d="M394.86,149.25c0-3.75-.05-7.51,0-11.26.05-2.82.33-5.46-3.17-6.86-1.91-.76-1.67-2.33.47-3.14,3.12-1.19,3.52-3.43.79-5.54-2.18-1.67-1-2.51.53-3.25a61.39,61.39,0,0,0,11.18-6.62c.64-.5,1.42-1.08,2.23-.53s.4,1.45.13,2.22c-1.48,4.11-.42,8.38-.74,12.56-.09,1.23.55,1.7,1.71,1.5.69-.12,1.37-.33,2.06-.47,6-1.21,7.7.58,5.85,6.28a6.52,6.52,0,0,0-.21,4.14c.54,1.61,1.48,3.08-1.07,3.76-2.39.63-4.48.39-5.75-2a6.55,6.55,0,0,1-.51-4.46c.17-.86.17-1.72-1.07-1.67-1,0-1,.77-1,1.5v28.87c0,2,1.8,2.23,3,3.06,2.49,1.75,2.56,3.26-.26,4.12a27.64,27.64,0,0,1-17.18-.08c-2.6-.89-2.69-2.59-.15-3.85s3.26-3.21,3.15-5.92c-.16-4.1,0-8.21,0-12.32Z"/><path class="cls-1" d="M239.65,138c0,7.86.09,15.72,0,23.58-.05,2.68.24,4.84,3.13,5.9.93.33,2,1,1.83,2.28a2.74,2.74,0,0,1-2.3,2,32.32,32.32,0,0,1-16.57,0c-1-.27-2.12-.86-2.27-2s.94-1.89,1.88-2.27c2.62-1,3.13-2.94,3.11-5.58-.07-14.43,0-28.86.1-43.29,0-2.55-.29-4.65-3-5.66a1.82,1.82,0,0,1-1.36-2.17h0c.27-1.08,1.17-1.37,2.19-1.37H237.3c2.4,0,2.51,1.52,2.51,3.31v25.34Z"/><path class="cls-1" d="M121.56,256.24c8.4-1.37,8.4-1.37,8.4,6.55v8.45c0,1.56.51,2.89,2.3,2.94s3.77-.72,3.89-2.75c.24-4.2.06-8.44,0-12.66,0-1.67-1.66-1.72-2.82-2.67,2.69-.92,5.25-.32,7.74-.46,1.59-.1,1.51,1.06,1.51,2.15v12.68c0,1.91-.18,3.8,2.17,5-2.44.44-5.8,2.08-7.15,1.07-3-2.25-4.64.42-6.84.65-4.12.43-6.93-1.69-7.09-5.85-.13-3.52-.07-7,0-10.56C123.69,258.94,123.72,257.21,121.56,256.24Z"/><path class="cls-1" d="M182.56,276.36H172.43c2.8-4.11,2.83-26.92-.39-30.57h7.2c1.9,0,1.5,1.41,1.5,2.5v22.83C180.71,273,180.7,274.84,182.56,276.36Z"/><path class="cls-1" d="M295,276.13H282.84c3.25-3.55,3.26-17.3.23-20.17,4.86-1.48,7.66-.88,8.54,1.89a28.06,28.06,0,0,1,3.7-2.52c2-1,4-.78,5.22,1.29a2.9,2.9,0,0,1-.39,3.88c-1.81,1.57-3.25.7-4.81-.83-2.23-2.19-3.43.1-3.58,1.66a115.4,115.4,0,0,0-.17,11.91C291.6,274.9,293.44,274.75,295,276.13Z"/><path class="cls-1" d="M216.15,271.85c-3.76,5.32-9.35,6.63-13.85,3.71s-6-10.23-3-15.5c2.64-4.56,9.09-6.49,13.53-4.07a4.82,4.82,0,0,1,2.37,2.5,3,3,0,0,1-.43,3.31,3,3,0,0,1-2.89.87c-1.42-.29-1.78-1.39-1.94-2.61-.19-1.43.38-3.44-1.85-3.57s-3.14,1.78-3.51,3.7a20.47,20.47,0,0,0-.41,4.88C204.63,273.08,208.59,275.58,216.15,271.85Z"/><path class="cls-1" d="M196.29,276.33H185.16c2.82-4.67,2.76-17.51-.62-20.84h7.3c1.86,0,1.6,1.3,1.6,2.44v12C193.45,272.14,192.89,274.58,196.29,276.33Z"/><path class="cls-1" d="M302.42,276.83c-2.44-.35-3.75-1.79-3.56-4.07a3.49,3.49,0,0,1,3.48-3.5,2.88,2.88,0,0,1,.59.05,3.44,3.44,0,0,1,3.49,3.39,4.18,4.18,0,0,1-.05.61C306.2,275.74,304.64,276.75,302.42,276.83Z"/><path class="cls-1" d="M190.44,245.16a3.2,3.2,0,0,1,3.25,3.13,4,4,0,0,1-.05.6c-.12,2.12-1.47,3.14-3.51,3.1a3,3,0,0,1-3.29-2.68,2.74,2.74,0,0,1,0-.64C186.86,246.43,188.11,245.25,190.44,245.16Z"/><path class="cls-1" d="M406.68,73.51a37.59,37.59,0,0,0-11.88-8.06c-9.64-4.36-19.88-6.42-30.28-7.71-27.89-3.45-55.81-2.26-83.72-.23-25.55,1.87-51,5.11-76.29,8.8A17,17,0,0,1,194,64.46a158.51,158.51,0,0,1-25.48-16.33c-9.12-7.22-9-17.22.28-24.3A41.34,41.34,0,0,1,193,15.27c12.64-.46,24,2.93,33.36,11.6,6.43,6,6.49,14.22.68,20.77a24.71,24.71,0,0,1-15.23,8.11c-3.59.56-7.17,1.25-10.71,2.06-1.41.32-3.49.67-3.23,2.57.2,1.5,2.25,1.35,3.54,1.74,2,.59,4,.11,6-.1,10-1.08,19.83-2.77,28.39-8.51,11.93-8,13.18-22.27,2.92-32.26a31.5,31.5,0,0,0-9.55-6.51,86.57,86.57,0,0,0-49.69-5.82c-9.84,1.65-19.21,4.54-26.87,11.39-5.72,5.1-7.38,11.46-5.9,18.84,1.14,5.76,4.48,10,9,13.4A124.23,124.23,0,0,0,177.16,65.3c1.22.58,2.64.9,3.49,2.28C175,70,169.56,71.26,163.73,68a136.3,136.3,0,0,0-14-6.59c-29.44-12.31-60-17.84-91.92-14.71-11.88,1.16-23.43,3.82-34.19,9.18-7.46,3.72-14,8.51-18.52,15.79-2.74,4.44-2.41,8.67.28,12.9,3,4.64,7.36,7.54,12.2,9.81a78.08,78.08,0,0,0,32.36,7.45c21,.34,41.24-4,61.19-10.38,17.54-5.64,35.2-11,53.38-14.34a7.9,7.9,0,0,1,7.62,2.23,231.07,231.07,0,0,1,24.51,28.14,1,1,0,0,1,0,1.41H193c-7.36.29-13.38,3.19-17.85,9.14-9.6,12.83-9.12,37,1,49.43,3.26,4,7.24,6.23,12.6,5.42a26.43,26.43,0,0,1,8.42,0c7.4,1.3,12.21-2.12,15.34-8.45A56.35,56.35,0,0,0,218,130.58c-.81-5.44-2.39-10.93-6.79-14.35-5.27-4.09-8.53-9.59-12.42-14.67A177.9,177.9,0,0,0,176,76.2c11.73-5.38,22.84-3.91,33.83,1,3.11,1.38,6.22,2.78,9.43,3.9a637.34,637.34,0,0,0,83.59,22.66c23.39,4.76,46.9,8.65,70.92,7.87,9.57-.3,19-1.26,27.71-5.72C414.09,99.31,416.55,83.8,406.68,73.51ZM157.13,72.35c-.17,1.24-1.69,1.5-2.81,1.79l-23.56,6c-18.1,4.57-36.11,9.6-54.71,11.9-12,1.54-24,2.34-36.12-.2a32.36,32.36,0,0,1-11.09-4.37c-8.33-5.45-9.27-14-2.29-21.19,4.77-4.89,10.91-7.25,17.32-9,11-2.92,22.24-3.53,33.55-3.57,25.23,0,49.44,5.16,72.9,14.21A38.65,38.65,0,0,1,154.79,70c1,.57,2.53,1,2.34,2.34Zm50.07,51.49c3.3,9.27,3.79,18.47-.36,27.45-3.13,6.78-9.33,9.51-16.68,7.9-6.56-1.44-9.26-7.61-6.28-14.37a13.29,13.29,0,0,1,5.27-6c2.49-1.55,5.09-2.93,7.66-4.32,4.52-2.45,8.77-5.12,10.39-10.66Zm-4.51-5.64c1.11,3.35.06,6.25-2.43,8.61a26,26,0,0,1-6.24,3.88c-10,5.07-11.14,6.3-15.71,16.81-1.82-8.39-2-16,1-23.45s8.87-11.17,16.46-10.4c3.06.3,5.85,1.3,6.92,4.55Zm181.39-21c-5.31,3.35-11.33,4.48-17.43,5.1-14.72,1.51-29.32,0-43.85-2.12A518.11,518.11,0,0,1,228.21,77c-1.87-.66-3.69-1.49-5.52-2.28q-1.08-.6-2.1-1.29c6.47-2.41,12.5-3.25,18.5-4.14,30.59-4.5,61.33-7.14,92.28-6.28,14.68.41,29.33,1.39,43.4,6.19a32.19,32.19,0,0,1,11.08,6C393.28,81.72,392.46,91.91,384.08,97.2Z"/><path class="cls-1" d="M392.56,192.05c-6.59-4.51-14.1-6.92-21.81-8.63-21.76-4.85-43.82-4.71-65.91-3.68-26.56,1.24-52.81,5.16-79.07,9-32,4.66-64,8.67-96.28,10.13C105.8,200,82.35,199.53,59,195c-12.31-2.41-24.84-3.55-37.24-6.1.16,1.36,1.13,1.74,1.8,2.34,8.56,7.69,17.2,15.29,25.67,23.09a7.57,7.57,0,0,0,6.9,2.07,257.68,257.68,0,0,1,52-2.15c10.78.67,21,3.8,31.45,5.89A958.52,958.52,0,0,0,260.35,236c28.14,2,56.31,2.77,84.43-.44,13.57-1.55,27-3.9,39.34-10.19,6-3,11.45-6.9,14-13.36C402.22,201.39,400.3,197.34,392.56,192.05Zm-23,23.43c-8.26,5.93-18,8-27.75,9.49-21.45,3.37-43.06,3.32-64.68,2.33a843.33,843.33,0,0,1-126.52-15c-2.22-.44-4.53-.69-6.46-2.33,12.26-1.69,24.42-3.52,36.57-5.35,30.31-4.57,60.61-9.3,91.11-12.47,24.77-2.57,49.58-4.79,74.52-2.51a69.53,69.53,0,0,1,15.19,2.94,41.23,41.23,0,0,1,6.51,2.63c9.95,5.21,10.64,13.7,1.49,20.27Z"/><path class="cls-1" d="M294.67,166.58c-2.71-1.19-3.17-3.21-3.11-5.91.15-7.63.05-15.26.05-22.89h.06c0-8.1-.06-16.2,0-24.3,0-3-1.09-4.29-4.16-4.14-3.4.15-6.81,0-10.21,0-1.3,0-2.77-.12-3.21,1.48-.48,1.77.89,2.67,2.2,3.11,3.53,1.18,4.62,3.57,4.11,7.07a27.77,27.77,0,0,0,0,3.87c0,4.65,0,4.65-4.38,2.65-9.76-4.5-18.73-1.77-24.18,7.47-4.56,7.75-5.09,16-2.51,24.47,2.74,9,9.35,14,18.73,13.27a196.52,196.52,0,0,1,22.11-.35,14.08,14.08,0,0,0,3.48-.4c1.48-.34,3.27-.68,3.56-2.42S295.9,167.11,294.67,166.58Zm-14.36-20.31h0v8.79c0,2.71-1.29,4.24-4,4.33-3.4.11-6.8.15-10.19,0-2.63-.11-4.13-2-5.36-4.08-3.31-5.52-2.52-15.64,1.55-20.68,2.77-3.42,6.44-4.13,10.47-3.13,6.13,1.52,7.52,3.46,7.5,9.84Z"/><path class="cls-1" d="M339.63,156.2c-1.28-1.44-2.65-3-4.14,0a7.36,7.36,0,0,1-4.4,3.32c-4.74,1.7-9.43,1.22-14.17-.13-2.89-.82-3-2.33-1.74-4.64,1.94-3.46,5.12-5.41,8.43-7.21,4.53-2.46,9.45-4.21,13.53-7.46,3.32-2.65,4.8-6.21,3.7-9.19-1.38-3.76-4.78-4.28-8.09-4.4-5.28-.18-10.57-.17-15.84,0a15.41,15.41,0,0,0-12.68,6.6c-6.71,9.7-8.05,20.19-2.81,30.94,3,6.15,7.93,9.8,15.33,8.73,1.62-.24,3.27-.27,4.9-.39v.47c3.16,0,6.34.17,9.48,0a10.77,10.77,0,0,0,9.68-7.06C342.21,162.42,342.21,159.08,339.63,156.2Zm-29.51-2c-3-5.37-2.41-15,.88-19.15,3.13-3.94,12.68-5.44,17-2.59,2.35,1.56,2.32,3.65.87,5.79a10.26,10.26,0,0,1-4.17,3.17c-5.95,2.9-11.78,5.92-14.58,12.74Z"/><path class="cls-1" d="M154.49,156.83c-1.43-1.83-2.9-3.7-4.76-.14-1,1.93-3.12,2.79-5.2,3.37a21.62,21.62,0,0,1-12.81-.44c-3.47-1.15-3.77-1.88-1.93-5,2.33-3.94,6.25-5.9,10.13-7.87s8.15-3.66,11.66-6.48c2.95-2.36,4.86-5.37,3.69-9.19s-4.73-4.31-8-4.43c-5.28-.18-10.56-.14-15.84,0a16.51,16.51,0,0,0-12.08,5.68c-7.66,8.35-8.71,24.94-2.16,34.19,3.29,4.65,7.55,7.27,13.48,6.48,1.86-.25,3.74-.27,5.61-.4V173c3.16,0,6.34.15,9.48,0a10.65,10.65,0,0,0,9.33-6.52C156.6,163.22,156.86,159.87,154.49,156.83Zm-29.92-2.52c-5.14-8.8-1.22-20.93,7-22.72a17.68,17.68,0,0,1,9.38.32c3.74,1.24,4.48,4.61,1.58,7.31a14.28,14.28,0,0,1-3.18,2.16C133.39,144.44,127.36,147.33,124.57,154.31Z"/><path class="cls-1" d="M252.23,261.34c-1-.57-2.15-1-3.63-1.67,3.74-1.6,6.68-3.33,6.17-7.58-.41-3.46-2.89-5.09-5.88-5.73-6.45-1.39-13-.47-19.63-.26,3.55.88,3.81,3.29,3.72,6.2-.18,5.63-.15,11.27,0,16.9.06,3,.23,5.9-3.88,6.8,7,.18,13.87,1.16,20.62-.53a10.37,10.37,0,0,0,2.87-1.31C257.79,270.9,257.63,264.32,252.23,261.34Zm-12-11.16c.14-2.86,1.86-3.88,4.46-2.65s2.53,3.69,2.53,6-.48,4.42-3.07,5.32c-3.17,1.1-3.91.62-3.94-2.75v-2.45h0c0-1.13,0-2.3,0-3.47Zm6.19,23.57a4.83,4.83,0,0,1-4.63.89c-1.91-.66-1.55-2.39-1.59-3.87v-3.51a16.83,16.83,0,0,1,0-2.46c.22-1.29-.84-3.12.81-3.78s3.25,0,4.69.88c3.39,2.05,3.85,9.47.75,11.85Z"/><path class="cls-1" d="M113.12,246.39c-6.33-1-12.73-.25-19.48,0,4.07.75,3.78,3.64,3.78,6.34v16.55c0,2.92.28,6-3.55,7.13h14.45l1-1c-5.08.32-4.61-2.71-4.59-5.47a31.23,31.23,0,0,0,0-3.87c-.24-2.3.34-3.5,3-3.27a19.32,19.32,0,0,0,5.25-.48c4.27-.86,7.11-4.1,7.18-8C120.23,250.24,117.8,247.17,113.12,246.39Zm-.88,9.13c-.09,2.62-1,4.8-4,5.4-2.33.47-3.91.13-3.45-2.85a25.41,25.41,0,0,0,0-3.49v-3.85c.08-3,1.77-4.16,4.55-2.83C112.66,249.47,112.34,252.64,112.24,255.52Z"/><path class="cls-1" d="M169.19,261.64a8.8,8.8,0,0,0-4.35-5.71c-3.1-1.61-6.07-.78-9.26,1v-3.87c0-7.76,0-7.76-8-7.15a7.7,7.7,0,0,0-1.12.54c2.84.93,2.79,2.87,2.77,4.9q-.09,10.74,0,21.46c0,1.33-.38,2.75.56,4.28,2.2-2.46,4.37-2.17,6.8-.56,1.5,1,3.41.7,5.15.3C167.88,275.45,171.21,268.58,169.19,261.64Zm-7.31,11.69a3.12,3.12,0,0,1-3.55,2.23c-1.82-.23-2.55-1.57-2.65-3.21-.11-2,0-4,0-6h0v-5.26a3.23,3.23,0,0,1,2.78-3.5,3.09,3.09,0,0,1,3.52,2.3A20.25,20.25,0,0,1,161.88,273.33Z"/><path class="cls-1" d="M278.19,273c-.06-.58-.08-1.16-.09-1.75v-4.93c0-1.64-.07-3.06,0-4.58.2-3.37-1.54-5.28-4.57-6.21a14.11,14.11,0,0,0-8.67,0,5.92,5.92,0,0,0-4.19,3.94,3.08,3.08,0,0,0,4.9,3.4,2.34,2.34,0,0,0,.64-3.24,1.56,1.56,0,0,0-.16-.2c-1.6-2.4.15-2.95,1.91-3.06s3.63.52,3.79,2.77c.16,2.05,1.21,4.5-2.21,5.28a17.9,17.9,0,0,0-7.92,3.67,4.89,4.89,0,0,0-1.52,6c1,2.23,2.91,3,5.19,2.83a8.78,8.78,0,0,0,4.89-1.79c1-.81,1.51-.82,2.44.36,1.79,2.28,4.13,1.68,6.32.39C282.12,274,278.3,274,278.19,273Zm-6.47-4.52c.24,2.63.1,4.91-3,5.1-1.83.11-2.34-1.42-2.29-2.89a4.7,4.7,0,0,1,4.24-4.83c2.16-.25.52,2,1.05,2.62Z"/></g><path class="cls-2" d="M80.92,370.28c.12-.33.23-.65.32-1a1.11,1.11,0,0,1,.82-.71,22.07,22.07,0,0,0,.77-6.15,33.32,33.32,0,0,1,1-7.57q.51-3,1.26-6t1.5-5.75q.75-2.76,1.48-5.1c.49-1.56.94-2.9,1.33-4a4.72,4.72,0,0,0-1.14,1.19c-.54.69-1.08,1.32-1.6,1.91a6.71,6.71,0,0,1-1.32,1.22c-.36.23-.46-.07-.32-.9.19-.28.24-.43.15-.44a1,1,0,0,0-.4.08,1.37,1.37,0,0,1-.44.09c-.13,0-.12-.15,0-.42a2.84,2.84,0,0,0-.63-1.11c-.27-.29-.53-.58-.76-.87a3,3,0,0,1-.55-.9,1.43,1.43,0,0,1,.23-1.19,22.18,22.18,0,0,1,5.93-7.25,16.66,16.66,0,0,1,6.8-3.2,13.49,13.49,0,0,1,6.27.2,13.21,13.21,0,0,1,5.27,2.83,13.64,13.64,0,0,1,3.54,5,13.36,13.36,0,0,1,.89,6.71,21.5,21.5,0,0,1-2.63,7.89,35,35,0,0,1-6.91,8.59q4.09,4.52,4.73,8.52a9.74,9.74,0,0,1-1.37,7.1,14.76,14.76,0,0,1-6.25,5.11A29.43,29.43,0,0,1,89,376.68c-.61,0-1.26,0-1.94-.08a7.48,7.48,0,0,1-1.86-.37,4.72,4.72,0,0,1-1.38-.74,1.36,1.36,0,0,1-.51-1.19c-.12,0-.28-.17-.48-.59s-.15-.6.17-.54a.74.74,0,0,0,.44.14c.15,0,.2,0,.13-.07s-.06-.29-.28-.49-.46-.4-.72-.6l-.75-.58-.48-.37c0-.19-.1-.33-.36-.43S80.72,370.5,80.92,370.28Zm14.77,1q2.37-1,4.66-2.19a7.54,7.54,0,0,0,3.31-3c.3-.67.39-1,.29-1.12s-.35.15-.75.65a8.73,8.73,0,0,1-2.56,2.38A29.29,29.29,0,0,1,96.91,370a42.31,42.31,0,0,1-4.12,1.68c-1.4.49-2.68.87-3.85,1.16a3.27,3.27,0,0,0,1.08-.12c.58-.11,1.23-.25,1.93-.42s1.4-.35,2.09-.55S95.29,371.4,95.69,371.26Zm-5.41-34.43c.2-.53.37-.94.49-1.24a4.33,4.33,0,0,0,.28-.93,16.71,16.71,0,0,0-1.34,3.24q-.84,2.5-1.58,5.31c-.5,1.87-.94,3.65-1.35,5.35s-.64,2.83-.71,3.39c0-.13.16-.56.38-1.31s.48-1.65.76-2.71.61-2.23,1-3.49.69-2.44,1-3.54.52-2,.74-2.76S90.24,337,90.28,336.83Zm2.41,30.34c.84-.41,1.79-.88,2.84-1.43a21.13,21.13,0,0,0,3-1.81,9.59,9.59,0,0,0,2.23-2.22,3.29,3.29,0,0,0,.59-2.63,2.66,2.66,0,0,0-1.66-1.24,4.89,4.89,0,0,0-2.57-.23,2.89,2.89,0,0,0-1.42.73,6.47,6.47,0,0,1-1.91,1,6.16,6.16,0,0,0-1.48.66,3.44,3.44,0,0,0-1.08,1.26,10.21,10.21,0,0,0-.8,3,25,25,0,0,1-.8,3.18c-.22.59-.07.84.46.73a4.68,4.68,0,0,0,1-.33C91.46,367.64,92,367.42,92.69,367.17Zm-4.45-34.25c.26-.23.56-.54.92-.91s.69-.72,1-1q1-.93.84-.9a8.78,8.78,0,0,0-1.37,1,12.83,12.83,0,0,0-2,1.85A22.58,22.58,0,0,0,86,335c-.46.76-.6,1.12-.43,1.09s.3-.2.55-.52.51-.66.8-1,.58-.71.86-1Zm3.46,12.62c.7-2.7,1.31-4.87,1.85-6.5a41.56,41.56,0,0,0,1.28-4.74,1.48,1.48,0,0,1,.25-.83c.2-.38.39-.58.57-.62s.19,0,.22.19l.09.49a1,1,0,0,0,.12.34c0,.05.16,0,.36-.25q.91.47.69,2.61a36.24,36.24,0,0,1-.86,4.75q-.64,2.61-1.33,5a15.62,15.62,0,0,0-.69,3.3,40.27,40.27,0,0,0,3.46-3.47,44.28,44.28,0,0,0,3.71-4.71,38.48,38.48,0,0,0,3-5.17,13.18,13.18,0,0,0,1.43-4.68,3.51,3.51,0,0,0-1.87-1.15,10.22,10.22,0,0,0-2.69-.35,22.06,22.06,0,0,0-2.89.2c-1,.13-1.83.26-2.54.4-.46.15-.89.28-1.3.39s-.57.22-.48.32.22.21.31.68.17.55.26.4.15.22-.05.93-.45,1.54-.75,2.49-.63,1.89-1,2.84a14.23,14.23,0,0,0-.63,2.19c-.34,1.41-.69,2.82-1.06,4.24s-.67,2.68-.91,3.79-.43,2-.57,2.73-.18,1-.12,1a7,7,0,0,0,.57-1.58C90.51,349.74,91,348,91.7,345.54ZM96.12,373a40.27,40.27,0,0,0,4.56-2,8.84,8.84,0,0,0,2.74-2c.09-.14.11-.21,0-.2a4.38,4.38,0,0,0-.73.51,32.22,32.22,0,0,1-3.06,1.7c-1.39.7-2.74,1.32-4,1.88s-1.64.7-1.52.71A14.55,14.55,0,0,0,96.12,373Zm-6.61-25c0,.12.07,0,.15-.21a.79.79,0,0,1,0-.28c-.08-.11-.15-.06-.2.13S89.44,347.94,89.51,348Zm2.42,10.08c0,.12.11.16.26.13s.21-.1.18-.22-.12-.14-.29-.08S91.86,358,91.93,358.06Zm.95-22a8,8,0,0,1,.55-1.44c.22-.43.26-.7.11-.8a9.32,9.32,0,0,0-.82,2.13c-.39,1.27-.81,2.67-1.25,4.19s-.83,3-1.18,4.31a19.64,19.64,0,0,0-.54,2.4c.08-.2.27-.83.55-1.9s.6-2.22,1-3.49.7-2.43,1-3.5S92.8,336.25,92.88,336.05Zm-1.14,14.89c.16-.76.46-1.89.9-3.38s.89-3.05,1.34-4.66.85-3.16,1.21-4.64a15,15,0,0,0,.52-3.22c-.08-.1-.25.22-.5,1s-.53,1.69-.83,2.82-.62,2.37-1,3.72-.67,2.59-1,3.72-.55,2.06-.74,2.8-.27,1.08-.22,1C91,351.94,91.07,352.23,91.74,350.94Zm1.58,4.83c0-.06.1-.17.35-.34a8.21,8.21,0,0,1,.73-.47,5.49,5.49,0,0,0,.61-.39q.24-.18.06-.15a3.49,3.49,0,0,0-1.48.61c-.69.41-1.07.71-1.15.91s-.07.29,0,.27A4.28,4.28,0,0,0,93.32,355.77Zm7.19,9.15a.61.61,0,0,0,.2-.13,2.32,2.32,0,0,1,.28-.24c.14-.21.1-.24-.11-.07C100.45,364.8,100.33,365,100.51,364.92Zm0-14.58a30,30,0,0,0,7.77-11.88c0-.37,0-.51,0-.41s-.39.67-1,1.71a53,53,0,0,1-3.44,5.17A49.42,49.42,0,0,1,99.53,350a4.84,4.84,0,0,0-1.16,1.32c-.11.27,0,.37.29.32A3.74,3.74,0,0,0,100.52,350.34Zm.81,16.43.67-.54a2.91,2.91,0,0,0,.57-.61l.37-.44q-.39.35-.81.75A10.5,10.5,0,0,0,101.33,366.77Zm2-2.58.57-.84a7.26,7.26,0,0,0-.93,1.09c-.36.5-.52.75-.46.73S102.87,364.82,103.3,364.19ZM103,349.4a34.88,34.88,0,0,0,4-5.13,19.68,19.68,0,0,0,2.42-5.46c-.3.67-.75,1.52-1.34,2.55s-1.27,2.11-2,3.23-1.55,2.23-2.38,3.31a19.8,19.8,0,0,1-2.42,2.67c-1,1.1-1.3,1.63-1.06,1.58A13.68,13.68,0,0,0,103,349.4Zm-2.78-2c.12,0,.22-.16.29-.42s.21-.33.2-.36-.06,0-.16.12a1.31,1.31,0,0,0-.24.37A.54.54,0,0,0,100.21,347.37Zm1.43-1.65c0-.07.09-.14.14-.21a.5.5,0,0,1,.15-.17.48.48,0,0,0,.13-.25l.34-.62-.58.8Q101.39,345.86,101.64,345.72Zm.15-2.51a28.21,28.21,0,0,0,2.25-3,13.31,13.31,0,0,0,1.65-3.3c-.4.75-.82,1.46-1.24,2.12l-1.68,2.67c-.24.35-.43.65-.56.88a6.67,6.67,0,0,1-.35.58l-.36.52Zm.85,2.5c.32-.55.72-1.18,1.19-1.89l1.46-2.16c.5-.74.95-1.47,1.36-2.19a13.79,13.79,0,0,0,.92-1.88c-.31.62-.69,1.3-1.15,2.06s-1,1.52-1.49,2.26-1,1.47-1.46,2.17a13.41,13.41,0,0,0-1,1.94c-.12.33-.1.37.07.13S102.71,345.75,102.64,345.71Zm0-1.19.15-.21a.61.61,0,0,1,.15-.17.44.44,0,0,0,.13-.25l.34-.62c-.09.15-.29.41-.58.8S102.43,344.62,102.59,344.52Z"/><path class="cls-2" d="M110,348.41c.26-.23.34-.4.23-.5s0-.29.48-.56c.94-.54.93-.72,0-.54-.71.14-1,.08-.86-.16a4.38,4.38,0,0,1,1.36-1c.34-.13.28-.28-.18-.47l-.89-.33c-.18,0-.3-.09-.35-.39s0-.31-.12-.34-.2-.18-.13-.44a1.17,1.17,0,0,1-.27-1.18,3.17,3.17,0,0,1,.79-1.12,10.07,10.07,0,0,1,1.3-1.08c.49-.33.89-.63,1.21-.87.15-.77.33-1.58.53-2.44s.41-1.74.64-2.6.46-1.71.7-2.52a12.69,12.69,0,0,1,.76-2c.12-.33,0-.47-.22-.42a4,4,0,0,0-1,.38c-.39.2-.77.41-1.12.63s-.53.36-.51.42a1.44,1.44,0,0,1-1.63.59c-.27-.13-.39-.28-.36-.44a1.42,1.42,0,0,1,.22-.5,4.74,4.74,0,0,0,.31-.52c.09-.16,0-.29-.16-.38s-.3-.29-.27-.45a.67.67,0,0,1,.28-.42,5.67,5.67,0,0,0,.44-.36.38.38,0,0,0,.16-.35,4.09,4.09,0,0,1-.52-1,6.17,6.17,0,0,1-.35-1.12c-.08-.72.48-1.52,1.69-2.4a27,27,0,0,1,4.76-2.62,59.76,59.76,0,0,1,6.63-2.43,71.48,71.48,0,0,1,7.3-1.83,51.57,51.57,0,0,1,5.8-.81,17.29,17.29,0,0,1,4.67.19,5.31,5.31,0,0,1,2.89,1.41,2.54,2.54,0,0,1,.26,2.79c-.22.11-.35.21-.39.31s-.23.09-.56,0a18.16,18.16,0,0,0-5.78-.25,67.55,67.55,0,0,0-7.09,1c-1.59.31-3.16.66-4.7,1.05s-2.92.8-4.12,1.21l.43.33a3.82,3.82,0,0,0,.43.33c1.51-.41,3.18-.85,5-1.3s3.7-.85,5.58-1.22q3.36-.64,6.38-.92a15.86,15.86,0,0,1,5.24.31c.07.05,0,.14-.13.26a5.67,5.67,0,0,0-.44.36,1.31,1.31,0,0,1-.32.24c-.08,0,0,0,.23,0a2,2,0,0,0,.76-.37c.1-.11,0,.25-.16,1.08a2,2,0,0,1-.61,1.09,10.89,10.89,0,0,1-1,.79,58.37,58.37,0,0,0-9.07.76c-3.23.5-6.44,1-9.64,1.6l.28.95a22.93,22.93,0,0,1-.62,3.42,18.05,18.05,0,0,1-.69,2.11c-.21.5-.36.83-.44,1s0,.23.21.19a14.49,14.49,0,0,0,1.39-.41,25.76,25.76,0,0,1,3.07-.73c.76-.15,1.65-.29,2.67-.43s2.2-.28,3.58-.42a4.88,4.88,0,0,1,2.11.23,5.64,5.64,0,0,1,1.73.9,2.69,2.69,0,0,1,.95,1.33,1.94,1.94,0,0,1-.24,1.6q-.18,0-.09.48a.86.86,0,0,0,.3.58c.2.09.26.26.19.52s-.07.42.18.47.31.17.17.38-.16.3,0,.28,0,.13-.18.26-.21.24-.07.34-.07.53-.51.92-.84.47-1.19.23a7.62,7.62,0,0,0-2,0c-.9.09-1.94.24-3.12.47-1.89.37-3.94.88-6.17,1.52s-4.25,1.33-6.06,2c-.17.71-.37,1.66-.59,2.87s-.41,2.38-.55,3.54-.25,2.18-.33,3.05a3.92,3.92,0,0,0,0,1.46,19.39,19.39,0,0,0,2-.12c.75-.09,1.54-.21,2.36-.37,1.3-.25,2.63-.55,4-.91s2.62-.74,3.76-1.15c2.82-1.22,4.57-.85,5.25,1.09a.5.5,0,0,0-.1.39c0,.12.09.16.21.14a3.52,3.52,0,0,1-1.48,1.34,26.2,26.2,0,0,1-2.92,1.49c-1.13.49-2.29,1-3.5,1.36s-2.29.79-3.27,1.1a19.62,19.62,0,0,0,2.82-.59c1.1-.31,2.24-.68,3.4-1.12s2.26-.92,3.26-1.42a12.6,12.6,0,0,0,2.37-1.47c.12,0,.1.14,0,.47a7.19,7.19,0,0,1-.58,1,2.51,2.51,0,0,0-.37.48s.09,0,.26-.09a2.11,2.11,0,0,0,.7-.64c.24-.32.44-.59.58-.8a4.34,4.34,0,0,1-1.32,4.06,14.84,14.84,0,0,1-4.33,3,31.75,31.75,0,0,1-5.19,1.88c-1.74.46-3,.77-3.85.93a4.07,4.07,0,0,1-2.52-.24,7.09,7.09,0,0,1-2-1.36,10.11,10.11,0,0,1-1.46-1.83,14.92,14.92,0,0,1-.91-1.66,5.58,5.58,0,0,0-1.14-1.38,15.77,15.77,0,0,1-1.37-1.34,9.31,9.31,0,0,1-1.12-1.52,4.27,4.27,0,0,1-.52-2,3.41,3.41,0,0,1-.16-1.3c0-.64,0-1.29,0-2s0-1.27-.07-1.78-.18-.74-.41-.7a1.78,1.78,0,0,1-.84-.06C109.62,348.74,109.62,348.6,110,348.41ZM115,327.8c.33-.18.67-.35,1-.51s.46-.32.37-.48a3.59,3.59,0,0,0-.56.2l-1,.37-.94.36a2.9,2.9,0,0,0-.58.3q-.39.36-.24.42a.82.82,0,0,0,.49,0l.77-.29A5.39,5.39,0,0,0,115,327.8Zm-1.16-.78a2.79,2.79,0,0,1,.73-.28,4.91,4.91,0,0,0,1.06-.43c.62-.25,1.07-.44,1.35-.59a.93.93,0,0,0,.49-.78q.08-.1-.78.24c-.56.24-1.14.5-1.72.8a15.87,15.87,0,0,0-1.41.78C113.23,327,113.32,327.07,113.86,327Zm8.27,38.28.17,0c-.08-.1-.2-.11-.37,0S121.83,365.36,122.13,365.3Zm-5.52-40.65a6.55,6.55,0,0,0,1.35-.58c.16-.12.18-.17.07-.15a8.84,8.84,0,0,0-1.25.43c-.6.23-1.15.46-1.65.68l-.32.25a5.55,5.55,0,0,0,.73-.24Zm-1.86-1.1a3.1,3.1,0,0,1,.87-.45l1.83-.72a7.63,7.63,0,0,1,1.14-.5l1.25-.42a9.75,9.75,0,0,0,.94-.37c.22-.1.27-.17.14-.21a12.64,12.64,0,0,0-1.42.46c-.72.26-1.44.54-2.18.84s-1.37.57-1.9.83S114.66,323.44,114.75,323.55Zm4,18,.11-.38c-.09-.11-.15-.11-.19,0a1,1,0,0,0-.08.29.3.3,0,0,0,0,.22Q118.65,341.77,118.71,341.57Zm.53-6.7c.39-1.11.9-2.36,1.52-3.73s1.24-2.67,1.86-3.9a2.17,2.17,0,0,0-1.27.57,15.24,15.24,0,0,0-1.17,2.48c-.17.4-.35.92-.56,1.57s-.41,1.3-.59,1.95-.32,1.19-.41,1.64-.12.66-.06.65S118.9,335.67,119.24,334.87Zm3.19,7c.79-.34,1.74-.71,2.86-1.11s2.1-.74,3-1c-.41.08-1,.23-1.84.45s-1.61.45-2.39.69-1.49.49-2.14.74a12.36,12.36,0,0,0-1.23.51c-.16.46,0,.58.38.34A7.46,7.46,0,0,1,122.43,341.86Zm1.63-.13a36.19,36.19,0,0,1,6.12-1.74q3.13-.62,5-1.17a9.67,9.67,0,0,0-2.71.25c-1,.2-2.1.47-3.32.83s-2.39.73-3.54,1.1-2.19.73-3.1,1.06a13.58,13.58,0,0,0-1.86.78c0,.13.32,0,1.09-.26S123.31,342,124.06,341.73Zm-3.06-.6c.06,0,.23-.08.52-.19s.62-.28,1-.48a21,21,0,0,1,3.07-1.14c1.22-.36,2.44-.67,3.67-.95s2.44-.51,3.62-.74,2.17-.46,3-.68c-.16-.21-.89-.26-2.19-.17a39.5,39.5,0,0,0-4.41.63c-1,.2-2,.43-3,.68a18.44,18.44,0,0,0-2.72.9,8.87,8.87,0,0,0-1.9,1.06C121.14,340.41,120.94,340.77,121,341.13Zm1.25-2.08-.44.09c-.15.15-.09.18.2.1S122.38,339.09,122.25,339.05Zm.22-17.28-.53.11c-.17.09-.06.1.33,0S122.72,321.79,122.47,321.77ZM131,360.63c.85-.35,1.82-.79,2.9-1.34a16.41,16.41,0,0,0,1.95-1.07c.43-.32.53-.48.32-.47a3.05,3.05,0,0,0-1.2.65,4.81,4.81,0,0,0-.72.32c-.42.2-.88.44-1.37.72s-1,.55-1.54.81a13.27,13.27,0,0,0-1.21.64q-.41.27-.27.24A10.47,10.47,0,0,0,131,360.63Zm-7.26-38.29-.62.12q-.18,0,0,.06a1.23,1.23,0,0,0,.36,0,1,1,0,0,0,.34-.11C123.91,322.33,123.89,322.32,123.77,322.34Zm.17-1-.62.12c-.1.15,0,.18.39.11S124.14,321.39,123.94,321.3Zm17.92,1.2h1.7a.56.56,0,0,0,.46-.23,24.58,24.58,0,0,0-4.13,0c-1.51.11-3.08.31-4.7.59s-3.25.6-4.86.94-3.18.7-4.7,1.06l1.2-.19,3.15-.52,4.09-.7c1.47-.26,2.82-.48,4-.65s2.19-.31,2.91-.39S142,322.34,141.86,322.5Zm-12.93-1.43a2.53,2.53,0,0,0-1.32.25Zm9.6,17.75.17,0c0-.12-.11-.13-.28,0S138.29,338.87,138.53,338.82Z"/><path class="cls-2" d="M144.8,364a3.09,3.09,0,0,0,.82-.48.58.58,0,0,0,.08-.52c0-.3-.07-.43,0-.41a.44.44,0,0,1,.12.16.3.3,0,0,0,.17.15c.06,0,.08-.06,0-.24,0-.55-.26-.62-.82-.2s-1.23.85-2,1.3a3.19,3.19,0,0,1-1.08.81,2.38,2.38,0,0,0-.71.36c-.1.39-.2.39-.27,0s-.17-.56-.29-.54-.18,0-.16.12.1.2-.12.3a.54.54,0,0,1-.55,0c-.12,0-.13-.05,0-.22s.17-.36.26-.56.15-.36.22-.5,0-.16-.06-.08a2.61,2.61,0,0,1-.5.28c-.22.11-.29.21-.21.32s.11.16.08.16-.09,0-.17-.15-.27-.27-.2-.55a1.57,1.57,0,0,1,.49-.79.85.85,0,0,0,.32-.24l.46-.46a3.14,3.14,0,0,0,.3-.33c0-.07,0-.06-.17,0l-.87.49c-.25.14-.34.24-.27.28.17.22-.05.38-.64.49-.29.06-.39-.09-.31-.44a4.5,4.5,0,0,1,.58-1.26,13.11,13.11,0,0,1,1.05-1.44,7.27,7.27,0,0,1,1.07-1.08,15.42,15.42,0,0,1-1.3-6.44,46.63,46.63,0,0,1,.68-8.29,78.48,78.48,0,0,1,2.15-9.22q1.42-4.77,3-9.25t3.27-8.43q1.65-3.94,3-6.67a1.73,1.73,0,0,1,.83-.44,2.34,2.34,0,0,1,1.47.22l1.16.55c.15-.15.22-.12.2.1s0,.47-.08.75-.1.68-.18,1.18c0,0,.17-.22.34-.61a1.12,1.12,0,0,1,.18-.45c.06,0,.09,0,.1,0a.88.88,0,0,1,0,.23.2.2,0,0,0,.09.22c.1-.39.19-.58.26-.56s.11.1.13.25a2.55,2.55,0,0,1,0,.59,1.25,1.25,0,0,1-.16.58q-1.19,2.43-2.82,6.51c-1.09,2.72-2.16,5.55-3.2,8.51s-2,5.83-2.77,8.65a62.51,62.51,0,0,0-1.65,7.06l-.5,3.12a30.15,30.15,0,0,0,1.08-3.42q.62-2.51,1.62-5.59t2.16-6.33c.77-2.17,1.55-4.32,2.32-6.46s1.49-4.06,2.13-5.77a6,6,0,0,0,.33-.66c.18-.37.37-.78.59-1.22a11.36,11.36,0,0,0,.57-1.35,4.33,4.33,0,0,0,.25-1.05c-.08-.11,0-.28.12-.53s.15-.29-.06-.13c-.14,0-.09-.22.11-.57s.24-.56.1-.66-.08-.26,0-.28.12-.16.05-.24,0-.09.36,0c.16-.1.3-.05.39.15a2.14,2.14,0,0,1,.21.6,2.52,2.52,0,0,0,.15.52c.06.14.12.08.19-.18s.11-.08,0,.18c0,.43.1.52.24.28a.48.48,0,0,0,0-.6c0-.17,0-.21.16-.12a.57.57,0,0,1,.25.32c.29.56.56,1.1.82,1.63a2.84,2.84,0,0,1,0,2.06q-1.72,4.38-3.77,9.4c-1.36,3.35-2.63,6.7-3.78,10s-2.13,6.57-2.93,9.69a43.37,43.37,0,0,0-1.39,8.39c1.28-.62,2.87-1.32,4.77-2.12s3.76-1.53,5.62-2.19,3.57-1.23,5.13-1.69a15.06,15.06,0,0,1,3.35-.7,4.49,4.49,0,0,1,3.49,1,3.53,3.53,0,0,1,1.32,3c.09.17.1.26,0,.27a.82.82,0,0,1-.27,0,.86.86,0,0,0-.23,0c-.06,0,0,.09.14.25s.16.12.09.25a.78.78,0,0,1-.26.33l-.27.24q-.12.11.15.06a1.18,1.18,0,0,1,.66.1,3.53,3.53,0,0,1,.61.29,6.19,6.19,0,0,0-.75.88h.46c.49,0,.7.06.62.1a2.4,2.4,0,0,1-.61.17l-1,.19c-.33.06-.51.13-.56.2s.25.09.88.06,1-.07,1.22-.1c-.05.07-.17.21-.37.44s-.25.32-.13.29c.36.61.09,1.1-.81,1.49a29.62,29.62,0,0,1-3.88,1.26,80.4,80.4,0,0,0-10.8,3.61c-3.89,1.58-7.71,3.35-11.49,5.31a11.85,11.85,0,0,0-2.57,1.41,1.39,1.39,0,0,1-1.5.29c-.25,0-.3-.07-.17-.19a4.08,4.08,0,0,1,.43-.36,2.46,2.46,0,0,0,.35-.3c.08-.07,0-.08-.32,0l-.44.09a8,8,0,0,1,1.93-1.84c.91-.67,1.91-1.35,3-2.05.76-.46,1.23-.73,1.39-.82s.13-.15-.12-.16a1.18,1.18,0,0,0-.93.18c-.42.2-.87.44-1.37.72s-.95.55-1.35.81a5.89,5.89,0,0,0-.84.63,16.45,16.45,0,0,1-2,.94c-.18,0-.15-.06.08-.29a12.84,12.84,0,0,1,1-.89q.67-.54,1.56-1.17A18.12,18.12,0,0,1,144.8,364Zm-3.62.24c.09.17.37,0,.83-.43.09-.14,0-.16-.28,0C141.28,364,141.1,364.15,141.18,364.25Zm2.69-4.09a.21.21,0,0,0-.23,0,.73.73,0,0,1-.22.09c-.09.14,0,.17.25.09S144,360.19,143.87,360.16Zm3.89,4.46q2.75-1.44,5.65-2.75t5.73-2.39q2.81-1.1,5.36-1.91c1.69-.55,3.24-1,4.63-1.41a32.09,32.09,0,0,0-6.22,1.53q-3.34,1.15-6.65,2.58c-2.19.94-4.27,1.93-6.21,3s-3.54,1.89-4.8,2.63c.05,0,.34-.15.84-.4Zm-4.28-24.38c.05-.07.25-.75.61-2s.76-2.68,1.21-4.18.84-2.87,1.21-4.13.57-1.93.62-2c.56-1.51.78-2.26.66-2.24l-.91,2.38c-.27.79-.6,1.78-1,3s-.73,2.42-1.08,3.64-.64,2.36-.9,3.39A16.31,16.31,0,0,0,143.48,340.24Zm5.33,23.17a3,3,0,0,1,.83-.43,14.4,14.4,0,0,0,1.66-.88c.33-.18.91-.45,1.73-.79s1.65-.7,2.49-1.08l2.15-1c.59-.27.83-.39.71-.37a14,14,0,0,0-1.88.69l-3.1,1.29q-1.65.69-3,1.32a7.71,7.71,0,0,0-1.57.85c-.22.17-.33.29-.34.39S148.58,363.52,148.81,363.41ZM146.39,351c.08.1.15,0,.2-.37s.2-1.15.45-2.42c.62-2.75,1.39-5.59,2.28-8.51s1.88-5.85,2.93-8.78,2.11-5.74,3.17-8.45,2-5.26,2.92-7.63c-.08-.11-.28.15-.59.76s-.68,1.37-1.11,2.28-.87,1.91-1.3,3-.83,2.12-1.19,3.07-.64,1.73-.83,2.32-.24.84-.13.76.17-.14.05,0-.21.24-.28.2-.13,0-.18.26,0,.26.16.11.11-.13.05,0-.13.23-.19.18-.21.14-.4.58-.37.88-.56,1.34a7.25,7.25,0,0,0-.37,1.18c-.06.31,0,.34.11.07.12,0,.13.06,0,.26a.83.83,0,0,1-.21.36c-.1.11-.11.07,0-.13s0-.21-.11-.07a.22.22,0,0,0,.07.35c.11.23.07.28-.1.16s-.19-.07,0,.14.16.37,0,.28-.26-.07-.18,0q-.41,1.18-1.23,3.81c-.54,1.76-1.07,3.6-1.58,5.54s-1,3.76-1.32,5.48A16.39,16.39,0,0,0,146.39,351ZM149,361.63c1-.49,1.91-.95,2.89-1.39s2-.91,3.16-1.44a45.49,45.49,0,0,1,7-2.69,41.36,41.36,0,0,0,6.21-2.27c-.22-.2-.81-.2-1.75,0a39.49,39.49,0,0,0-4.65,1.31q-2.88,1-5.69,2.07c-1.88.74-3.52,1.42-4.92,2.06a14.14,14.14,0,0,0-2.49,1.31.6.6,0,0,0,0,.56A1.68,1.68,0,0,0,149,361.63Zm.86-2.18-.35.07c-.11.08-.06.11.16.1S150,359.55,149.87,359.45Zm-4-19.12c.07-.26.24-.81.5-1.66l.85-2.73c.3-1,.57-1.92.82-2.82a14.51,14.51,0,0,1,.58-1.76q.28-.89.54-1.71c.16-.55.29-.93.37-1.13.09-.5.05-.54-.11-.11s-.4,1.1-.71,2-.64,2-1,3.13-.67,2.27-1,3.3-.52,1.89-.69,2.57S145.83,340.4,145.88,340.33Zm3-12.7a.15.15,0,0,0,.14-.21c.08-.25.1-.38.07-.38s-.07.06-.11.16a5.25,5.25,0,0,0-.17.54Zm.22-.77.18-.49c.08-.2.16-.4.25-.6a6.18,6.18,0,0,0,.23-.69q.36-1,.57-1.53a5.51,5.51,0,0,0,.31-1,3.63,3.63,0,0,0,.3-.57,4.09,4.09,0,0,0,.22-.54l.11-.39q-.13.3-.33.66a2.61,2.61,0,0,0-.3.84c-.41,1.05-.7,1.87-.89,2.46s-.37,1.1-.53,1.53S149,327.06,149.13,326.86Zm3-4.63a20.89,20.89,0,0,1,.8-2l1.29-3c.45-1,.83-2,1.16-2.79a5.53,5.53,0,0,0,.46-1.42q-1.4,3.19-2.19,5.24c-.54,1.35-1.05,2.63-1.55,3.83s-.79,1.92-.86,2.18a1.4,1.4,0,0,1-.2.41.24.24,0,0,0-.05.19A10.45,10.45,0,0,0,152.17,322.23Zm3.19,1.31a9.76,9.76,0,0,0,.38-.9,7.82,7.82,0,0,1,.44-1c.18-.34.35-.71.52-1.11l.78-1.9c.18-.46.33-.81.44-1a2.56,2.56,0,0,0,.15-.4s0,0-.1,0a4.69,4.69,0,0,0-.49,1c-.31.73-.66,1.53-1,2.4s-.7,1.63-.94,2.29S155.22,323.75,155.36,323.54Zm15.21,29.68c0,.12.11.16.26.14s.15-.09,0-.19-.11-.16-.26-.13S170.43,353.13,170.57,353.22Z"/><path class="cls-2" d="M178.82,312.65A77,77,0,0,1,184.9,306a11.23,11.23,0,0,1,5.5-3.09q3.36-.64,7.49,2.21a10.82,10.82,0,0,1,4.75,5.09,18.39,18.39,0,0,1,1.1,6.61c-.2,1.51-.4,2.8-.62,3.88s-.62,1.68-1.21,1.8a1.92,1.92,0,0,1-1.39-.56c-.31,0-.49-.05-.54-.17s0-.22.26-.32.14-.14.11-.16a.46.46,0,0,1-.13-.16.71.71,0,0,1-.06-.31,1.61,1.61,0,0,1,.3-.61,7.51,7.51,0,0,0,.61-3.23,19.08,19.08,0,0,0-.28-3.07,15.58,15.58,0,0,1-.23,2.34c-.16.95-.31,1.8-.47,2.57s-.29,1.32-.4,1.68-.17.23-.17-.38a5.12,5.12,0,0,0,.12-.8c0-.41.1-.83.17-1.27a8.77,8.77,0,0,0,.09-1.17,5.36,5.36,0,0,0,0-.59c0,.19-.08.54-.17,1s-.16,1-.24,1.56-.16,1-.22,1.47a3.45,3.45,0,0,1-.17.76,2,2,0,0,1-1.7-.72,3,3,0,0,1-.44-2.25c-.08-.72-.12-1.57-.13-2.55s-.05-1.91-.13-2.81a10.76,10.76,0,0,0-.45-2.3c-.22-.63-.53-.91-.94-.83a18.63,18.63,0,0,0-5.26,3.82,50.15,50.15,0,0,0-5.34,6.27,61.48,61.48,0,0,0-4.78,7.71,59.48,59.48,0,0,0-3.59,8.22,39.2,39.2,0,0,0-1.87,7.83,13.8,13.8,0,0,0,.52,6.41,1.47,1.47,0,0,0,1.13.15,8.35,8.35,0,0,0,3-1.55,40.68,40.68,0,0,0,3.75-3.12c1.29-1.2,2.55-2.45,3.76-3.75a44,44,0,0,0,3-3.52,11.8,11.8,0,0,0,1.47-2.35c.2-.53-.07-.63-.8-.3l-1.7.42c-1.08.27-2.25.55-3.51.82s-2.38.51-3.35.7-1.44.22-1.4.09c-.28-.19-.35-.32-.21-.37a.29.29,0,0,0,.16-.36c0-.05,0-.14.18-.26a3.5,3.5,0,0,1,.48-.37c.18-.13.36-.25.52-.38s.21-.17.15-.16a1.2,1.2,0,0,1,.22-.27c.05,0-.16,0-.63.07-1.32.14-1.52,0-.61-.34a5.85,5.85,0,0,1,2.7-1.21c1.39-.36,2.84-.72,4.33-1.07s2.84-.7,4.05-1.06,1.81-.75,1.79-1.18a6.6,6.6,0,0,0-1.64.28c-1.09.24-2.3.53-3.63.89s-2.6.7-3.79,1.05a12.46,12.46,0,0,0-2.18.79c-.5.28-.83.37-1,.25a3.51,3.51,0,0,0-.75-.36c-.3.06-.41,0-.34-.3s0-.43-.19-.52a1.9,1.9,0,0,1,.32-2.35,8.38,8.38,0,0,1,2.85-1.61,29.45,29.45,0,0,1,4.4-1.18c1.68-.32,3.31-.67,4.89-1,1.78-.28,3.37-.58,4.78-.88a14.23,14.23,0,0,1,3.59-.38,3,3,0,0,1,2.2.91,4.21,4.21,0,0,1,.57,2.95c.09.17,0,.3-.15.4a1.85,1.85,0,0,1-.7.18,7.42,7.42,0,0,1-.82,0,2.94,2.94,0,0,0-.59,0c-.07.26,0,.4.31.44a5.94,5.94,0,0,0,1,0,7.61,7.61,0,0,1,.88,0c.22,0,.19.14-.07.37a1,1,0,0,1-.55.48c-.28.11-.38.23-.3.33s.26.08.53-.1.53-.17.58-.11,0,.31-.17.76a3.36,3.36,0,0,1-.83,1.17,4,4,0,0,1-.75.42,2,2,0,0,0-.74.65,6.11,6.11,0,0,0-.74,1.84q-.93,2.3-1.71,4.41c-.52,1.42-1,2.87-1.4,4.36s-.79,3.08-1.13,4.8-.7,3.65-1.07,5.8a4.62,4.62,0,0,1-.34,1.35c-.18.46-.4.72-.63.76a.51.51,0,0,1-.49-.17c-.23-.21-.3-.67-.22-1.38a9,9,0,0,1,.22-1.47q-.09,0-.45.78c-.24.5-.42.77-.53.79s-.18.11-.22.09a1.23,1.23,0,0,1-.05-.5c0-.85-.06-1.36-.07-1.54s0-.21-.06-.08-.25.29-.35.07-.25-.17-.43.17-.56.23-1.13-.15a6.69,6.69,0,0,0-1.33-.75,10.93,10.93,0,0,1-.23-1.65,1.81,1.81,0,0,0-.17-.84c-.08-.1-.25-.05-.52.15a13,13,0,0,0-1.3,1.31,26.29,26.29,0,0,1-3.66,3.32,9.56,9.56,0,0,1-3.87,1.81,5,5,0,0,1-3.4-.53,7.35,7.35,0,0,1-2.9-3.56,13.14,13.14,0,0,1-3.88-5.58,19.38,19.38,0,0,1-1.05-6.85,30.69,30.69,0,0,1,1.1-7.55,58.37,58.37,0,0,1,2.6-7.61,68.39,68.39,0,0,1,3.47-7.14Q177.11,315.19,178.82,312.65Zm-5.28,22.85a86.62,86.62,0,0,1,6.09-14.2,51.1,51.1,0,0,1,8.56-11.84c.56-.6.76-.89.62-.86a4.6,4.6,0,0,0-1.16.87,27.09,27.09,0,0,0-4.84,5.3,61.2,61.2,0,0,0-4.68,7.51,58.39,58.39,0,0,0-3.6,8.12,28.65,28.65,0,0,0-1.7,7.07c.08-.2.16-.4.25-.6s.16-.41.24-.64S173.47,335.76,173.54,335.5Zm.45,2.75a80.86,80.86,0,0,1,3.42-9.74,73.87,73.87,0,0,1,4.64-9.15,31.93,31.93,0,0,0-2.66,4.23c-.9,1.67-1.72,3.39-2.48,5.16s-1.42,3.5-2,5.19a36.21,36.21,0,0,0-1.2,4.45,6,6,0,0,0-.17,1.23A9.82,9.82,0,0,0,174,338.25Zm6.7,14.66c.49-.28,1.23-.75,2.2-1.4a25.17,25.17,0,0,0,2.91-2.26,20.83,20.83,0,0,0,2.58-2.75,6,6,0,0,0,1.34-2.78q-.89,1.09-2.25,2.55c-.92,1-1.85,1.9-2.81,2.79s-1.87,1.7-2.74,2.41a9.23,9.23,0,0,1-2.15,1.43c-.44.27-.66.45-.67.54s.07.13.24.09A3.94,3.94,0,0,0,180.69,352.91Zm1.4,1.1a21.76,21.76,0,0,0,3.42-2.5,18.4,18.4,0,0,0,2.93-3.05q.21-.31.3-.33c0-.06,0-.09.08-.1l-1.94,1.84c-1,1-1.87,1.75-2.53,2.28a29.08,29.08,0,0,1-2.47,1.72c-.77.45-1.11.7-1,.75S181.33,354.46,182.09,354Zm-2.75-28.81a84.81,84.81,0,0,1,7.85-12c.14-.21,0-.12-.5.28a13,13,0,0,0-1.71,2.07c-.77,1.07-1.55,2.24-2.34,3.53s-1.51,2.51-2.17,3.67A10.76,10.76,0,0,0,179.34,325.2Zm5.7,26c.15-.15.45-.42.89-.81a16.62,16.62,0,0,0,1.35-1.32c.46-.48.86-.93,1.21-1.33s.52-.64.51-.7a3,3,0,0,0-.79.66l-1.3,1.35c-.45.49-.87.95-1.24,1.39ZM185,330.16l-.53.1c-.06,0-.06,0,0,.05a.68.68,0,0,0,.28,0,1.05,1.05,0,0,0,.3-.1C185.11,330.15,185.09,330.14,185,330.16Zm1.37-.45-.7.14c-.12,0-.13,0,0,0a1.62,1.62,0,0,0,.41,0,1.34,1.34,0,0,0,.39-.13Q186.53,329.68,186.35,329.71Zm1.74-.52-.71.14c-.12,0-.13,0,0,.05a1.55,1.55,0,0,0,.4,0,1.34,1.34,0,0,0,.39-.13C188.22,329.18,188.21,329.17,188.09,329.19Zm5.4,19.3a5.75,5.75,0,0,1,.25-1.29c.2-.73.4-1.51.61-2.31s.37-1.48.48-2,0-.64-.2-.28A5.73,5.73,0,0,0,194,344a26.66,26.66,0,0,0-.64,3.29c-.34,2-.46,3-.34,3S193.3,349.69,193.49,348.49Zm.35,4.15c.06,0,.12-.24.19-.68s.16-1,.28-1.61.39-1.6.67-2.7.58-2.25.93-3.48.7-2.5,1.08-3.83.77-2.58,1.15-3.76c.18-.64.18-.79,0-.45a18.59,18.59,0,0,0-.81,2,19.79,19.79,0,0,0-1.1,3.05c-.43,1.43-.83,2.91-1.2,4.45s-.69,3-.95,4.31A8.68,8.68,0,0,0,193.84,352.64Zm5.22-18.43c-.06-.3-.15-.23-.29.19a2.35,2.35,0,0,0-.16.81,4,4,0,0,0,.3-.56A1.16,1.16,0,0,0,199.06,334.21Zm-.19-3.82a.24.24,0,0,0,.21-.31c-.05-.24-.13-.34-.25-.32a.45.45,0,0,0-.28.19.33.33,0,0,0,0,.33C198.57,330.39,198.69,330.43,198.87,330.39Zm3.54,1.24-.36.07q-.24.14.15.06C202.47,331.71,202.54,331.67,202.41,331.63Zm-1.48-10.44c0,.12.12.13.28,0a1.16,1.16,0,0,0,.44-.55,30.14,30.14,0,0,0,.44-3.15,12,12,0,0,0-.06-3.43,9.6,9.6,0,0,1-.08,1.53c-.06.59-.13,1.19-.2,1.78s-.14,1.14-.23,1.65-.13.88-.15,1.13c.13,0,.06.2-.22.5S200.8,321.16,200.93,321.19Z"/><path class="cls-2" d="M204.31,341.44c.18-2.54.52-5.76,1-9.64s1.18-7.84,2-11.86a106.22,106.22,0,0,1,3.1-11.38,27,27,0,0,1,4.17-8.28,9.43,9.43,0,0,1,1.61-.68c.52-.16,1-.29,1.57-.4a10.68,10.68,0,0,1,5.28.26,12.82,12.82,0,0,1,4.57,2.55,16.85,16.85,0,0,1,3.48,4.18,16.62,16.62,0,0,1,2,5.26,13.73,13.73,0,0,1,0,5.64,15.8,15.8,0,0,1-2.1,5,26.24,26.24,0,0,1-3.67,4.47,45.53,45.53,0,0,1-4.64,4,39,39,0,0,0,4.52,2.75,36.16,36.16,0,0,0,5.49,2.32,34,34,0,0,0,5.73,1.36,15.35,15.35,0,0,0,5.21-.05,10.3,10.3,0,0,1,1.58-.35,2.6,2.6,0,0,1,1.3.76.49.49,0,0,1-.14.48,2.06,2.06,0,0,1-.59.48,2.53,2.53,0,0,0-.68.55c0,.13-.32.32-.85.57l-1.13.54a5.9,5.9,0,0,1-2,2.28,8.49,8.49,0,0,1-3.07,1.19,17,17,0,0,1-6.35-.09,41,41,0,0,1-13-4.81,17.47,17.47,0,0,1-4-3,3.75,3.75,0,0,0-.79-.76,1.12,1.12,0,0,1-.34-.3,5.47,5.47,0,0,0-.46,1.42c-.24.93-.5,2.07-.76,3.4s-.52,2.73-.79,4.19-.47,2.72-.63,3.79c-.24,1.94-.59,3-1.06,3.05-.24,0-.48-.09-.72-.41a39,39,0,0,1,.84-6.77q.69-3.24,1.32-7.13c.31-1.83.5-3,.56-3.46s0-.75-.12-.84-.23.47-.48,1.56-.51,2.4-.78,4-.55,3.18-.8,4.88-.45,3.11-.59,4.24a9.75,9.75,0,0,1-.39,2.05c-.2.68-.37,1-.51.88a20,20,0,0,1,.23-4.22q.38-2.6.91-5.49t1-5.71c.34-1.87.57-3.45.68-4.76-.19-.33-.39-.2-.61.39a17.91,17.91,0,0,0-.66,2.52c-.22,1.08-.41,2.31-.57,3.68s-.32,2.66-.48,3.86-.33,2.63-.5,4.31c-.11,1-.22,1.89-.35,2.68s-.23,1.1-.32.93-.17-.1-.27,0a.46.46,0,0,0-.1.43c.06.3,0,.34-.25.14a12.14,12.14,0,0,1-1.55-.66,1.63,1.63,0,0,1-.79-1,6.61,6.61,0,0,1-.26-1.83C204.33,343.74,204.32,342.72,204.31,341.44Zm3.17-12c.17-.7.35-1.61.53-2.71s.35-2.07.49-2.9a24.18,24.18,0,0,0,.5-3.12l-.33,1.17c-.21.77-.47,2-.77,3.58s-.59,3.31-.89,5.08-.54,3.45-.72,5.05-.28,2.76-.32,3.5a11.56,11.56,0,0,0,.38-1.82c.13-.88.27-1.82.41-2.83s.27-2,.4-2.92S207.39,329.9,207.48,329.45Zm2.67-7c.08.11.15,0,.19-.22s0-.37,0-.36-.14,0-.19.18S210.08,322.38,210.15,322.42Zm-.48-2.47c.08.11.17,0,.25-.37s.1-.52,0-.51-.17,0-.25.37S209.61,320,209.67,320Zm2.27,5.52c.25-.9.6-2.21,1.07-3.92s.92-3.5,1.39-5.36.88-3.62,1.26-5.29.62-2.87.72-3.62c-.34.13-.69.62-1,1.48s-.72,1.92-1.09,3.15-.72,2.58-1,4-.65,2.91-1,4.31-.57,2.67-.78,3.78-.39,1.95-.52,2.53c.09-.14.25-.36.47-.65S211.82,325.49,211.94,325.47Zm-1.37-5.14c.07,0,.15-.09.24-.42s.1-.48.05-.46-.17,0-.26.32S210.5,320.28,210.57,320.33Zm1.15-.23c.06,0,.12-.14.19-.4a2.58,2.58,0,0,0,.09-.48c-.08-.1-.16,0-.25.33S211.65,320.06,211.72,320.1Zm1.65,3.81c.07,0,.1.16.07.35s-.1.26-.23.23-.19-.06-.16.12.26.33.44.14a1.42,1.42,0,0,0,.34-.84q.49-2.67,1-4.74c.38-1.39.72-2.68,1-3.87s.61-2.29.87-3.29a21.12,21.12,0,0,0,.57-3c-.08,0-.23.32-.48,1.1s-.54,1.77-.89,3-.69,2.48-1,3.83-.68,2.59-1,3.72-.51,2-.63,2.64S213.23,324.12,213.37,323.91Zm4.11,4.61c.05-.07,0-.15-.14-.25s-.34-.09-.2.13S217.38,328.66,217.48,328.52ZM216.13,323c0,.12.39-.12,1.1-.71s1.46-1.25,2.24-2a51.81,51.81,0,0,0,4.85-5.71,9.64,9.64,0,0,0,2-6.34,2.43,2.43,0,0,0-1.38-.52,8.33,8.33,0,0,0-1.78.07c-.62.09-1.23.2-1.82.31l-1.59.31c0,.19-.21,1-.57,2.45s-.76,3-1.19,4.73-.83,3.29-1.19,4.76S216.2,322.75,216.13,323Zm6.59,12.66a16.4,16.4,0,0,0,2.32,1.11q1.4.56,2.82,1.05a17.28,17.28,0,0,0,2.76.75,16.1,16.1,0,0,0,2.16.27,22.39,22.39,0,0,1-3.55-1.28c-1.27-.58-2.54-1.18-3.79-1.79s-2.45-1.22-3.6-1.82-2.14-1.1-3-1.49c-.36.07-.43.24-.23.5a4.07,4.07,0,0,0,1,.86l1.61,1Q222.2,335.3,222.72,335.66Zm-2.66-1,1.65,1c.35.24.7.46,1,.67s.51.25.48.13c-.63-.42-1.15-.75-1.56-1l-1.13-.6C220.21,334.71,220.05,334.65,220.06,334.71Zm1.05-8.27a33.36,33.36,0,0,0,2.92-2.18,23.91,23.91,0,0,0,2.9-2.8,17,17,0,0,0,2.22-3.19,7.4,7.4,0,0,0,.92-3.29l-.29.42c-.09.14-.18.3-.27.47s-.21.36-.35.57a23.94,23.94,0,0,1-3.52,4.76,42.24,42.24,0,0,1-4.86,4.48,6.78,6.78,0,0,0-1.61,1.41c-.16.27-.09.38.2.33A4.42,4.42,0,0,0,221.11,326.44Zm4.22,8.53c-.09-.17-.1-.24,0-.22a1,1,0,0,1,.26.13,1.58,1.58,0,0,1,.22.19c0,.05,0,.06-.14,0s-.26,0,0,.19.43.22.52.08.21-.13.33,0,.09.2-.11.11,0,0,.31.22.5.21.48.09a11.16,11.16,0,0,0,1.3.57c.73.29,1.55.57,2.46.85s1.78.52,2.62.73a4.84,4.84,0,0,0,1.69.22c.12,0-.34-.15-1.36-.38s-2.27-.73-3.49-1.2-2.42-1-3.6-1.55l-3.43-1.62c-1.11-.52-2.07-1-2.9-1.45l.91.64c.53.39,1.1.79,1.7,1.19s1.13.74,1.61,1S225.37,335.14,225.33,335Zm-2.44,2.49c.26.13.5.24.7.32s.29.1.28,0a6,6,0,0,1-1-.54l-1.09-.43C222.24,337.13,222.61,337.33,222.89,337.46Zm-.22-9.59a8.53,8.53,0,0,0,1.69-1.24c.83-.71,1.65-1.47,2.44-2.26s1.46-1.49,2-2.08.63-.8.3-.61c-1,1-1.83,1.84-2.58,2.56a23.28,23.28,0,0,1-2.15,1.89c-.69.53-1.33,1-1.92,1.43l-1.78,1.26a.54.54,0,0,0,.55,0A12.05,12.05,0,0,0,222.67,327.87Zm5.25,12.83c-.26-.07-.64-.2-1.13-.38l-1.53-.53-1.52-.52a12,12,0,0,1-1.14-.47,3.54,3.54,0,0,0,1.07.57l1.74.72a9.72,9.72,0,0,0,1.67.54C227.59,340.75,227.87,340.77,227.92,340.7Zm-11.18-34.87c0-.05-.09-.07-.24,0s-.21.1-.19.22.12.13.29,0S216.81,305.88,216.74,305.83Zm0-.74c.11,0,.24-.14.39-.35s.27-.3.19-.4-.22,0-.42.17a.72.72,0,0,0-.33.43C216.6,305.06,216.66,305.11,216.78,305.09Zm8.66,32.79a9,9,0,0,0,2,.72,9.31,9.31,0,0,0,1.26.35q.38.06-.12-.12l-1.39-.55c-.53-.2-1-.37-1.43-.5s-.9-.3-1.42-.51A12.21,12.21,0,0,0,225.44,337.88Zm5.33-19.74a9.87,9.87,0,0,1,.26-1.06c.14-.51.18-.77.12-.76l-.14.22a2.47,2.47,0,0,1-.32.7,13.88,13.88,0,0,1-3,4.79c-1.16,1.14-2.32,2.32-3.49,3.52-1,.87-1.4,1.28-1.23,1.25a5.2,5.2,0,0,0,1.69-1.24c.82-.77,1.69-1.65,2.61-2.62a33.19,33.19,0,0,0,2.42-2.86A4.05,4.05,0,0,0,230.77,318.14Zm-7-11-.53.11c-.16.09-.07.1.29,0S224,307.15,223.77,307.12Zm2.84,10.36.29-.42c.13-.27.18-.4.15-.4s-.08.07-.15.17l-.21.36A.63.63,0,0,0,226.61,317.48Zm9,1.18q1-2.4,2.61-6.42c1.06-2.68,2.23-5.34,3.49-8a52,52,0,0,1,4-7c1.39-2,2.72-3.14,4-3.39a2.75,2.75,0,0,1,2.75,1.39c-.15.21-.16.35-.06.42s.09.22,0,.43,0,.12.26-.05a6.31,6.31,0,0,1,.65-.68c.18-.16.24.2.16,1.07a4,4,0,0,0-.06.61s.08-.06.22-.27a3.85,3.85,0,0,1,.43-1.1c.06,0,.14.1.24.32a3.36,3.36,0,0,0,.72.87,4.73,4.73,0,0,1,1.61,1.66,6.51,6.51,0,0,1,.51,2.65c0,1.18,0,2.77,0,4.77s-.07,4.67-.08,8a29.9,29.9,0,0,0-.18,3.83c0,1.62,0,3.38.06,5.26s.07,3.8.11,5.72,0,3.65,0,5.22-.1,2.86-.2,3.89-.28,1.57-.52,1.61q-.09,0-.33-.3c-.23-2.15-.41-4.84-.51-8.06s-.18-6.55-.2-10,0-6.79,0-10,0-6-.09-8.24c0-1.41,0-2.4,0-3s-.06-.86-.12-.85a3.73,3.73,0,0,0-.22,1.23c-.09.82-.14,1.73-.15,2.74s0,2,0,2.89a11.81,11.81,0,0,0,.08,1.82c-.14-.09-.21-.12-.2-.1s.07.19.18.47.08.57,0,.46-.14.06,0,.46a1.09,1.09,0,0,1,.13.43q0,.11-.15-.06c-.14-.09-.14.06,0,.46s.16.43.13.43-.08,0-.15-.06-.12-.07-.14-.06,0,.12.11.34.19.52,0,.55-.1.17,0,.45.16.43.05.45-.13.15,0,.37.11.45,0,.5-.14.23-.08.53c0,1.71,0,3.76.09,6.12s.19,4.75.29,7.14.18,4.69.23,6.88a27.69,27.69,0,0,1-.25,5.27c-.11.39-.22-.08-.32-1.4s-.2-3.14-.28-5.45-.17-4.93-.25-7.88-.13-5.87-.15-8.77,0-5.6-.06-8.11,0-4.45,0-5.86l-.86,1.26a3.88,3.88,0,0,0-.27,1.89c-.08,1.18-.08,2.74,0,4.68s.17,4,.29,6.22.26,4.49.42,6.84.27,4.55.36,6.58.15,3.79.2,5.28a29.72,29.72,0,0,1,0,3.17c0-.25-.06-.25-.23,0s-.18.42,0,.52,0,.25-.38.12-.74-.24-.94-.32a2.74,2.74,0,0,1-1.45-2.06,24.16,24.16,0,0,1-.7-3.85q-.24-2.16-.36-4.2a14.43,14.43,0,0,0-.38-2.9c-.95.18-2,.42-3.12.7s-2.19.56-3.14.84-1.73.52-2.33.72-.85.31-.73.28a5.89,5.89,0,0,0-.72,1.24l-1.22,2.44a25.77,25.77,0,0,1-1.37,2.42c-.47.73-.85,1.13-1.14,1.19s-.38-.08-.44-.38c-.14-.09-.17-.24-.09-.44l.33-.7a4.46,4.46,0,0,1,.49-.79,1.86,1.86,0,0,0,.34-.57,4.13,4.13,0,0,0-1.05.94,2.81,2.81,0,0,1-1,.83,8.64,8.64,0,0,1,.6-1.63c.31-.63.65-1.31,1-2a21.08,21.08,0,0,0,1-2.07,4,4,0,0,0,.34-1.8c-.08-.11,0-.18.14-.22a.34.34,0,0,0,.3-.33c0-.06,0-.15.18-.26l.31-.29a.25.25,0,0,0,.1-.21s-.14-.06-.37,0-.34.05-.32,0a1,1,0,0,1,.2-.17l.27-.24c.08-.08.06-.1-.06-.08s-.39.26-.65.68a31.23,31.23,0,0,0-1.44,3.21c-.68,1.54-1.16,2.61-1.43,3.21s-.44.85-.46.73,0-.35.19-.91.26-.86.19-.9-.09,0-.2.36-.23.7-.35,1a3.63,3.63,0,0,1-.36.76c-.12.17-.19,0-.23-.47,0-.17-.06-.24-.08-.21a.82.82,0,0,0-.1.21.45.45,0,0,1-.23.22c-.12.06-.25,0-.42-.24a2.76,2.76,0,0,1-.71-1.78,7.34,7.34,0,0,1,.51-2.35c.33-.95.79-2.12,1.37-3.52S234.9,320.82,235.64,318.66Zm4.14,5.25c.09-.14,0-.13-.27,0s-.37.29-.3.33c-.07.26,0,.27.29,0S239.85,324,239.78,323.91ZM240,320a29.77,29.77,0,0,0,2.1-3.8q1.11-2.32,2.13-4.63c.68-1.54,1.27-2.89,1.78-4.06a10.21,10.21,0,0,1,1.06-2.09q1.32-2.64,1.11-3.24c-.07-.05-.38.41-.92,1.37s-1.2,2.18-2,3.64-1.53,3-2.34,4.67-1.51,3.15-2.11,4.49a21.15,21.15,0,0,0-1.18,3.12C239.51,320.22,239.62,320.4,240,320Zm4.95,4.26a17.62,17.62,0,0,1,2.83-.78,2.39,2.39,0,0,0,1.49-.61c0-.06-.38,0-1.11.22s-1.53.43-2.43.7l-2.59.78c-.84.25-1.42.44-1.73.56s-.23.14.24.05S243.25,324.79,245,324.27Zm.93-1.83c2.39-.59,3.53-1,3.42-1.3s-1.47,0-4.07.79a20.78,20.78,0,0,0-2.54.85,1.28,1.28,0,0,0-.73.7l0,.09c.53-.11,1.05-.24,1.57-.4Zm-3.09-5.08a14.57,14.57,0,0,1,.82-1.9c.56-1.21,1.17-2.49,1.82-3.84s1.2-2.49,1.62-3.43.5-1.2.22-.78-.77,1.45-1.5,2.9-1.5,3.06-2.32,4.81c-.8,1.56-1.33,2.67-1.6,3.34s-.34,1-.22,1A8.45,8.45,0,0,0,242.82,317.36Zm1.88.73c.1.23.48.18,1.12-.12a4.93,4.93,0,0,1,1.69-.52l1.4-.36a10.65,10.65,0,0,1-.15-1.48l-.1-1.91c0-.64-.09-1.22-.16-1.76a2.76,2.76,0,0,0-.23-1q-.08.11-.6,1.17c-.35.71-.75,1.49-1.19,2.34s-.85,1.65-1.19,2.39S244.75,318,244.7,318.09Zm3.13,4.8-.53.11c-.11,0-.13,0,0,.05a.9.9,0,0,0,.32,0,1,1,0,0,0,.3-.1C248,322.88,248,322.87,247.83,322.89Zm2.48-6.62c.09.47.15.57.19.28a7.63,7.63,0,0,0-.08-1.59,10.4,10.4,0,0,1-.13-1.58c0-.7,0-1.41,0-2.14s-.05-1.4-.11-2a3.56,3.56,0,0,0-.22-1.15,4.45,4.45,0,0,0,0,1.2c0,.74,0,1.56.06,2.47s.08,1.8.16,2.67A17.74,17.74,0,0,0,250.31,316.27Zm2.81,12.11-.07-.36q-.15-.24-.06.15C253,328.44,253.08,328.51,253.12,328.38Zm0-1.1-.11-.53c-.1-.22-.12-.16,0,.19S253.05,327.41,253.09,327.28Zm-.3-3,.05.27c.08.41.12.49.14.25A.56.56,0,0,0,252.79,324.31Zm-1.29-16.52-.09-.45c-.14-.09-.18,0-.13.26S251.4,307.93,251.5,307.79Zm.91-2.84-.08-.44c-.08-.11-.1,0-.05.23S252.38,305.08,252.41,305Z"/><path class="cls-2" d="M265.54,306.43a58,58,0,0,0,1.91-5.5c.57-1.95,1.16-3.77,1.77-5.48a43.05,43.05,0,0,1,1.92-4.55,5.38,5.38,0,0,1,2.33-2.61,2.78,2.78,0,0,1,1.38.47,5.43,5.43,0,0,0,.93.55c.28-.11.35,0,.22.42s-.13.54,0,.45a.48.48,0,0,1,.7.28.85.85,0,0,0,.57.57c.25.08.4.17.42.29s.17.27.45.46a1.29,1.29,0,0,1,.51.73,1.3,1.3,0,0,0,.6.71,1.34,1.34,0,0,1,.73.95c.09.42.12.53.12.35a.43.43,0,0,1,.15-.4c.06,0,.08-.07,0-.19s.05-.07.21.14a6.34,6.34,0,0,1,.53.81c.19.33.36.67.52,1a4.06,4.06,0,0,0,.35.67c.07,1,.19,2.22.37,3.78s.36,3.2.55,4.93.4,3.5.66,5.28.49,3.39.7,4.82.42,2.61.6,3.55a7.39,7.39,0,0,0,.4,1.57q.63-2,1.52-4.92c.59-2,1.21-4.14,1.86-6.46s1.31-4.75,2-7.26,1.27-4.94,1.8-7.27.94-4.51,1.25-6.53a31.17,31.17,0,0,0,.44-5,8.45,8.45,0,0,1,.13-2.4c.15-.64.4-1,.76-1.07s.63.12,1,.54c0,.23.11.25.19.05.17-.4.29-.48.36-.25s.17.33.29.31.35-.13.39.11.32.36.42.28.22,0,.34.3a2.1,2.1,0,0,0,.63.66,1,1,0,0,1,.44.6.5.5,0,0,0,.49.41.71.71,0,0,1,.56.3,3.41,3.41,0,0,1,.3.59,6.41,6.41,0,0,0,.31.67,5,5,0,0,0-.15-.57c-.08-.25-.13-.44-.16-.56a7.68,7.68,0,0,1,2.21,4.29,17,17,0,0,1-.19,5.63c-.38,2.12-.95,4.53-1.71,7.21s-1.56,5.7-2.37,9q-1.86,6-3,10.26t-2.11,7.29a42.73,42.73,0,0,1-2.1,5.49,29.68,29.68,0,0,1-3,5c-.12,0-.29-.13-.5-.45a2.59,2.59,0,0,1-.4-.84c0-.18-.16-.21-.38-.11a.32.32,0,0,1-.3-.08,4.79,4.79,0,0,1-.39-.61q-.33-.76-.57-.81a1.81,1.81,0,0,1-.68-.42c-.62-.06-1.26-.58-1.9-1.55a20.35,20.35,0,0,1-1.85-3.63c-.59-1.45-1.16-3-1.71-4.76s-1-3.42-1.49-5.07-.83-3.19-1.17-4.59-.59-2.45-.79-3.14l-.49-2.52c-.13-.68-.23-1-.29-1q-.69,1.6-1.68,4.54c-.66,2-1.37,4.14-2.13,6.51s-1.5,4.86-2.22,7.45-1.37,5.05-1.95,7.39-1.06,4.47-1.42,6.38a32.56,32.56,0,0,0-.61,4.42,5.21,5.21,0,0,0,0,1.94,18.71,18.71,0,0,1,.19,1.93,2.59,2.59,0,0,1-.32,1.44c-.23.38-.75.55-1.55.53-.06,0-.1-.09-.14-.3s-.11-.43-.19-.69-.15-.48-.21-.65-.13-.25-.19-.24c-.44.27-.76-.16-1-1.27a2.65,2.65,0,0,0-.25-.83.94.94,0,0,0-.33-.3l-.45-.19a3.08,3.08,0,0,1-.79-.53,4.83,4.83,0,0,1-1.81-3.64,25.55,25.55,0,0,1,.11-6.25,67.42,67.42,0,0,1,1.47-7.76q1-4.14,2.14-8.12T264,312Q265,308.54,265.54,306.43Zm.06,24.84c0-.13.22-.76.55-1.9s.68-2.38,1.06-3.73l1.05-3.78a11.44,11.44,0,0,1,.63-2c.38-1.17.83-2.48,1.34-3.93s1-2.94,1.61-4.48,1.07-3.07,1.54-4.57.86-2.88,1.16-4.16c0-.18-.12-.16-.26.05a8.68,8.68,0,0,0-.68,1.69c-.63,1.47-1.36,3.41-2.17,5.83s-1.61,4.93-2.39,7.52-1.48,5.1-2.11,7.52S265.85,329.75,265.6,331.27Zm1.1-8.93a43.89,43.89,0,0,1,1.51-5q1.11-3.19,2.36-6.7c.83-2.33,1.61-4.56,2.32-6.68a25.68,25.68,0,0,0,1.28-5,3.47,3.47,0,0,0-.15-1.26q-.82,1.9-1.89,5.14t-2.21,6.8q-1.14,3.57-2.11,7.06t-1.6,5.9a26.83,26.83,0,0,0-.64,3.33Zm-.59-11.07q1.72-5.75,3.49-10.58c1.18-3.22,2.08-5.87,2.72-7.95a13.35,13.35,0,0,0-1,2.26q-.68,1.74-1.5,4.05T268.08,304q-.87,2.59-1.57,4.89c-.46,1.52-.85,2.84-1.16,3.93a11.6,11.6,0,0,0-.46,2.11,3.54,3.54,0,0,0,.43-1.09C265.55,313.09,265.81,312.25,266.11,311.27Zm.62,5.56q.25-.58.69-1.92c.28-.88.58-1.8.88-2.78s.6-1.93.9-2.88.56-1.71.75-2.3.46-1.39.81-2.4.73-2.1,1.12-3.25.76-2.21,1.12-3.19a19.85,19.85,0,0,0,.68-2.15,12.27,12.27,0,0,0-1,2.21c-.43,1.12-.88,2.4-1.37,3.84l-1.53,4.6c-.54,1.64-1,3.17-1.49,4.6s-.83,2.67-1.11,3.7A15.33,15.33,0,0,0,266.73,316.83Zm21.79-.2q2.81-9.61,4.78-17.38a89.72,89.72,0,0,0,2.48-13.18q0-.09-.18.72c-.11.54-.24,1.22-.38,2q-.57,3.23-1.71,7.75c-.75,3-1.58,6.18-2.46,9.47s-1.79,6.53-2.7,9.74-1.7,6-2.38,8.48c0,.18.24-.31.63-1.45S287.63,319.62,288.52,316.63Zm-1.43,12c.07-.26.17-.55.29-.88a5.9,5.9,0,0,1,.33-.89,8.2,8.2,0,0,0,.39-1.09q1.41-4.49,3-9.71t3-10.48q1.39-5.27,2.51-10.21a73.44,73.44,0,0,0,1.47-8.67c-.42,2.83-1.11,6.16-2,10s-2,7.68-3.07,11.59-2.19,7.67-3.26,11.27S287.78,326.19,287.09,328.65Zm1.16,1.7q.64-1.87,1.74-5.2t2.37-7.38q1.27-4,2.54-8.61t2.29-8.74c.68-2.79,1.2-5.39,1.56-7.78a27.51,27.51,0,0,0,.38-5.85c-.23,1.64-.61,3.57-1.12,5.81s-1.07,4.64-1.67,7.2-1.27,5.19-2,7.86-1.47,5.29-2.2,7.81-1.45,4.88-2.15,7.07-1.35,4-1.91,5.55a4.65,4.65,0,0,0-.55,2.08c0,.7.06,1,.24,1S288.1,330.87,288.25,330.35Zm.87,2.12a32.51,32.51,0,0,0,1.5-4.05q1.1-3.33,2.53-8t2.9-10.05q1.49-5.39,2.66-10.15t1.78-8.32c.39-2.37.45-3.92.19-4.67a40.8,40.8,0,0,1-.85,4.84q-.75,3.45-1.85,7.93t-2.42,9.5q-1.31,5-2.68,9.55t-2.52,8a29.82,29.82,0,0,1-2,4.92c-.32.55-.36.91-.11,1.08S288.8,333,289.12,332.47Zm-.63-.43c.09-.14.17-.18.24-.14s0,.14-.22.28S288.28,332.27,288.49,332Zm.65,2.44a.16.16,0,0,0-.21-.14c-.12,0-.1.11.05.27S289.19,334.72,289.14,334.48Z"/><path class="cls-2" d="M309,286.79a13.71,13.71,0,0,1,4.4-5.21,15.37,15.37,0,0,1,6.23-2.81,10.43,10.43,0,0,1,3.89-.07,7.27,7.27,0,0,1,3.38,1.59q2.34,1.65,3.63,2.64a12.08,12.08,0,0,1,2.08,2,7.45,7.45,0,0,1,1.21,2.24q.43,1.25,1,3.51a24.31,24.31,0,0,1,.12,7.45,48.77,48.77,0,0,1-2,8.95,66.57,66.57,0,0,1-3.7,9.25,48.73,48.73,0,0,1-5.05,8.22,30.6,30.6,0,0,1-6.11,6.09,13.19,13.19,0,0,1-6.71,2.73,6.5,6.5,0,0,1-2.1-1.38c-.61-.58-1.18-1.19-1.73-1.82a2.19,2.19,0,0,0-.83-.71c-.37-.2-.78-.4-1.21-.59a10.59,10.59,0,0,1-1.17-.59,2.14,2.14,0,0,1-.8-.81,23.62,23.62,0,0,1-2.76-10,43.94,43.94,0,0,1,.71-11,60.25,60.25,0,0,1,3.07-10.64A61.84,61.84,0,0,1,309,286.79Zm-2.89,25.69a31.07,31.07,0,0,1,.83-4.66c.45-1.8,1-3.65,1.54-5.57s1.19-3.74,1.86-5.5,1.28-3.22,1.84-4.43c-.85.34-1.66,1.36-2.43,3a35.52,35.52,0,0,0-2,5.66,63.17,63.17,0,0,0-1.36,6.22c-.33,2.06-.54,3.67-.61,4.85a10,10,0,0,0,0,2.2A8.16,8.16,0,0,0,306.14,312.48Zm1.61-1.14a50.34,50.34,0,0,1,1.21-5.56c.51-1.8,1-3.48,1.5-5s1-2.86,1.38-4,.74-2,.93-2.56a31.07,31.07,0,0,0-2.18,4.59,59.2,59.2,0,0,0-1.89,5.64c-.53,1.94-1,3.87-1.3,5.8a33.35,33.35,0,0,0-.52,5.1c0,1,0,1.37.09,1.17a10,10,0,0,0,.2-1.32c.08-.69.18-1.44.3-2.26A14.72,14.72,0,0,1,307.75,311.34Zm2.68,12.86a17.86,17.86,0,0,0,3.42-2.68,31.83,31.83,0,0,0,3.45-4,47,47,0,0,0,3.2-5,50,50,0,0,0,2.72-5.61q.5-1.2,1.23-3.36t1.34-4.66c.4-1.67.75-3.36,1-5.06a21.41,21.41,0,0,0,.31-4.55,6.12,6.12,0,0,0-.89-3.13,2.18,2.18,0,0,0-2.45-.81,7,7,0,0,0-2.05.76,3.58,3.58,0,0,0-.7.42.39.39,0,0,0-.06.37,2.09,2.09,0,0,1-.3,1.53q-.45.73-1,.66a24.76,24.76,0,0,0-4.09,5.38,42.76,42.76,0,0,0-3.19,6.9,62.39,62.39,0,0,0-2.24,7.58,63.67,63.67,0,0,0-1.29,7.54,14.65,14.65,0,0,1-.09,2.13c-.09.93-.14,1.86-.15,2.78a12.19,12.19,0,0,0,.19,2.35c.12.65.42.92.89.83A1.85,1.85,0,0,0,310.43,324.2Zm5.57,2.68a28.13,28.13,0,0,0,4.13-4,51.27,51.27,0,0,0,4-5.26,55,55,0,0,0,3.51-6.19,49.69,49.69,0,0,0,2.7-6.66,37.31,37.31,0,0,0,1.5-6.67,24.6,24.6,0,0,0,0-6.24,43.65,43.65,0,0,1-1.7,9.64,66.27,66.27,0,0,1-3.73,10,56.45,56.45,0,0,1-5.23,8.95A29.14,29.14,0,0,1,315,327a7,7,0,0,0-1.07.85c-.13.15-.13.21,0,.19a5.44,5.44,0,0,0,1-.42A5.81,5.81,0,0,0,316,326.88Zm-4.64-27.61a10.65,10.65,0,0,1,.75-1.84l1.08-2.19,1.13-2.23a12,12,0,0,0,.78-1.9q-.18,0-.69,1c-.34.62-.71,1.35-1.13,2.19S312.44,296,312,297s-.77,1.89-1,2.68-.23.91-.16.81A11,11,0,0,0,311.36,299.27ZM318,328a33.67,33.67,0,0,0,3.24-3.15,45.57,45.57,0,0,0,3.17-4c1-1.42,1.93-2.86,2.78-4.34a43.39,43.39,0,0,0,2.09-4.12,3.64,3.64,0,0,0,.17-.49c0-.13.08-.26.11-.39a1.07,1.07,0,0,1,.13-.3l-1.16,2.06q-1.2,2.34-2.37,4.31c-.79,1.31-1.62,2.58-2.52,3.79a38.64,38.64,0,0,1-2.94,3.5q-1.59,1.69-3.62,3.55c-.41.39-.51.53-.28.42A7.11,7.11,0,0,0,318,328Zm6.95-9.06a56.18,56.18,0,0,0,3.72-6.36,54.77,54.77,0,0,0,2.76-6.54,41.65,41.65,0,0,0,1.64-6.19,24.8,24.8,0,0,0,.42-5.39,7.17,7.17,0,0,0-.17-1.81,8.31,8.31,0,0,0-.17,2A36.74,36.74,0,0,1,332,302a52.67,52.67,0,0,1-2.37,7.16,59.72,59.72,0,0,1-3.2,6.63q-1.77,3.14-3.45,5.85a12.66,12.66,0,0,0,.84-1.13Zm-.85-8.63c0,.12.13,0,.32-.25l.12-.3-.16.13Zm.42-.63.15-.22a.59.59,0,0,0,.09-.2,1.24,1.24,0,0,1,.1-.2c.17-.4.21-.58.13-.53a1.35,1.35,0,0,0-.3.56C324.47,309.46,324.42,309.66,324.47,309.65Zm.86-1.73a1.47,1.47,0,0,0,.22-.55,1.33,1.33,0,0,1,.21-.54c.21-.47.26-.63.14-.49a4.25,4.25,0,0,0-.5,1C325.14,307.9,325.12,308.08,325.33,307.92Zm2.51-9.75c.09-.44.21-.94.35-1.49a9.15,9.15,0,0,0,.26-1.47c.05-.68.11-1.2.16-1.54a5,5,0,0,0,0-1.25c-.08.51-.17,1-.25,1.52s-.21,1.26-.38,2.27c-.41,2-.56,3-.44,2.93a.29.29,0,0,0,.05-.19c0-.13.07-.26.11-.39S327.8,298.3,327.84,298.17Zm2.67-1.34c.1-.75.18-1.49.26-2.21s.07-1.1,0-1.14a12.27,12.27,0,0,0-.34,2c-.09.81-.21,1.6-.37,2.36a9.82,9.82,0,0,1-.17,1l-.15.62a3,3,0,0,1-.08.57q.09,0,.36-1C330.2,298.39,330.36,297.65,330.51,296.83Z"/></svg>