<svg xmlns="http://www.w3.org/2000/svg" viewBox="0 0 416.9 382.65"><defs><style>.cls-1{fill:#fff;}</style></defs><g id="Capa_1" data-name="Capa 1"><path class="cls-1" d="M30,214.93H53.26c1.76,0,3.54-.12,5.09,1,.36.25.66.73,1.2.45,5.67-3,11.74-.8,17.6-1.37,1.44-.14,3.5-.23,3.9,1.56s-1.49,2.5-2.91,3a2.48,2.48,0,0,0-2,2.78q.12,6.53,0,13c0,2.39,1,2.22,2.56,1.36s2.87-1.6,4.32-2.39a17.54,17.54,0,0,1,8.77-2.24c7.15.1,11.17,4,11.25,11.15q.15,12.15,0,24.32c0,2.45.29,4.34,2.86,5.36,1,.4,2.29,1.07,2.09,2.5-.17,1.16-1.3,1.68-2.31,1.94a32.62,32.62,0,0,1-16.62,0c-1-.26-2.1-.85-2.2-2.05s1-1.87,1.93-2.25c2.65-1,3.11-3,3.05-5.6-.17-6.93,0-13.87-.07-20.8,0-5.49-3-7.7-8.23-6.29-.79.21-1.57.47-2.37.68-5,1.27-5,1.27-5,6.66,0,6.7.06,13.39,0,20.09,0,2.31.29,4.13,2.72,5.1,1,.41,2.37,1.05,2.28,2.4-.1,1.52-1.59,2-2.81,2.29-5.43,1.06-10.94,1.47-16.27-.31-2.9-1-3-2.65-.33-4s3.25-3.42,3.23-6.24c-.12-14.58-.22-29.15.07-43.72.06-3.56-2.4-3.77-4.31-5-.49-.31-.82.05-1,.54-2.11,4.39-6.61,6.18-10,9.14-2,1.69-4,3-1,5.72a2.42,2.42,0,0,1-.59,4,3.62,3.62,0,0,1-5.05-.84c-1.24-1.49-1.11-3.26-.7-5a36.37,36.37,0,0,1,3.38-8.12c1.4-2.74.47-3.57-2.31-3.54-9.3.11-7.77-.91-7.82,7.5-.08,12.45.11,24.91-.11,37.36-.06,3.33,1,5.36,3.88,6.71a3,3,0,0,1,.6.35c1.47,1.21,4.36,1.74,3.74,4s-3.39,2.5-5.42,2.43a140.42,140.42,0,0,0-16.54.09,7.21,7.21,0,0,1-2.75-.52c-1.19-.4-2.77-.63-3-2.09s1.11-2.38,2.25-2.82c5.42-2.09,6.32-6.14,6.17-11.48-.36-12.57-.19-25.15-.06-37.72,0-2.92-.85-3.92-3.8-3.87-8.61.14-8.37-.37-4.67,7.23a15.09,15.09,0,0,1,1.89,6.37c0,2.2-.75,4-3.13,4.45-1.45.31-2.84.13-3.71-1.3a2.56,2.56,0,0,1,.52-3.52c2.43-2,1.2-3.35-.56-4.71-2.6-2-5.3-3.91-7.8-6-1.55-1.31-3.73-2.63-2.73-5.18C1.19,215,3.5,215,5.66,215H30Z"/><path class="cls-1" d="M367,231.8c3.93,0,7.1,0,10.27,0a13.11,13.11,0,0,1,4.49.71,4.11,4.11,0,0,1,3.09,4.22,3.59,3.59,0,0,1-3.16,3.68c-2.14.36-4.53.49-5.39-2-.63-1.81-1.64-2-3.15-2-3.17,0-6.34,0-9.51,0-1.65,0-3.57.09-3.95,2.13s1.42,2.52,2.8,3.1c3.9,1.61,7.86,3.09,11.76,4.71a27.31,27.31,0,0,1,8.85,5.64A16.28,16.28,0,0,1,386,271.83c-2.36,4.2-5.89,6.81-10.87,6.39a110.34,110.34,0,0,0-19.66,0c-4.34.4-8.24-.93-10.49-5s-1.37-7.9,1.39-11.47c.62-.81,1.38-2,1.2-2.84-.84-3.83,1.76-3.32,3.85-3.13,3.38.31,5.45,2.36,5.66,5.69s2.12,4.64,5.21,4.9a23.81,23.81,0,0,0,7.35-.31c2.25-.52,4.28-1.55,4.87-4.05s-.67-4.33-2.49-5.81a44,44,0,0,0-9.45-5.39,92.84,92.84,0,0,1-12.44-6.56c-2.33-1.56-4.36-3.4-3.86-6.55s3.12-4.19,5.76-5C357.15,231.21,362.48,232,367,231.8Z"/><path class="cls-1" d="M394.86,254.67c0-3.75-.05-7.51,0-11.26.05-2.82.33-5.46-3.17-6.86-1.91-.76-1.67-2.33.47-3.14,3.12-1.19,3.52-3.43.79-5.54-2.18-1.67-1-2.51.53-3.25A61.08,61.08,0,0,0,404.66,218c.64-.5,1.42-1.08,2.23-.53s.4,1.45.13,2.22c-1.48,4.11-.42,8.38-.74,12.56-.09,1.23.55,1.7,1.71,1.5.69-.12,1.37-.33,2.06-.47,6-1.21,7.7.58,5.85,6.28a6.56,6.56,0,0,0-.21,4.14c.54,1.61,1.48,3.08-1.07,3.76-2.39.63-4.48.39-5.75-2a6.58,6.58,0,0,1-.51-4.46c.17-.86.17-1.72-1.07-1.67-1,0-1,.77-1,1.5l0,28.87c0,2,1.8,2.23,3,3.06,2.49,1.75,2.56,3.26-.26,4.12a27.64,27.64,0,0,1-17.18-.08c-2.6-.89-2.69-2.59-.15-3.85s3.26-3.21,3.15-5.92c-.16-4.1,0-8.21,0-12.32Z"/><path class="cls-1" d="M239.65,243.46c0,7.86.09,15.72,0,23.58-.05,2.68.24,4.84,3.13,5.9.93.33,2,1,1.83,2.28a2.74,2.74,0,0,1-2.3,2,32.32,32.32,0,0,1-16.57,0c-1-.27-2.12-.86-2.27-2s.94-1.89,1.88-2.27c2.62-1,3.13-2.94,3.11-5.58-.07-14.43,0-28.86.1-43.29,0-2.55-.29-4.65-3-5.66a1.81,1.81,0,0,1-1.36-2.17c.27-1.08,1.17-1.37,2.19-1.37,3.63,0,7.27,0,10.91,0,2.4,0,2.51,1.52,2.51,3.31,0,8.45,0,16.89,0,25.34Z"/><path class="cls-1" d="M121.56,361.66c8.4-1.37,8.4-1.37,8.4,6.55,0,2.82,0,5.63,0,8.45,0,1.56.51,2.89,2.3,2.94s3.77-.72,3.89-2.75c.24-4.2.06-8.44,0-12.66,0-1.67-1.66-1.72-2.82-2.67,2.69-.92,5.25-.32,7.74-.46,1.59-.1,1.51,1.06,1.51,2.15,0,4.23,0,8.45,0,12.68,0,1.91-.18,3.8,2.17,5-2.44.44-5.8,2.08-7.15,1.07-3-2.25-4.64.42-6.84.65-4.12.43-6.93-1.69-7.09-5.85-.13-3.52-.07-7,0-10.56C123.69,364.36,123.72,362.63,121.56,361.66Z"/><path class="cls-1" d="M182.56,381.78H172.43c2.8-4.11,2.83-26.92-.39-30.57,2.73,0,5,0,7.2,0,1.9,0,1.5,1.41,1.5,2.5,0,7.61,0,15.22,0,22.83C180.71,378.45,180.7,380.26,182.56,381.78Z"/><path class="cls-1" d="M295,381.55H282.84c3.25-3.55,3.26-17.3.23-20.17,4.86-1.48,7.66-.88,8.54,1.89a28.45,28.45,0,0,1,3.7-2.52c2-.95,4-.78,5.22,1.29a2.89,2.89,0,0,1-.39,3.88c-1.81,1.57-3.25.7-4.81-.83-2.23-2.19-3.43.1-3.58,1.66a115.32,115.32,0,0,0-.17,11.91C291.6,380.32,293.44,380.17,295,381.55Z"/><path class="cls-1" d="M216.15,377.27c-3.76,5.32-9.35,6.63-13.85,3.71s-6-10.23-3-15.5c2.64-4.56,9.09-6.49,13.53-4.07a4.82,4.82,0,0,1,2.37,2.5,3,3,0,0,1-.43,3.31,2.94,2.94,0,0,1-2.89.87c-1.42-.29-1.78-1.39-1.94-2.61-.19-1.43.38-3.44-1.85-3.57s-3.14,1.78-3.51,3.7a20.55,20.55,0,0,0-.41,4.88C204.63,378.5,208.59,381,216.15,377.27Z"/><path class="cls-1" d="M196.29,381.75H185.16c2.82-4.67,2.76-17.51-.62-20.84,2.77,0,5,0,7.3,0,1.86,0,1.6,1.3,1.6,2.44,0,4,0,8,0,12C193.45,377.56,192.89,380,196.29,381.75Z"/><path class="cls-1" d="M302.42,382.25c-2.44-.35-3.75-1.79-3.56-4.07a3.49,3.49,0,0,1,4.07-3.45,3.44,3.44,0,0,1,3.44,4C306.2,381.16,304.64,382.17,302.42,382.25Z"/><path class="cls-1" d="M190.44,350.58a3.19,3.19,0,0,1,3.2,3.73c-.12,2.12-1.47,3.14-3.51,3.1a3,3,0,0,1-3.29-3.32C186.86,351.85,188.11,350.67,190.44,350.58Z"/><path class="cls-1" d="M406.68,178.93a37.59,37.59,0,0,0-11.88-8.06c-9.64-4.36-19.88-6.42-30.28-7.71-27.89-3.45-55.81-2.26-83.72-.23-25.55,1.87-51,5.11-76.29,8.8A17,17,0,0,1,194,169.88a158.07,158.07,0,0,1-25.48-16.33c-9.12-7.22-9-17.22.28-24.3a41.36,41.36,0,0,1,24.18-8.56c12.64-.46,24,2.93,33.36,11.6,6.43,6,6.49,14.22.68,20.77a24.68,24.68,0,0,1-15.23,8.11c-3.59.56-7.17,1.25-10.71,2.06-1.41.32-3.49.67-3.23,2.57.2,1.5,2.25,1.35,3.54,1.74,2,.59,4,.11,6-.1,10-1.08,19.83-2.77,28.39-8.51,11.93-8,13.18-22.27,2.92-32.26a31.56,31.56,0,0,0-9.55-6.51,86.6,86.6,0,0,0-49.69-5.82c-9.84,1.65-19.21,4.54-26.87,11.39-5.72,5.1-7.38,11.46-5.9,18.84,1.14,5.76,4.48,10,9,13.4a124.23,124.23,0,0,0,21.47,12.75c1.22.58,2.64.9,3.49,2.28-5.65,2.43-11.09,3.68-16.92.42a137.75,137.75,0,0,0-14-6.59c-29.44-12.31-60-17.84-91.92-14.71-11.88,1.16-23.43,3.82-34.19,9.18-7.46,3.72-14,8.51-18.52,15.79-2.74,4.44-2.41,8.67.28,12.9,3,4.64,7.36,7.54,12.2,9.81a78,78,0,0,0,32.36,7.45c21,.34,41.24-4,61.19-10.38,17.54-5.64,35.2-11,53.38-14.34a7.92,7.92,0,0,1,7.62,2.23,231.71,231.71,0,0,1,24.51,28.14,1,1,0,0,1,0,1.42c-1.12,0-2.4,0-3.68,0-7.36.29-13.38,3.19-17.85,9.14-9.6,12.83-9.12,37,1,49.43,3.26,4,7.24,6.23,12.6,5.42a26.43,26.43,0,0,1,8.42,0c7.4,1.3,12.21-2.12,15.34-8.45A56.32,56.32,0,0,0,218,236c-.81-5.44-2.39-10.93-6.79-14.35-5.27-4.09-8.53-9.59-12.42-14.67a178.69,178.69,0,0,0-22.84-25.36c11.73-5.38,22.84-3.91,33.83,1,3.11,1.38,6.22,2.78,9.43,3.9a636.21,636.21,0,0,0,83.59,22.66c23.39,4.76,46.9,8.65,70.92,7.87,9.57-.3,19-1.26,27.71-5.72C414.09,204.73,416.55,189.22,406.68,178.93Zm-249.55-1.16c-.17,1.24-1.69,1.5-2.81,1.79q-11.77,3-23.56,6c-18.1,4.57-36.11,9.6-54.71,11.9C64,199,52,199.8,39.93,197.26a32.36,32.36,0,0,1-11.09-4.37c-8.33-5.45-9.27-14-2.29-21.19,4.77-4.89,10.91-7.25,17.32-9,11-2.92,22.24-3.53,33.55-3.57,25.23,0,49.44,5.16,72.9,14.21a39.44,39.44,0,0,1,4.47,2.09C155.79,176,157.32,176.44,157.13,177.77Zm50.07,51.49c3.3,9.27,3.79,18.47-.36,27.45-3.13,6.78-9.33,9.51-16.68,7.9-6.56-1.44-9.26-7.61-6.28-14.37a13.37,13.37,0,0,1,5.27-6c2.49-1.55,5.09-2.93,7.66-4.32C201.33,237.47,205.58,234.8,207.2,229.26Zm-4.51-5.64c1.11,3.35.06,6.25-2.43,8.61a25.78,25.78,0,0,1-6.24,3.88c-10,5.07-11.14,6.3-15.71,16.81-1.82-8.39-2-16,1-23.45s8.87-11.17,16.46-10.4C198.83,219.37,201.62,220.37,202.69,223.62Zm181.39-21c-5.31,3.35-11.33,4.48-17.43,5.1-14.72,1.51-29.32.05-43.85-2.12a517.49,517.49,0,0,1-94.59-23.22c-1.87-.66-3.69-1.49-5.52-2.28a24.64,24.64,0,0,1-2.1-1.29c6.47-2.41,12.5-3.25,18.5-4.14,30.59-4.5,61.33-7.14,92.28-6.28,14.68.41,29.33,1.39,43.4,6.19a32.1,32.1,0,0,1,11.08,6C393.28,187.14,392.46,197.33,384.08,202.62Z"/><path class="cls-1" d="M392.56,297.47c-6.59-4.51-14.1-6.92-21.81-8.63-21.76-4.85-43.82-4.71-65.91-3.68-26.56,1.24-52.81,5.16-79.07,9-32,4.66-64,8.67-96.28,10.13-23.69,1.08-47.14.66-70.48-3.92-12.31-2.41-24.84-3.55-37.24-6.1.16,1.36,1.13,1.74,1.8,2.34,8.56,7.69,17.2,15.29,25.67,23.09a7.53,7.53,0,0,0,6.9,2.07,258.26,258.26,0,0,1,52-2.15c10.78.67,21,3.8,31.45,5.89a958.76,958.76,0,0,0,120.76,15.94c28.14,2,56.31,2.77,84.43-.44,13.57-1.55,27-3.9,39.34-10.19,6-3,11.45-6.9,14-13.36C402.22,306.81,400.3,302.76,392.56,297.47Zm-23,23.43c-8.26,5.93-18,8-27.75,9.49-21.45,3.37-43.06,3.32-64.68,2.33a843.29,843.29,0,0,1-126.52-15c-2.22-.44-4.53-.69-6.46-2.33,12.26-1.69,24.42-3.52,36.57-5.35,30.31-4.57,60.61-9.3,91.11-12.47,24.77-2.57,49.58-4.79,74.52-2.51A70.17,70.17,0,0,1,361.54,298a40.85,40.85,0,0,1,6.51,2.63C378,305.84,378.69,314.33,369.54,320.9Z"/><path class="cls-1" d="M294.67,272c-2.71-1.19-3.17-3.21-3.11-5.91.15-7.63.05-15.26.05-22.89h.06c0-8.1-.06-16.2,0-24.3,0-3-1.09-4.29-4.16-4.14-3.4.15-6.81,0-10.21,0-1.3,0-2.77-.12-3.21,1.48-.48,1.77.89,2.67,2.2,3.11,3.53,1.18,4.62,3.57,4.11,7.07a27.72,27.72,0,0,0,0,3.87c0,4.65,0,4.65-4.38,2.65-9.76-4.5-18.73-1.77-24.18,7.47-4.56,7.75-5.09,16-2.51,24.47,2.74,9,9.35,14,18.73,13.27a199,199,0,0,1,22.11-.35,14.08,14.08,0,0,0,3.48-.4c1.48-.34,3.27-.68,3.56-2.42S295.9,272.53,294.67,272Zm-14.36-20.31h0c0,2.93,0,5.86,0,8.79,0,2.71-1.29,4.24-4,4.33-3.4.11-6.8.15-10.19,0-2.63-.11-4.13-2-5.36-4.08-3.31-5.52-2.52-15.64,1.55-20.68,2.77-3.42,6.44-4.13,10.47-3.13,6.13,1.52,7.52,3.46,7.5,9.84Z"/><path class="cls-1" d="M339.63,261.62c-1.28-1.44-2.65-3-4.14,0a7.33,7.33,0,0,1-4.4,3.32c-4.74,1.7-9.43,1.22-14.17-.13-2.89-.82-3-2.33-1.74-4.64,1.94-3.46,5.12-5.41,8.43-7.21,4.53-2.46,9.45-4.21,13.53-7.46,3.32-2.65,4.8-6.21,3.7-9.19-1.38-3.76-4.78-4.28-8.09-4.4-5.28-.18-10.57-.17-15.84,0a15.43,15.43,0,0,0-12.68,6.6c-6.71,9.7-8.05,20.19-2.81,30.94,3,6.15,7.93,9.8,15.33,8.73,1.62-.24,3.27-.27,4.9-.39v.47c3.16,0,6.34.17,9.48,0a10.76,10.76,0,0,0,9.68-7.06C342.21,267.84,342.21,264.5,339.63,261.62Zm-29.51-2c-3-5.37-2.41-15,.88-19.15,3.13-3.94,12.68-5.44,17-2.59,2.35,1.56,2.32,3.65.87,5.79a10.22,10.22,0,0,1-4.17,3.17C318.75,249.74,312.92,252.76,310.12,259.58Z"/><path class="cls-1" d="M154.49,262.25c-1.43-1.83-2.9-3.7-4.76-.14-1,1.93-3.12,2.79-5.2,3.37a21.62,21.62,0,0,1-12.81-.44c-3.47-1.15-3.77-1.88-1.93-5,2.33-3.94,6.25-5.9,10.13-7.87s8.15-3.66,11.66-6.48c2.95-2.36,4.86-5.37,3.69-9.19s-4.73-4.31-8-4.43c-5.28-.18-10.56-.14-15.84,0a16.51,16.51,0,0,0-12.08,5.68c-7.66,8.35-8.71,24.94-2.16,34.19,3.29,4.65,7.55,7.27,13.48,6.48,1.86-.25,3.74-.27,5.61-.4v.44c3.16,0,6.34.15,9.48,0a10.66,10.66,0,0,0,9.33-6.52C156.6,268.64,156.86,265.29,154.49,262.25Zm-29.92-2.52c-5.14-8.8-1.22-20.93,7-22.72a17.69,17.69,0,0,1,9.38.32c3.74,1.24,4.48,4.61,1.58,7.31a13.93,13.93,0,0,1-3.18,2.16C133.39,249.86,127.36,252.75,124.57,259.73Z"/><path class="cls-1" d="M252.23,366.76c-1-.57-2.15-1-3.63-1.67,3.74-1.6,6.68-3.33,6.17-7.58-.41-3.46-2.89-5.09-5.88-5.73-6.45-1.39-13-.47-19.63-.26,3.55.88,3.81,3.29,3.72,6.2-.18,5.63-.15,11.27,0,16.9.06,3,.23,5.9-3.88,6.8,7,.18,13.87,1.16,20.62-.53a10.34,10.34,0,0,0,2.87-1.31C257.79,376.32,257.63,369.74,252.23,366.76Zm-12-11.16c.14-2.86,1.86-3.88,4.46-2.65s2.53,3.69,2.53,6-.48,4.42-3.07,5.32c-3.17,1.1-3.91.62-3.94-2.75,0-.82,0-1.64,0-2.45h0C240.25,357.94,240.2,356.77,240.26,355.6Zm6.19,23.57a4.8,4.8,0,0,1-4.63.89c-1.91-.66-1.55-2.39-1.59-3.87,0-1.17,0-2.34,0-3.51a16.8,16.8,0,0,1,0-2.46c.22-1.29-.84-3.12.81-3.78s3.25,0,4.69.88C249.09,369.37,249.55,376.79,246.45,379.17Z"/><path class="cls-1" d="M113.12,351.81c-6.33-1.05-12.73-.25-19.48,0,4.07.75,3.78,3.64,3.78,6.34,0,5.52,0,11,0,16.55,0,2.92.28,6-3.55,7.13h14.45l1-1c-5.08.32-4.61-2.71-4.59-5.47a33.29,33.29,0,0,0,0-3.87c-.24-2.3.34-3.5,3-3.27a19,19,0,0,0,5.25-.48c4.27-.86,7.11-4.1,7.18-8C120.23,355.66,117.8,352.59,113.12,351.81Zm-.88,9.13c-.09,2.62-1,4.8-4,5.4-2.33.47-3.91.13-3.45-2.85a25.37,25.37,0,0,0,0-3.49c0-1.28,0-2.57,0-3.85.08-3,1.77-4.16,4.55-2.83C112.66,354.89,112.34,358.06,112.24,360.94Z"/><path class="cls-1" d="M169.19,367.06a8.81,8.81,0,0,0-4.35-5.71c-3.1-1.61-6.07-.78-9.26,1,0-1.59,0-2.73,0-3.87,0-7.76,0-7.76-8-7.15a9.06,9.06,0,0,0-1.12.54c2.84.93,2.79,2.87,2.77,4.9q-.09,10.74,0,21.46c0,1.33-.38,2.75.56,4.28,2.2-2.46,4.37-2.17,6.8-.56,1.5,1,3.41.7,5.15.3C167.88,380.87,171.21,374,169.19,367.06Zm-7.31,11.69a3.11,3.11,0,0,1-3.55,2.23c-1.82-.23-2.55-1.57-2.65-3.21-.11-2,0-4,0-6h0c0-1.75,0-3.51,0-5.26s.88-3.21,2.78-3.5a3.1,3.1,0,0,1,3.52,2.3A20.26,20.26,0,0,1,161.88,378.75Z"/><path class="cls-1" d="M278.19,378.39c-.06-.58-.08-1.16-.09-1.75,0-1.64,0-3.29,0-4.93s-.07-3.06,0-4.58c.2-3.37-1.54-5.28-4.57-6.21a14.18,14.18,0,0,0-8.67,0,5.92,5.92,0,0,0-4.19,3.94,3,3,0,0,0,1.28,3.68,3,3,0,0,0,3.62-.28,2.33,2.33,0,0,0,.48-3.44c-1.6-2.4.15-2.95,1.91-3.06s3.63.52,3.79,2.77c.16,2.05,1.21,4.5-2.21,5.28a18,18,0,0,0-7.92,3.67,4.89,4.89,0,0,0-1.52,6c1,2.23,2.91,3,5.19,2.83a8.72,8.72,0,0,0,4.89-1.79c1-.81,1.51-.82,2.44.36,1.79,2.28,4.13,1.68,6.32.39C282.12,379.45,278.3,379.4,278.19,378.39Zm-6.47-4.52c.24,2.63.1,4.91-3,5.1-1.83.11-2.34-1.42-2.29-2.89a4.71,4.71,0,0,1,4.24-4.83C272.83,371,271.19,373.21,271.72,373.87Z"/><path class="cls-1" d="M61.86,69.11a1.62,1.62,0,0,1,2.1.32,5.35,5.35,0,0,1,1.15,2.75,15.63,15.63,0,0,1,.08,4.14,16.16,16.16,0,0,1-1.13,4.46,13.36,13.36,0,0,1-2.5,3.91,7.61,7.61,0,0,1-4.1,2.3c1.4,3.23,2.56,6.32,3.51,9.27a51.69,51.69,0,0,1,1.86,7.25,16.76,16.76,0,0,1,0,4.91,19.26,19.26,0,0,1-1.41,5.14,13.5,13.5,0,0,1-2.85,4.26A8,8,0,0,1,54,120.1a6.42,6.42,0,0,1-3.07.07A7.42,7.42,0,0,1,48.43,119a13.41,13.41,0,0,1-2.18-2,28.85,28.85,0,0,1-2-2.61,13.76,13.76,0,0,1-2.3-5.55,22.14,22.14,0,0,1-.16-6.52,28.29,28.29,0,0,1,1.74-6.76A30.15,30.15,0,0,1,47,89.2c-.51-.67-.77-1-1.27-1.67s-1.25-1.49-2-2.31-1.45-1.59-2.13-2.31a16.33,16.33,0,0,0-1.89-1.76,5.71,5.71,0,0,0-1.25-.81c-.24-.09-.4.41-.45,1.5s-.07,2.3,0,3.61.13,3,.34,5.21c-.18.64-.31.88-.42.74s-.28.11-.38.59-.2.54-.35.45a5,5,0,0,1-.48-1.21,16.51,16.51,0,0,1-.52-2,.55.55,0,0,0-.07-.29.66.66,0,0,1-.07-.29.35.35,0,0,1-.07-.29,3.58,3.58,0,0,0,0,1.27c.08.8.18,1.54.31,2.21.31,1.29.24,1.87-.22,1.74q-.26,0-.21.09c.1.14.08.28-.09.44s-.41-.07-.58-.41c-.07-.14-.11-.37-.19-.54a1.42,1.42,0,0,1-.14-.46c-.07-.09-.1.18-.09.8.11,1,0,1.41-.49,1.19-.11-.14-.24-.13-.4,0s-.23.25-.56.18-.82-.59-1.19-1.56A52.36,52.36,0,0,1,30.6,88c-.53-2.2-1.08-4.52-1.67-6.94a19,19,0,0,0-3.18-6.82c-.37-.51-.74-1-1.1-1.4a3.82,3.82,0,0,0-1-.9,29.7,29.7,0,0,0,.59,7.65,39.79,39.79,0,0,0,2.52,7.66q.62,1.57,1.26,2.88c.43.87.93,1.84,1.52,2.92s1.32,2.29,2.17,3.63,1.92,3,3.17,5c.75,1.2,1.46,2.36,2.14,3.47a17.76,17.76,0,0,1,1.3,2.37q2.47,4.23,1.61,5.83l-.38.87a9.94,9.94,0,0,1-3,3.26,7.31,7.31,0,0,1-2.61.92,12.4,12.4,0,0,1-3.38-.1c-5.85-.77-11.78-4.29-17.64-10.87a50.77,50.77,0,0,1-3.63-4.63q-1.8-2.55-3.3-5.07a46.57,46.57,0,0,1-2.51-4.79,17.3,17.3,0,0,1-1.3-3.74,5.87,5.87,0,0,1,0-2,2.48,2.48,0,0,1,.64-1.45,1.57,1.57,0,0,0,.42-.83c.06-.32.16-.51.31-.59s.25,0,.28.33c.08.6,1,2,2.44,4.2,1.25,1.88,2.24,3.47,3,4.55s1.24,1.73,1.42,1.94.08.07-.1-.2-.45-.68-.8-1.22c-1.79-2.71-3-4.77-3.8-6.15A12.61,12.61,0,0,1,4.51,84.2a1.61,1.61,0,0,1-.15-.85,2.94,2.94,0,0,1,.58-.75,2.1,2.1,0,0,1,1-.7.69.69,0,0,0,.48-.38,3.84,3.84,0,0,1,1.22-.64c1.07-.37,2.39,0,3.93,1a27,27,0,0,1,4.67,4,65.24,65.24,0,0,1,4.56,5.33c1.47,1.91,2.72,3.62,3.76,5,1.31,1.72,2.36,3,3,3.7s.77.92.54.5q-3.25-5.31-5.8-9.67a39.47,39.47,0,0,1-3.74-8.17A15.08,15.08,0,0,1,18,75.26a13.42,13.42,0,0,1,3.8-6.86c1.72-1.74,3.42-2.66,4.8-2.76a4.82,4.82,0,0,1,3.6,1.12,9.87,9.87,0,0,1,2.53,3.46,44,44,0,0,1,1.68,4.14,3.68,3.68,0,0,0,.4,1,.33.33,0,0,0,.44.14,2.42,2.42,0,0,0,.69-.61,11.86,11.86,0,0,1,1.12-1.09c2.72-2.36,5.1-3.42,7.09-3.24A8,8,0,0,1,49.29,73,19.48,19.48,0,0,1,53,78.21a55.38,55.38,0,0,0,2.89,5.26A7.75,7.75,0,0,0,59.79,80a6.85,6.85,0,0,0,.91-3.41,29.12,29.12,0,0,0-.18-3.1,12.12,12.12,0,0,1,0-2.61A2.16,2.16,0,0,1,61.86,69.11Zm-35,25.67A55.88,55.88,0,0,1,23,86.86a39.81,39.81,0,0,1-2.25-7.54,9.08,9.08,0,0,0-.2-1.25,2.75,2.75,0,0,1-.09-.51c-.06,0-.07.27,0,.63s.07.85.13,1.44a15.93,15.93,0,0,0,.26,1.8c.12.61.22,1.13.33,1.49s.37,1.07.61,1.76.47,1.3.68,1.82c.33.81.76,1.74,1.29,2.8s1.07,2.08,1.62,3.08,1,1.87,1.45,2.59.66,1.12.74,1.21,0-.07-.14-.35A10.75,10.75,0,0,0,26.82,94.78Zm-4.51-16.5c-.07-.49-.14-.91-.2-1.25s-.12-.49-.18-.43c.06.74.13,1.38.19,1.92s.12,1.08.19,1.61.13,1,.19,1.32A24.45,24.45,0,0,0,23.77,85c.69,1.67,1.35,3.25,2,4.69a14.42,14.42,0,0,0,1.36,2.6c.16.14-.11-.57-.8-2.06a60.85,60.85,0,0,1-2.6-6.41A41.75,41.75,0,0,1,22.31,78.28Zm9.3,8a58.51,58.51,0,0,0-3.24-10.48c-.37-.74-.59-1.14-.69-1.14a.3.3,0,0,0,0,.22.68.68,0,0,1,.08.22,1,1,0,0,0,.14.29,14.86,14.86,0,0,1,.74,1.91l1,2.89c.36,1.09.71,2.23,1,3.44s.65,2.39.92,3.53c.17.71.3,1.39.43,2a16.65,16.65,0,0,0,.43,1.61c.17.55.3,1.08.43,1.51.14.18.12-.21-.06-1.2S32.22,88.51,31.61,86.3Zm24,28.77c.78-.73,1-2,.65-3.88a38.08,38.08,0,0,0-1.8-6.22q-1.27-3.41-2.86-6.71c-1.05-2.19-1.91-4-2.58-5.31A6.45,6.45,0,0,0,47.42,96a23.23,23.23,0,0,0-.65,4.27,26.59,26.59,0,0,0,.07,4.3,12.71,12.71,0,0,0,.61,3.11c.2.51.59,1.34,1.12,2.46a19.63,19.63,0,0,0,1.93,3.19A7.54,7.54,0,0,0,53,115.58,2.16,2.16,0,0,0,55.61,115.07ZM29.46,75a6,6,0,0,0-.57-1.19l-.43-.61c-.19-.13-.22-.11-.09.08a9.92,9.92,0,0,1,.71,1.89c.33,1.06.71,2.25,1.13,3.55s.8,2.58,1.15,3.83.62,2.2.8,2.82c.07.09.11-.23.14-1a7.91,7.91,0,0,0-.23-1.86c-.17-.74-.39-1.57-.66-2.46s-.58-1.78-.93-2.67S29.72,75.65,29.46,75ZM56.72,108.2c0,.14,0,.13,0,0a3,3,0,0,0-.09-.74A20.28,20.28,0,0,0,55.45,103c-.69-1.83-1.53-3.82-2.49-6a20,20,0,0,0-1-2.16,6,6,0,0,0,.62,1.94c.56,1.36,1.32,3.2,2.12,5.44S56.15,106.46,56.72,108.2Zm1.31.47c0,.34.16.29.17-.27a14.16,14.16,0,0,0,0-1.82,13.73,13.73,0,0,0-.67-2.76c-.37-1.13-.82-2.38-1.33-3.75s-1.1-2.78-1.77-4.27-1.4-2.94-2.17-4.35a4.49,4.49,0,0,0-.33-.69,1.45,1.45,0,0,1-.24-.54l-.24.21.05.07q1.3,2.9,2.6,6.21c.87,2.2,1.61,4.31,2.25,6.29.44,1.37.85,2.61,1.2,3.7A16.28,16.28,0,0,1,58,108.67Zm2.29-5.33c-.18-.75-.46-1.74-.82-3s-.82-2.51-1.36-3.89S57,93.73,56.43,92.31s-1.22-2.75-1.85-4a.66.66,0,0,1-.19.09.52.52,0,0,0-.18.1q1.66,3.72,2.85,6.89a63.47,63.47,0,0,1,1.93,6.3c.62,2.41,1.07,3.91,1.21,4.48s.24.83.29.79.06-.07.07-.35,0-.6,0-1,0-.77-.08-1.19S60.38,103.67,60.32,103.34Z"/><path class="cls-1" d="M81.73,55.91a2.29,2.29,0,0,1,1.57,0,1.35,1.35,0,0,1,.93,1.1c0,.1.26,1.08.64,2.92a60.27,60.27,0,0,1,.9,6.73c.11,1.32.21,2.91.3,4.76A29.53,29.53,0,0,1,85.8,77a20.9,20.9,0,0,1-1.47,5.33A9.31,9.31,0,0,1,81,86.42c-3,2-5.83,3-8.62,2.73a9.77,9.77,0,0,1-7.16-4.23A19.53,19.53,0,0,1,63,81a59,59,0,0,1-2-5.85c-.49-1.56-1-3.06-1.27-4.43s-.59-2.85-.83-4.42c-.09-.44-.22-1.09-.38-2s-.31-1.73-.44-2.62-.22-1.71-.27-2.47a5,5,0,0,1,.06-1.57,2.24,2.24,0,0,1,1.26-1.17,3.1,3.1,0,0,0,1.07-.59c.16-.48.29-.54.41-.18l.17.31a5.86,5.86,0,0,1,.32-1,.46.46,0,0,1,.34-.3,2.16,2.16,0,0,0,.43-.14,3.25,3.25,0,0,1,1-.08l.68-.14c.35.56.53.85.89,1.41a26,26,0,0,1,2.69,5.65c.69,2,1.33,4.07,1.9,6.14s1.21,4.12,1.9,6.15a32.94,32.94,0,0,0,2.67,5.77,13,13,0,0,0,1.22,1.67,7.12,7.12,0,0,0,1.85,1.56,3,3,0,0,0,2,.4c.69-.11,1.32-.69,1.9-1.72a12.47,12.47,0,0,0,1.35-5.25,42.56,42.56,0,0,0-.08-6.48q-.28-3.28-.8-6.31c-.35-2-.7-3.59-1-4.63a2.2,2.2,0,0,1,.31-1.65A2.6,2.6,0,0,1,81.73,55.91ZM68.6,85c-.09,0-.2-.14-.35-.39a6,6,0,0,0-.58-.78c-.23-.26-.47-.56-.71-.89a4.09,4.09,0,0,0-.62-.75l-1-1.75c-.22-.36-.33-.54-.54-.91a1.62,1.62,0,0,0,.14.44,1.78,1.78,0,0,0,.16.48,3.72,3.72,0,0,1,.26.64,10.28,10.28,0,0,0,.57,1.27,3.08,3.08,0,0,0,.56.84,4.1,4.1,0,0,0,.49.62,7,7,0,0,0,.72.72,7.92,7.92,0,0,0,.68.54c.2.14.33.19.38.15S68.65,85.1,68.6,85ZM54.43,46.15a.68.68,0,0,1,.24-.28c.19-.13.23.05.17.53s0,.55.07.49a2.15,2.15,0,0,0,.4-.82,2,2,0,0,1,.59-1c.22-.15.4-.1.54.16s.23.17.33-.12c.17-.48.34-.61.5-.4s.6.17.84.23.51.22.64,0a1.71,1.71,0,0,1,1.36-.12,2,2,0,0,1,1.23.61c.18.26.07.83-.12,1.46a2.08,2.08,0,0,0-.1,1.24.83.83,0,0,1,0,.88c-.2.43-.42.65-.66.67s-.38.12-.38.26a.49.49,0,0,1-.2.46.63.63,0,0,1-.58,0c-.26-.1-.4,0-.28.19.23.42,0,.65-.52.69a.44.44,0,0,0-.39.11,1.52,1.52,0,0,1-.67.31c-2.16.45-3.57-.16-4-1.78a5,5,0,0,1-.12-2.19,1.44,1.44,0,0,1,.82-1.24A.49.49,0,0,0,54.43,46.15Z"/><path class="cls-1" d="M109.26,41.46a1.75,1.75,0,0,1,1.44.33,1.69,1.69,0,0,1,.61,1.4,8.71,8.71,0,0,1,0,1.19c0,.73-.08,1.68-.16,2.83s-.21,2.51-.39,4-.39,3.12-.61,4.75a50.36,50.36,0,0,1-2.9,10.72c-1.19,2.82-2.76,5-4.62,6.08a13.73,13.73,0,0,1-7.84,1.69,13.59,13.59,0,0,1-6.53-2.39,17.83,17.83,0,0,1-5-5.48A29.31,29.31,0,0,1,80,59.14a32.23,32.23,0,0,1-1.15-8.31A24.11,24.11,0,0,1,80,43,23.37,23.37,0,0,1,83.78,36a12.86,12.86,0,0,1,6.92-4.4,5.19,5.19,0,0,1,3.17.08,3.08,3.08,0,0,1,1.82,1.78A9.21,9.21,0,0,1,96,38.07a31.61,31.61,0,0,1-1.57,6.36c-.62,1.74-1.21,3.19-1.72,4.31s-.9,2-1.18,2.78a15.62,15.62,0,0,0-.59,1.76A1.93,1.93,0,0,0,91,54.59c.51,1.14,1,2.35,1.55,3.61s1.06,2.51,1.6,3.7,1.07,2.31,1.6,3.34a10.34,10.34,0,0,0,1.58,2.33A11.51,11.51,0,0,0,99,69a2.68,2.68,0,0,0,1.36.67q1.25-.07,2.19-2a28.1,28.1,0,0,0,1.68-4.22q.74-2.34,1.2-4.53c.31-1.46.51-2.44.6-3,.23-1.58.43-3.11.58-4.58s.26-2.76.31-3.88.1-2.38.16-3.79a2.32,2.32,0,0,1,.66-1.5A2.69,2.69,0,0,1,109.26,41.46ZM82,58.36a16.14,16.14,0,0,0,1.13,2.69c.38.7.6,1,.67.78a4.15,4.15,0,0,0-.43-1.24,8.25,8.25,0,0,1-.61-1.86A54.24,54.24,0,0,1,82,53.16a41.08,41.08,0,0,1-.16-5.49c0-1.06,0-.84-.28.68A23.08,23.08,0,0,0,82,58.36Zm2.27-7.27a9.33,9.33,0,0,0,.14,1.31c.09.53.2,1.06.33,1.57s.23,1,.32,1.3.15.57.17.62c.34.08.41-.86.2-2.8,0-.59-.1-1.26-.17-2s-.13-1.48-.19-2.2-.1-1.38-.14-2,0-1.06,0-1.41c0-1.22-.09-1-.32.6A26.77,26.77,0,0,0,84.25,51.09Zm3.5-3.85c.08.7.15,1.28.19,1.73a6.43,6.43,0,0,0,.11.76c.15-.36.49-1.27,1-2.74s1.07-3,1.53-4.64a20.09,20.09,0,0,0,.79-4.47c.06-1.35-.36-2.16-1.25-2.42a.44.44,0,0,0-.39,0,5,5,0,0,0-.56,1.06A18.77,18.77,0,0,0,88,41.51,35.27,35.27,0,0,0,87.75,47.24Z"/><path class="cls-1" d="M155.33,25a2.54,2.54,0,0,1,1.62.4,1.51,1.51,0,0,1,.76,1.26,37.23,37.23,0,0,0,.17,4.12q.28,3.06.44,7.13c.1,2.72.12,5.61.06,8.69a63.59,63.59,0,0,1-.7,8.61,23,23,0,0,1-2.09,6.91,6.75,6.75,0,0,1-4.11,3.7,7.83,7.83,0,0,1-4.11.2,11,11,0,0,1-3.69-1.59,13.67,13.67,0,0,1-3.09-2.81,17.68,17.68,0,0,1-2.29-3.54,36.31,36.31,0,0,1-2.55-6.91,60.08,60.08,0,0,1-1.41-7.49q-.47-3.86-.65-7.72t-.34-7.62c-.09-1.11-.14-2.16-.15-3.14a16.51,16.51,0,0,0-.24-2.73,10.47,10.47,0,0,0-.77-2.46,8.74,8.74,0,0,0-1.62-2.36,19.37,19.37,0,0,0-2.87,6.69,35.69,35.69,0,0,0-.81,8,43.37,43.37,0,0,0,.4,5.63l.81,5.47c.28,1.83.54,3.67.81,5.53a31.78,31.78,0,0,1,.47,5.66A3.75,3.75,0,0,1,128,57.4a5.13,5.13,0,0,1-2.62,1.06,7.56,7.56,0,0,1-3.13-.29,10.57,10.57,0,0,1-3-1.35,26.84,26.84,0,0,1-2.93-2.29,41.49,41.49,0,0,1-3.16-3.09q-1.57-1.69-3.08-3.57a36,36,0,0,1-2.6-3.63,39.27,39.27,0,0,1-3-5.79A22.84,22.84,0,0,1,103,32.93a16,16,0,0,1,0-4.38,7.09,7.09,0,0,1,1.26-3.34,3,3,0,0,1,.75-.83c.13-.06.21.17.24.68a12.51,12.51,0,0,1,.38-1.21,1,1,0,0,1,.52-.48c.14-.06.2,0,.2.06s0,.33-.06.67a11.46,11.46,0,0,0,.17,3.22,20.94,20.94,0,0,0,.91,3.67,2.54,2.54,0,0,0,.28.61c.08.13.1.14.06,0q-.09-.56-.24-1.95a27.41,27.41,0,0,1-.18-2.92c0-1,0-1.93,0-2.78s.22-1.32.48-1.43.33-.05.39.12.08,0,.17-.17a.93.93,0,0,1,.24-.3c.35-.23.9.14,1.27,1,0-.74.18-1.16.38-1.24.81-.34,1.68,0,2.62,1a18.5,18.5,0,0,1,2.76,4.11,63.66,63.66,0,0,1,2.62,5.83q1.26,3.23,2.3,6.11t1.87,5a7.72,7.72,0,0,0,1.24,2.41c-.11-1.45-.31-3.1-.58-5s-.51-3.8-.71-5.82a50,50,0,0,1-.23-6.15,22.89,22.89,0,0,1,.89-5.93,15,15,0,0,1,2.66-5.16,13.1,13.1,0,0,1,5.12-3.84,8.75,8.75,0,0,1,5.33-.79,8.13,8.13,0,0,1,4,2.06,12.52,12.52,0,0,1,2.68,3.78A34.65,34.65,0,0,1,144.56,24a31.11,31.11,0,0,1,.78,3.13c.2,1,.39,2.3.56,3.79s.33,3.35.48,5.57.31,5,.52,8.35c.2,3.08.53,6.06.93,8.9A19.88,19.88,0,0,0,151,61.83a3.22,3.22,0,0,0,1.1-1.46,16.17,16.17,0,0,0,1-3.79,46.46,46.46,0,0,0,.62-4.65c.15-1.77.27-3.74.31-5.87.06-3.11,0-6.26-.12-9.35s-.31-6.2-.61-9.31a2.67,2.67,0,0,1,.56-1.55A2,2,0,0,1,155.33,25ZM125.94,49.85c-.09-.66-.31-1.61-.44-2.69s-.27-2.18-.42-3.32l-.42-3.36c-.13-1.11-.22-2.08-.26-2.9-.24-2.61-.35-4.92-.34-6.91a27.53,27.53,0,0,1,.51-5.4c.05-.34.09-.64.12-.91s0-.39,0-.36c-.21.78-.36,1.45-.46,2s-.18,1.12-.26,1.69-.14,1-.19,1.37a46.86,46.86,0,0,0,.22,7.6q.45,5.09,1.45,11.18.19,1.29.36,2.28c.11.67.18,1.06.22,1.18,0,.27,0,.38.2.3a1.36,1.36,0,0,1-.07-.55,1.45,1.45,0,0,0-.06-.51A4.6,4.6,0,0,1,125.94,49.85Zm0-24.33a2.61,2.61,0,0,0,.15-.63c0-.19,0-.28-.08-.26s-.15.3-.25.82-.2,1.13-.28,1.83-.17,1.43-.24,2.16a16.56,16.56,0,0,0-.09,1.86c0,1,0,2.15.16,3.56s.24,2.79.41,4.14.33,2.56.48,3.63a16.57,16.57,0,0,0,.37,2c0,.11,0,0,0-.47s-.13-1-.2-1.66a79.76,79.76,0,0,1-.78-9.35A47.8,47.8,0,0,1,126,25.52ZM135.88,37c.07.8.15,1.64.22,2.5s.14,1.66.23,2.36.17,1.31.24,1.83.13.83.16.94c.15.33.1-.92-.16-3.76s-.64-7.26-1.09-13.27a9.45,9.45,0,0,0-.14-1.57c-.09-.47-.15-.77-.18-.89s-.13.28-.08,1.12.16,1.94.26,3.2.15,2.71.27,4.2Zm.84-13.7c-.07,0-.06.45,0,1.28s.21,1.85.34,3,.23,2.68.38,4.34.26,3.12.31,4.37a73.71,73.71,0,0,0,1.55,11.59l.4,1.86c-.09-.65-.14-1-.24-1.63s-.07-1.31-.19-2.42-.21-2.2-.3-3.23c-.13-1.32-.25-2.41-.28-3.19s-.09-1.5-.15-2.14-.14-1.32-.22-2-.14-1.68-.26-2.82-.31-2.28-.49-3.55-.3-2.27-.43-2.9c-.06-.28-.14-.6-.19-.94a6.84,6.84,0,0,0-.16-.85A2.48,2.48,0,0,1,136.72,23.25Zm4.71,6.1c0,.49.11,1.24.18,2.22s.16,2,.24,2.86c.16,1.89.28,3.8.44,5.65s.33,3.55.53,5.1.38,2.88.57,4,.33,1.87.43,2.28.12.4.1.16-.13-1.37-.31-3.32c-.08-.86-.2-2-.33-3.46s-.23-2.79-.35-4c-.13-1.4-.26-2.61-.33-3.6s-.16-1.87-.25-2.67-.17-1.52-.24-2.2a20.4,20.4,0,0,0-.27-2.19c-.06-.28-.13-.59-.17-.89a7.51,7.51,0,0,0-.14-.81l-.17-.7c0-.06,0,.07,0,.38S141.38,28.86,141.43,29.35Z"/><path class="cls-1" d="M195.79,18.37a2.31,2.31,0,0,1,1.5.75,1.64,1.64,0,0,1,.44,1.48,21.3,21.3,0,0,1-2.84,7.83,27.67,27.67,0,0,1-2.5,3.49,12.39,12.39,0,0,1-3.92,3.13,13,13,0,0,1-6.69,1.25c-.25.85-.37,1.27-.61,2.12v.09a47.37,47.37,0,0,1-2,4.78,19.44,19.44,0,0,1-2.1,3.63,9.83,9.83,0,0,1-3.25,2.39,9.59,9.59,0,0,1-3.93.82,9.25,9.25,0,0,1-4-.78,11.68,11.68,0,0,1-3.31-2.27A18.13,18.13,0,0,1,160,43.79a22.58,22.58,0,0,1-2-4c-.26-.68-.61-1.61-1-2.78s-.89-2.46-1.38-3.86-1-2.84-1.48-4.31-.95-2.87-1.37-4.19A47.37,47.37,0,0,1,151,18.49a4.29,4.29,0,0,1,.53-3.09,7.41,7.41,0,0,1,.74-.84c.27-.25.42-.32.44-.2s.09.33.06.83,0,.93,0,.92a4.07,4.07,0,0,0,.17-1c.12-.83.28-1.28.49-1.33s.38,0,.37.28c0,.12.06.3.11.54a2.21,2.21,0,0,0,.24.68l.32.58,0-.47a4.25,4.25,0,0,1,.33-1.86c.23-.49.43-.63.61-.43s.35,0,.82-.19.76-.11.88.17c.1-.27.56-.33,1.26-.1a9,9,0,0,1,1.44.61,3.69,3.69,0,0,1,1.17,1,13.85,13.85,0,0,1,1.11,1.57c.39.63.83,1.43,1.34,2.37a29.65,29.65,0,0,1,1.65,3.74c.61,1.61,1.43,3.89,2.43,6.84.89,2.65,1.63,4.86,2.23,6.6s1.09,3.17,1.49,4.3.74,2.05,1,2.76a20.68,20.68,0,0,0,1,2,44.88,44.88,0,0,0,2.25-4.2,41,41,0,0,0,1.71-4.45A12.68,12.68,0,0,1,173.63,33a19.47,19.47,0,0,1-2.58-4.52,32.39,32.39,0,0,1-2.37-9,21.32,21.32,0,0,1,0-5.05A10.35,10.35,0,0,1,170.21,10a8.45,8.45,0,0,1,2.29-2.2,10.31,10.31,0,0,1,2.95-1.35,8.54,8.54,0,0,1,3.2-.26,7.86,7.86,0,0,1,3.13,1.09,5.37,5.37,0,0,1,2,2,9.75,9.75,0,0,1,1,2.77,17.79,17.79,0,0,1,.35,3c0,1,0,2,0,3a47.93,47.93,0,0,1-.83,6.58c-.44,2.23-.86,4.76-1.26,7.57v.09a5.35,5.35,0,0,0,1.74-.14,9.39,9.39,0,0,0,1.69-.58,10.31,10.31,0,0,0,2.84-2.36,16.15,16.15,0,0,0,1.88-2.68,17.13,17.13,0,0,0,2.19-6.35,2.3,2.3,0,0,1,.8-1.41A2,2,0,0,1,195.79,18.37ZM176.58,9.63a6.84,6.84,0,0,0-.67,3,29,29,0,0,0,.49,4.76,46.62,46.62,0,0,0,2.26,8.41c.37.8.57,1.12.62,1s.18-1.18.43-3.06a38.92,38.92,0,0,0,.35-8.34,9.89,9.89,0,0,0-1.65-5.28,3.11,3.11,0,0,0-.83-.84C177.2,9,176.86,9.1,176.58,9.63Zm5.26,6c-.09-.17-.12-.23-.12-.17a16.24,16.24,0,0,1,0,1.93c0,.93-.11,1.95-.22,3.07s-.25,2.29-.41,3.51-.32,2.3-.47,3.24c-.23,1.38-.28,2.13-.14,2.23s.37-1,.73-3.14c.3-1.81.54-3.41.66-4.74a29,29,0,0,0,.19-3.85c0-.4-.08-.83-.08-1.23A2.08,2.08,0,0,0,181.84,15.68Zm1.5,1.55a80.7,80.7,0,0,1-1.13,10c-.08.5-.14,1-.19,1.45a6.16,6.16,0,0,1-.21,1.18,6.28,6.28,0,0,0-.16,1.13c0,.06,0,.09.1.08s.15-.27.26-.77.23-1.11.39-1.81.3-1.45.44-2.27.25-1.5.32-2.07a34.18,34.18,0,0,0,.4-3.77c.07-1.27.08-2.32.09-3.09,0-1,0-1.49-.11-1.51S183.36,16.25,183.34,17.23Z"/><path class="cls-1" d="M225.77,17.94a1.86,1.86,0,0,1,1.17,1,1.79,1.79,0,0,1,.05,1.55,8.86,8.86,0,0,1-.43,1.08c-.29.66-.68,1.5-1.16,2.52s-1.09,2.19-1.8,3.5-1.46,2.68-2.25,4.06a45.17,45.17,0,0,1-6.42,8.46c-2.08,2-4.3,3.32-6.3,3.42A13.15,13.15,0,0,1,201,41.4a15.22,15.22,0,0,1-5-5.2,20.65,20.65,0,0,1-2.55-7.32,31.7,31.7,0,0,1-.23-8.32,31.12,31.12,0,0,1,1.92-8.09A21.94,21.94,0,0,1,199,5.86a19.65,19.65,0,0,1,5.84-4.57,11.24,11.24,0,0,1,7.74-.83A5.43,5.43,0,0,1,215.43,2a3.51,3.51,0,0,1,1,2.46A9.12,9.12,0,0,1,215,8.74a28.17,28.17,0,0,1-3.67,5.08c-1.18,1.3-2.22,2.35-3.07,3.14s-1.53,1.46-2.05,2a13.77,13.77,0,0,0-1.15,1.33,2,2,0,0,0-.35,1.25c.05,1.28.08,2.62.1,4s.06,2.77.11,4.11.13,2.6.24,3.78a12,12,0,0,0,.58,2.85,13.39,13.39,0,0,0,.92,2.06,3,3,0,0,0,1,1.24c.76.34,1.64.08,2.65-.77a24.44,24.44,0,0,0,3-3.07c1-1.21,1.89-2.4,2.69-3.59s1.32-2,1.58-2.42c.78-1.33,1.5-2.64,2.16-3.91s1.22-2.4,1.67-3.4l1.5-3.39A2,2,0,0,1,224.06,18,2.45,2.45,0,0,1,225.77,17.94Zm-30.42,2.85a17.7,17.7,0,0,0,.05,3c.09.81.19,1.16.32,1a4.27,4.27,0,0,0,.06-1.33,8.79,8.79,0,0,1,.11-2,54.45,54.45,0,0,1,1.32-5.41A38.62,38.62,0,0,1,199,11c.42-.94.26-.78-.49.49A22.46,22.46,0,0,0,195.35,20.79Zm4.6-5.57a9.09,9.09,0,0,0-.34,1.26c-.11.53-.2,1.05-.27,1.57s-.13,1-.18,1.34-.06.59-.06.65c.28.22.66-.6,1.17-2.46.17-.56.36-1.2.56-1.91s.41-1.41.61-2.09.4-1.31.58-1.87.33-1,.46-1.3c.42-1.12.27-.95-.5.39A25.72,25.72,0,0,0,200,15.22Zm4.49-1.9c-.18.68-.33,1.24-.45,1.67a4.82,4.82,0,0,0-.17.74c.26-.26.89-.93,1.9-2s2-2.25,3-3.53A18.2,18.2,0,0,0,211,6.47c.54-1.2.46-2.12-.25-2.78a.42.42,0,0,0-.37-.13,4.73,4.73,0,0,0-.88.71,16.5,16.5,0,0,0-2.86,3.93A33,33,0,0,0,204.44,13.32Z"/><path class="cls-1" d="M273.43,23.9a3,3,0,0,1,1.34,1.1,1.62,1.62,0,0,1,.23,1.5,37.64,37.64,0,0,0-1.33,3.84q-.84,2.94-2.18,6.72c-.89,2.53-1.93,5.19-3.09,8a61,61,0,0,1-3.75,7.55A20.62,20.62,0,0,1,260.24,58a6.07,6.07,0,0,1-5.08,1.51,8.13,8.13,0,0,1-3.8-1.69,12.83,12.83,0,0,1-2.78-3.13,16.4,16.4,0,0,1-1.79-4,19.85,19.85,0,0,1-.8-4.29,38,38,0,0,1,.18-7.46,59.32,59.32,0,0,1,1.43-7.5q1-3.74,2.19-7.34L252.22,17c.33-1.06.66-2,1-2.94a16.08,16.08,0,0,0,.76-2.61,10.59,10.59,0,0,0,.2-2.6,10,10,0,0,0-.62-2.89,16.66,16.66,0,0,0-5,4.81,32.56,32.56,0,0,0-3.63,7A39.85,39.85,0,0,0,243.26,23q-.63,2.68-1.24,5.37t-1.26,5.42a30.24,30.24,0,0,1-1.61,5.39,3.23,3.23,0,0,1-2.2,1.86,4.73,4.73,0,0,1-2.74-.22,8.12,8.12,0,0,1-2.72-1.69,12.2,12.2,0,0,1-2.19-2.6,31,31,0,0,1-1.81-3.42,45.22,45.22,0,0,1-1.74-4.27q-.81-2.26-1.49-4.67a43.31,43.31,0,0,1-1-4.5,43.39,43.39,0,0,1-.57-6.64,23.12,23.12,0,0,1,.52-5.78,14.75,14.75,0,0,1,1.6-4A6.19,6.19,0,0,1,227.1.81a2.63,2.63,0,0,1,1-.41c.14,0,.14.25,0,.73a11.15,11.15,0,0,1,.77-.93.86.86,0,0,1,.65-.2q.21,0,.15.15l-.29.58a10.77,10.77,0,0,0-1,3,21.88,21.88,0,0,0-.5,3.77,3.3,3.3,0,0,0,0,.69c0,.15.05.17.05.05.08-.36.24-1,.48-1.9s.54-1.82.89-2.75.7-1.76,1-2.5S231,0,231.26,0s.31.11.3.29.07,0,.22-.08a.85.85,0,0,1,.33-.16c.39-.06.75.53.77,1.51.31-.65.58-1,.79-1,.85.05,1.52.76,2,2.1a20.59,20.59,0,0,1,1,5,63.37,63.37,0,0,1,.26,6.52q0,3.53-.11,6.63c-.07,2.06-.1,3.86-.1,5.39A8,8,0,0,0,237,29q.62-2.05,1.25-4.8t1.45-5.64a48.52,48.52,0,0,1,2-5.72,21.54,21.54,0,0,1,3-5,13.17,13.17,0,0,1,4.26-3.51,11.82,11.82,0,0,1,6-1.17,8.91,8.91,0,0,1,5.13,1.71,9.2,9.2,0,0,1,2.85,3.67A14.3,14.3,0,0,1,264,13.23a37,37,0,0,1,0,4.82,28,28,0,0,1-.42,3.2c-.19,1.05-.48,2.29-.86,3.73s-.91,3.21-1.57,5.31S259.6,35,258.6,38.16c-.94,2.9-1.71,5.77-2.37,8.55a21.1,21.1,0,0,0-.08,8.86,2.79,2.79,0,0,0,1.53-.84,14.07,14.07,0,0,0,2.33-3,42.77,42.77,0,0,0,2.24-4c.78-1.55,1.6-3.3,2.41-5.23,1.18-2.82,2.26-5.72,3.28-8.6s1.95-5.81,2.81-8.78A2.33,2.33,0,0,1,271.82,24,1.89,1.89,0,0,1,273.43,23.9Zm-35.65,9.31c.16-.65.3-1.6.57-2.65s.54-2.12.82-3.22.55-2.2.83-3.27.54-2,.8-2.76c.73-2.5,1.45-4.66,2.18-6.48a25.39,25.39,0,0,1,2.41-4.7l.43-.77c.12-.23.15-.35.08-.36-.47.62-.85,1.16-1.13,1.62s-.56.93-.84,1.42l-.66,1.17a44.22,44.22,0,0,0-2.54,7q-1.42,4.86-2.71,10.88c-.19.84-.35,1.59-.49,2.25s-.22,1-.23,1.17-.12.35.07.37a1.53,1.53,0,0,1,.14-.54,1.55,1.55,0,0,0,.13-.49A3.58,3.58,0,0,1,237.78,33.21ZM246.55,11a2.65,2.65,0,0,0,.36-.51c.08-.17.09-.27,0-.27s-.24.2-.52.62-.59.95-.91,1.55-.66,1.23-1,1.87a14.48,14.48,0,0,0-.75,1.66c-.35.88-.73,2-1.14,3.32s-.78,2.66-1.12,4-.62,2.49-.87,3.53-.37,1.72-.4,2c0,.12,0,0,.13-.45s.24-.95.42-1.61a78.43,78.43,0,0,1,2.67-8.9A44.26,44.26,0,0,1,246.55,11Zm4.87,15c-.22.76-.45,1.56-.71,2.38s-.47,1.58-.64,2.26-.32,1.28-.43,1.78-.19.82-.2.94c0,.37.42-.8,1.21-3.51s2-6.93,3.8-12.62a9.1,9.1,0,0,0,.43-1.5c.09-.48.15-.78.16-.9s-.21.2-.48,1-.55,1.84-.92,3-.83,2.55-1.26,4S251.63,25.25,251.42,26Zm5.7-12.14c-.06,0-.22.38-.45,1.17s-.47,1.79-.77,2.88-.75,2.55-1.21,4.14-.9,3-1.3,4.14a72.94,72.94,0,0,0-2.77,11.29c-.13.76-.19,1.13-.31,1.89.15-.64.22-1,.37-1.61.18-.46.41-1.23.7-2.29s.6-2.11.89-3.09c.36-1.27.64-2.32.9-3.05s.46-1.4.63-2,.35-1.27.54-1.95.47-1.59.77-2.69.55-2.22.84-3.46.54-2.23.66-2.85c.05-.29.09-.62.16-.94a7.63,7.63,0,0,0,.16-.85A2.86,2.86,0,0,1,257.12,13.82Zm2.08,7.72c-.13.47-.34,1.17-.64,2.11s-.55,1.86-.81,2.72c-.54,1.8-1.12,3.6-1.64,5.36s-1,3.4-1.36,4.9-.69,2.82-.92,3.92-.38,1.86-.43,2.28,0,.42,0,.19.38-1.31.92-3.18c.24-.81.55-1.92.95-3.3s.8-2.67,1.13-3.83c.38-1.34.71-2.5,1-3.44s.54-1.79.74-2.55.4-1.47.59-2.12.4-1.38.54-2.12c.05-.29.09-.6.17-.9a7.53,7.53,0,0,0,.16-.8l.1-.72c0-.06,0,.05-.15.34S259.33,21.07,259.2,21.54Z"/><path class="cls-1" d="M295.26,30a2.66,2.66,0,0,1,1.11,1.21,1.61,1.61,0,0,1,0,1.51c0,.12-.49,1-1.36,2.6a54.2,54.2,0,0,1-3.51,5.52q-1.11,1.54-2.72,3.65a24.76,24.76,0,0,1-3.64,3.81A16.21,16.21,0,0,1,280.82,51a7.29,7.29,0,0,1-4.8.29,13.29,13.29,0,0,1-7.59-4.78,12.4,12.4,0,0,1-2.32-8.64,22.31,22.31,0,0,1,.85-4.56,60.51,60.51,0,0,1,2.17-5.77c.62-1.5,1.21-2.93,1.83-4.16s1.33-2.5,2.12-3.81c.2-.39.51-1,.93-1.7s.84-1.49,1.29-2.22.89-1.4,1.32-2a3.88,3.88,0,0,1,1-1.07,1.8,1.8,0,0,1,1.58.14,2.61,2.61,0,0,0,1.1.41c.39-.21.52-.15.39.19,0,.14-.05.21-.07.36a4.35,4.35,0,0,1,.84-.49.4.4,0,0,1,.42.06,2.14,2.14,0,0,0,.38.23,3.72,3.72,0,0,1,.72.7l.55.43c-.09.68-.14,1-.24,1.71a28.26,28.26,0,0,1-1.6,6.15q-1.14,3-2.44,5.88c-.87,1.93-1.69,3.9-2.45,5.89a34.6,34.6,0,0,0-1.68,6.22,14,14,0,0,0-.18,2.16,8.83,8.83,0,0,0,.31,2.55,3.65,3.65,0,0,0,1.17,1.89,2.47,2.47,0,0,0,2.36.25,9.64,9.64,0,0,0,4.15-2.7,36.92,36.92,0,0,0,3.93-4.7q1.81-2.58,3.32-5.15c1-1.71,1.71-3.11,2.18-4.06a1.81,1.81,0,0,1,1.23-.94A2.2,2.2,0,0,1,295.26,30ZM268.37,40.55a.93.93,0,0,1,0-.55,6.18,6.18,0,0,0,.08-1q0-.56.06-1.2a6.11,6.11,0,0,0,0-1l.35-2.07c.08-.43.12-.64.19-1.07a1,1,0,0,0-.17.43.89.89,0,0,0-.18.47,4.09,4.09,0,0,1-.21.65,9.14,9.14,0,0,0-.38,1.36,5,5,0,0,0-.13,1c0,.16-.05.46-.05.83A9.51,9.51,0,0,0,268,39.5c0,.35.08.66.13.91s.11.4.17.41Zm14-38.9a.51.51,0,0,1,.33,0c.21.06.12.22-.21.51s-.35.38-.24.41a1.82,1.82,0,0,0,.77-.28,1.51,1.51,0,0,1,1-.22c.24.06.34.25.28.54s.05.3.29.17c.42-.21.61-.17.59.11s.31.58.45.81.21.56.45.5a1.84,1.84,0,0,1,1,1,2.58,2.58,0,0,1,.48,1.39c0,.33-.47.66-1,1s-.82.66-.83.81-.17.46-.56.61-.68.13-.87,0-.33-.21-.41-.11a.38.38,0,0,1-.42.17c-.17,0-.29-.23-.39-.47s-.27-.32-.31-.08c-.1.48-.36.5-.78.09-.12-.16-.23-.23-.34-.23A1.7,1.7,0,0,1,281,8c-1.76-1.37-2.35-2.9-1.66-4.42a4.46,4.46,0,0,1,1.25-1.66,1.14,1.14,0,0,1,1.32-.24A.39.39,0,0,0,282.33,1.65Z"/><path class="cls-1" d="M331.32,44.67a2.86,2.86,0,0,1,1,1.47,1.66,1.66,0,0,1-.22,1.54c-.82,1.12-1.66,2.36-2.55,3.62s-1.74,2.39-2.78,3.77-2.12,2.79-3.24,4.24c-2.57,3.19-4.68,5.69-6.39,7.46a46.64,46.64,0,0,1-4.3,3.94,7.26,7.26,0,0,1-3.66,1.75,6.88,6.88,0,0,1-3.65-.65,8.12,8.12,0,0,1-3-2.56,9.43,9.43,0,0,1-1.69-4.12,22.54,22.54,0,0,1-.23-4.63,36.22,36.22,0,0,1,.87-5.84,39.52,39.52,0,0,1,1.59-5.27,10.46,10.46,0,0,1-2,1.18,8.89,8.89,0,0,1-4.59,1A9.19,9.19,0,0,1,292,50.22a8.74,8.74,0,0,1-2.25-2,7.62,7.62,0,0,1-1.23-3,14.47,14.47,0,0,1-.26-6.14A18.25,18.25,0,0,1,290.35,33a17.5,17.5,0,0,1,4.21-5,13.57,13.57,0,0,1,5.91-2.82,25.48,25.48,0,0,1,6.09-.44c2.17.08,5.83,1.64,7,1.38.42-.1,1.23-1.36,1.77-2.11s1.11-1.5,1.72-2.22c.73-.87,1.54-1.81,2.43-2.8a37.78,37.78,0,0,1,2.83-2.83,15.68,15.68,0,0,1,3.27-2.28,12.62,12.62,0,0,1,3.93-1.29,7.82,7.82,0,0,1,2.65.1,14.8,14.8,0,0,1,2.93.89,8.55,8.55,0,0,1,2.48,1.61,5.76,5.76,0,0,1,1.54,2.33,3.46,3.46,0,0,1-.8,3.64,15.08,15.08,0,0,1-4.12,3q-2.66,1.41-5.85,2.76c-2.13.91-5.14,1.75-6,2.69-2.06,2.22-3.22,8.49-4.51,11.85s-2.44,6.46-3.46,9.32-1.92,5.62-2.73,8.3S310,64.75,309.29,68l.09,0a5.21,5.21,0,0,0,.92-.67,12.21,12.21,0,0,0,1-.93c.82-.81,1.69-1.71,2.64-2.65s1.69-1.76,2.6-2.86,1.91-2.24,2.86-3.42c1.2-1.5,2.34-3.06,3.42-4.53s2-2.81,2.85-4q1.44-2.09,2.72-4a1.89,1.89,0,0,1,1.35-.79A2.05,2.05,0,0,1,331.32,44.67ZM293.89,32.88c.52-.71,1.07-1.38,1.61-2s1.06-1.16,1.54-1.64a4.61,4.61,0,0,0-1.45.91,9.37,9.37,0,0,0-1.3,1.39,15.45,15.45,0,0,0-1,1.44,4.2,4.2,0,0,0-.53,1.06c0,.12.07.07.3-.14A7.11,7.11,0,0,0,293.89,32.88Zm2.2,13.78a14.75,14.75,0,0,0,3.45-2.38c1.15-1,2.18-2.08,3.09-3.05.67-.71,1.46-1.6,2.3-2.66s1.68-2.15,2.51-3.25,1.59-2.16,2.3-3.17a22.66,22.66,0,0,0,1.6-2.57c.14-.2.1-.31-.11-.33a15.37,15.37,0,0,0-1.78.09c-6,.41-10,3.45-12.13,8.67A20.57,20.57,0,0,0,296.09,46.66Zm4-.42-.76.69c-.05,0,.17,0,.51-.2a21.36,21.36,0,0,0,1.75-1.28,16,16,0,0,0,1.87-1.62,23,23,0,0,0,4.28-5.9q-1.95,2.53-3.94,4.73A35.37,35.37,0,0,1,300.06,46.24Zm8.08-10.07a4.58,4.58,0,0,0,.56-.8,6.44,6.44,0,0,1,.59-.88c.54-.82.58-.94.11-.35l-2.14,2.65q-1.44,1.77-3.11,3.89a36.12,36.12,0,0,1-2.81,3.24c1-1,1.81-1.86,2.52-2.62s1.47-1.61,2.27-2.52A24.91,24.91,0,0,0,308.14,36.17Zm-6.28,11.21c-.49.49-.68.76-.56.71s.51-.31,1.19-.76c.35-.26.68-.52,1-.78l1-.87a7,7,0,0,1,.51-1.34c-.5.51-1,1-1.54,1.53S302.37,46.88,301.86,47.38Zm23.66-32.22a29.79,29.79,0,0,0-10.76,12.29,67.74,67.74,0,0,0,4.55-5.93A24.43,24.43,0,0,1,324.53,16Q325.43,15.42,325.52,15.16Zm3-.56c0-.09-.36,0-.92.28A13.57,13.57,0,0,0,325.83,16c-.69.48-1.37,1-2,1.46a19.27,19.27,0,0,0-1.79,1.74c-.6.65-1.27,1.45-2,2.38s-1.53,2.09-2.43,3.48a15.91,15.91,0,0,0-1,1.77,3,3,0,0,0-.51,1.58,1.28,1.28,0,0,1,.26-.47,1.64,1.64,0,0,0,.29-.56,46.25,46.25,0,0,1,7.07-9c.87-.74,1.78-1.49,2.75-2.25A20.26,20.26,0,0,1,328.53,14.6Zm1.1,1.27a9.18,9.18,0,0,0-2.45,1.62,19,19,0,0,0-2.52,2.58c-.76,1-1.58,2.06-2.37,3.28s-1.37,2.15-1.73,2.78c-.17.36-.25.54-.41.9l.63-.9a26.44,26.44,0,0,1,2.59-3.44q1.59-1.82,3-3.35c.93-1,1.73-1.87,2.4-2.53S329.72,15.84,329.63,15.87Zm4.86,0a1.6,1.6,0,0,0-1.41.28,14.21,14.21,0,0,0-1.92,1.35c-.67.55-1.29,1.09-1.87,1.62a10.72,10.72,0,0,0-1.09,1.08,30.16,30.16,0,0,0-2.26,3,10.33,10.33,0,0,1-1.21,1.67c-.17.06,0,0,.56-.29s1.26-.6,2.16-1.06,1.85-1,2.89-1.59a21.28,21.28,0,0,0,2.75-1.9A5.58,5.58,0,0,0,334.74,18,2.07,2.07,0,0,0,334.49,15.91Zm.88,3.77a1.56,1.56,0,0,0,.43-.83c0-.17-.17-.1-.45.23a21.1,21.1,0,0,1-3.68,3.08,38.83,38.83,0,0,1-4.94,2.93,2.93,2.93,0,0,1-.59.37c-.19.09-.29.16-.31.21q1.51-.71,2.43-1.17c.62-.31,1.23-.64,1.86-1a12.1,12.1,0,0,0,1.43-.87c.82-.54,1.59-1.08,2.3-1.6A8.74,8.74,0,0,0,335.37,19.68Z"/><path class="cls-1" d="M358.47,60.26a2.49,2.49,0,0,1,.62,1.56,1.69,1.69,0,0,1-.61,1.41,19,19,0,0,1-1.57,1.08,16.71,16.71,0,0,1-4,1.83,14.57,14.57,0,0,1-10.41-.24l-.91,1a16.78,16.78,0,0,1-4.51,2.69,10,10,0,0,1-4.7.74,9,9,0,0,1-4.47-1.75A13.4,13.4,0,0,1,324,63.81a11,11,0,0,1-1.15-5.14,13,13,0,0,1,1.17-5.6c.38-.81.78-1.63,1.2-2.45l1.23-2.39a16.72,16.72,0,0,1,1.21-2,15.65,15.65,0,0,1,1-1.35,1.73,1.73,0,0,0,.43-.69,11.06,11.06,0,0,0,0-1.38,10.5,10.5,0,0,1,.47-3.3,7.56,7.56,0,0,1,1.49-2.71c.55-.64,1-1.15,1.36-1.48a6.67,6.67,0,0,1,1.63-1,7.21,7.21,0,0,1,2.49-.61,12.77,12.77,0,0,1,6.62,1.45,10.59,10.59,0,0,1,3,2.42A27,27,0,0,1,347.9,40a15.92,15.92,0,0,1,1.61,3c1.59,3.85,1.5,8.05-.17,12.57l-.76,1.61c-.31.65-.64,1.31-1,2a20.46,20.46,0,0,1-1.13,1.91c-.39.6-.71,1.06-.94,1.41a10.18,10.18,0,0,0,5.33-.41,14.82,14.82,0,0,0,3.32-1.53,14.13,14.13,0,0,0,1.28-.92,1.77,1.77,0,0,1,1.46-.32A2.57,2.57,0,0,1,358.47,60.26ZM334.68,40.45l1.21.12a5.39,5.39,0,0,1,1.31.16,2,2,0,0,1-.36.47c-.2.2-.21.28,0,.23-.13-.06,0-.11.51-.14l.65-.17c.25-.06.42-.06.51,0a.35.35,0,0,1,.12.26.67.67,0,0,1-.06.28c0,.08,0,0,.15-.08a1.13,1.13,0,0,1,.53,0c.18,0,.25.1.2.21a2.45,2.45,0,0,1-.46.56c-.27.27-.29.32-.11.25a.89.89,0,0,1,.42,0,1.08,1.08,0,0,0,.42,0c.34-.09.55-.08.62,0a.49.49,0,0,1,.08.35,1.06,1.06,0,0,1-.09.36c-.05.11,0,.11.22,0l.33-.22c.07.27.1.41.17.69a2,2,0,0,1,.06.54,2.74,2.74,0,0,1-.32.74,11.27,11.27,0,0,1-1,1.52c-.5.64-1.21,1.59-2.12,2.86l-2.24,3a16.5,16.5,0,0,0,1.63,4,13.4,13.4,0,0,0,3.57,4l.47-.55a14.51,14.51,0,0,0,1.83-2.44,28.35,28.35,0,0,0,1.5-2.94c1.8-4.06,2.14-7.87,1-11.3a8.76,8.76,0,0,0-1-2.13,12,12,0,0,0-1.72-2.14,6.47,6.47,0,0,0-2.19-1.46,4,4,0,0,0-2.5-.14,4.38,4.38,0,0,0-2.8,2.39ZM333,65.79a3.4,3.4,0,0,0,1-.39l1.37-.78c.48-.27.93-.55,1.34-.83a10.84,10.84,0,0,0,1-.73,5.69,5.69,0,0,1-1.81-1.36,20.29,20.29,0,0,1-1.6-1.88,16.2,16.2,0,0,1-1.1-1.65c-.27-.48-.35-.69-.23-.62-.24-.13-.39.25-.47,1.11s-.1,1.85-.09,2.94a23.33,23.33,0,0,0,.21,2.94C332.74,65.42,332.89,65.81,333,65.79Z"/><path class="cls-1" d="M416,109.67a2.74,2.74,0,0,1,.49,1.77,1.6,1.6,0,0,1-.76,1.28,7.86,7.86,0,0,1-.89.48c-.55.29-1.29.64-2.21,1.07s-2,1-3.18,1.6-2.42,1.35-3.66,2.11a27.42,27.42,0,0,1-7.41,3.32,11.83,11.83,0,0,1-5.66.19,8.09,8.09,0,0,1-4.13-2.49,17.4,17.4,0,0,1-3-4.78,6.16,6.16,0,0,1-.58-2.53,10.52,10.52,0,0,1,.44-2.93,30.12,30.12,0,0,1,1.36-3.77q.92-2.11,2.37-5l-1.06.56a21.49,21.49,0,0,1-2.14,1,6.12,6.12,0,0,1-2.85.23,5,5,0,0,1-2-.64,17.21,17.21,0,0,1-2-1.39c-.52-.43-.93-.8-1.21-1a3.47,3.47,0,0,1-.73-.85,13.23,13.23,0,0,1-1.13-1.92,9.14,9.14,0,0,1-.59-1.81,10,10,0,0,1,.54-5.89A25.08,25.08,0,0,1,385,76.48a15.08,15.08,0,0,1,6.48-2.79,19.09,19.09,0,0,1,8.34.69,23.72,23.72,0,0,1,7.91,4.09,25.4,25.4,0,0,1,6.42,7c.47.79.83,1.44,1.09,1.94a5.07,5.07,0,0,1,.49,1.73c0,.35.17.54.45.58s.38.37.59,1a4.09,4.09,0,0,1,.12,1.8,6.15,6.15,0,0,1-.58,2,7,7,0,0,1-1.38,1.68,23.63,23.63,0,0,1-2.18,1.91q-1.56,1.17-3.53,2.61l-4.18,3q-2.21,1.57-4.17,3.08c-1.32,1-2.5,1.94-3.55,2.8a21,21,0,0,0-2.22,2.11c-.65.72-1.36,1.4-1.82,2a2.38,2.38,0,0,0-.59,1.67.78.78,0,0,0,.42.73,3,3,0,0,0,.94.34,4.33,4.33,0,0,0,1.09.06l1-.07c1-.26,2.05-.56,3.07-.91a37.81,37.81,0,0,0,4.38-1.89c1.29-.63,2.52-1.27,3.67-1.88s2.16-1.18,3-1.67,1.82-1.07,2.87-1.71a1.55,1.55,0,0,1,1.5-.08A3.07,3.07,0,0,1,416,109.67ZM389.85,79.09c.83-.44,1.2-.7,1.11-.77a5.62,5.62,0,0,0-1.72.48,11.27,11.27,0,0,0-3,1.42,14.48,14.48,0,0,0-2.71,3c-.58.78-.84,1.2-.69,1.24a1.11,1.11,0,0,0,.5-.37,5.86,5.86,0,0,1,1-1c.51-.45,1.09-.93,1.74-1.45s1.33-1,2-1.48S389.38,79.38,389.85,79.09Zm-2.74,7.18a21.93,21.93,0,0,1,3.43-2.51A38.29,38.29,0,0,0,394,81.51c-.34-.29-.88-.27-1.62.09a14.93,14.93,0,0,0-2.3,1.4,27.29,27.29,0,0,0-2.18,1.75A9.2,9.2,0,0,0,386.64,86c-.83,1-1.22,1.48-1.16,1.53A6.34,6.34,0,0,0,387.11,86.27ZM385,96.54a13.57,13.57,0,0,0,2.33-.73c1-.38,2-.8,3.07-1.26l3.2-1.38c1-.45,2-.86,2.86-1.13a9.6,9.6,0,0,0,2.77-1.33c.81-.59,1.62-1.21,2.44-1.87A28.78,28.78,0,0,1,404.21,87a11.51,11.51,0,0,1,3-1.32c.12,0,0-.17-.22-.38a2.94,2.94,0,0,0-1-.52,14,14,0,0,0-4.31-.9,13.08,13.08,0,0,0-4.37.64,11.89,11.89,0,0,0-2.07.89q-1.2.61-2.43,1.32a19.63,19.63,0,0,0-2.4,1.6,23.2,23.2,0,0,0-2,1.68,12.07,12.07,0,0,0-1.07,1.26c-.46.6-.92,1.24-1.39,1.91L384.73,95a6,6,0,0,0-.69,1.19c-.07.17-.11.26-.17.43Zm25.19-3q-1.71,1.22-4,3t-4.42,3.71q-2.12,1.92-3.8,3.54a26.42,26.42,0,0,0-2.26,2.38c-.25.33-.28.42-.09.29.75-.73,1.64-1.55,2.68-2.47s2.12-1.86,3.24-2.81,2.27-1.87,3.43-2.74,2.34-1.64,3.29-2.33c.53-.39,1.11-.88,1.72-1.34s1.12-.74,1.4-.92a2.76,2.76,0,0,0,.65-.62l.3-.38c0-.2-.3-.21-.78-.05A6,6,0,0,0,410.14,93.53Z"/></g></svg>