<svg id="Capa_1" data-name="Capa 1" xmlns="http://www.w3.org/2000/svg" viewBox="0 0 416.43 269.67"><g id="Capa_1-2" data-name="Capa 1"><path d="M29.82,101.93H53.08c1.76,0,3.54-.12,5.09,1,.36.25.66.73,1.2.45,5.67-3,11.74-.8,17.6-1.37,1.44-.14,3.5-.23,3.9,1.56s-1.49,2.5-2.91,3a2.49,2.49,0,0,0-2,2.78q.12,6.54,0,13c0,2.39,1,2.22,2.56,1.36s2.87-1.6,4.32-2.39a17.59,17.59,0,0,1,8.77-2.24c7.15.1,11.17,4,11.25,11.15q.15,12.15,0,24.32c0,2.45.29,4.34,2.86,5.36,1,.4,2.29,1.07,2.09,2.5-.17,1.16-1.3,1.68-2.31,1.94a32.51,32.51,0,0,1-16.62,0c-1-.26-2.1-.85-2.2-2s1-1.87,1.93-2.25c2.65-1,3.11-3,3-5.6-.17-6.93,0-13.87-.07-20.8,0-5.49-3-7.7-8.23-6.29-.79.21-1.57.47-2.37.68-5,1.27-5,1.27-5,6.66,0,6.7.06,13.39,0,20.09,0,2.31.29,4.13,2.72,5.1,1,.41,2.37,1.05,2.28,2.4-.1,1.52-1.59,2-2.81,2.29-5.43,1.06-10.94,1.47-16.27-.31-2.9-1-3-2.65-.33-4s3.25-3.42,3.23-6.24c-.12-14.58-.22-29.15.07-43.72.06-3.56-2.4-3.77-4.31-5-.49-.31-.82,0-1,.54-2.11,4.39-6.61,6.18-10,9.14-2,1.69-4,3-1,5.72a2.42,2.42,0,0,1,.2,3.42,2.25,2.25,0,0,1-.79.58,3.61,3.61,0,0,1-5-.84c-1.24-1.49-1.11-3.26-.7-5a36.77,36.77,0,0,1,3.38-8.12c1.4-2.74.47-3.57-2.31-3.54-9.3.11-7.77-.91-7.82,7.5-.08,12.45.11,24.91-.11,37.36-.06,3.33,1,5.36,3.88,6.71a3,3,0,0,1,.6.35c1.47,1.21,4.36,1.74,3.74,4s-3.39,2.5-5.42,2.43a142.61,142.61,0,0,0-16.54.09,7,7,0,0,1-2.75-.52c-1.19-.4-2.77-.63-3-2.09s1.11-2.38,2.25-2.82c5.42-2.09,6.32-6.14,6.17-11.48-.36-12.57-.19-25.15-.06-37.72,0-2.92-.85-3.92-3.8-3.87-8.61.14-8.37-.37-4.67,7.23a15.09,15.09,0,0,1,1.89,6.37c0,2.2-.75,4-3.13,4.45-1.45.31-2.84.13-3.71-1.3a2.57,2.57,0,0,1,.52-3.52c2.43-2,1.2-3.35-.56-4.71-2.6-2-5.3-3.91-7.8-6C1.43,108.36-.75,107,.25,104.49,1,102,3.32,102,5.48,102H29.82Z"/><path d="M366.82,118.8h10.27a13.4,13.4,0,0,1,4.49.71,4.11,4.11,0,0,1,3.09,4.22,3.59,3.59,0,0,1-3.16,3.68c-2.14.36-4.53.49-5.39-2-.63-1.81-1.64-2-3.15-2h-9.51c-1.65,0-3.57.09-3.95,2.13s1.42,2.52,2.8,3.1c3.9,1.61,7.86,3.09,11.76,4.71a27.27,27.27,0,0,1,8.85,5.64,16.27,16.27,0,0,1,2.9,19.84c-2.36,4.2-5.89,6.81-10.87,6.39a111.29,111.29,0,0,0-19.66,0c-4.34.4-8.24-.93-10.49-5s-1.37-7.9,1.39-11.47c.62-.81,1.38-2,1.2-2.84-.84-3.83,1.76-3.32,3.85-3.13,3.38.31,5.45,2.36,5.66,5.69s2.12,4.64,5.21,4.9a23.55,23.55,0,0,0,7.35-.31c2.25-.52,4.28-1.55,4.87-4.05s-.67-4.33-2.49-5.81a44,44,0,0,0-9.45-5.39A92.29,92.29,0,0,1,350,131.25c-2.33-1.56-4.36-3.4-3.86-6.55s3.12-4.19,5.76-5C357,118.21,362.3,119,366.82,118.8Z"/><path d="M394.68,141.67c0-3.75-.05-7.51,0-11.26.05-2.82.33-5.46-3.17-6.86-1.91-.76-1.67-2.33.47-3.14,3.12-1.19,3.52-3.43.79-5.54-2.18-1.67-1-2.51.53-3.25A60.82,60.82,0,0,0,404.48,105c.64-.5,1.42-1.08,2.23-.53s.4,1.45.13,2.22c-1.48,4.11-.42,8.38-.74,12.56-.09,1.23.55,1.7,1.71,1.5.69-.12,1.37-.33,2.06-.47,6-1.21,7.7.58,5.85,6.28a6.6,6.6,0,0,0-.21,4.14c.54,1.61,1.48,3.08-1.07,3.76-2.39.63-4.48.39-5.75-2a6.67,6.67,0,0,1-.51-4.46c.17-.86.17-1.72-1.07-1.67-1,0-1,.77-1,1.5V156.7c0,2,1.8,2.23,3,3.06,2.49,1.75,2.56,3.26-.26,4.12a27.57,27.57,0,0,1-17.18-.08c-2.6-.89-2.69-2.59-.15-3.85s3.26-3.21,3.15-5.92c-.16-4.1,0-8.21,0-12.32Z"/><path d="M239.47,130.46c0,7.86.09,15.72,0,23.58-.05,2.68.24,4.84,3.13,5.9.93.33,2,1,1.83,2.28a2.71,2.71,0,0,1-2.3,2,32.32,32.32,0,0,1-16.57,0c-1-.27-2.12-.86-2.27-2s.94-1.89,1.88-2.27c2.62-1,3.13-2.94,3.11-5.58-.07-14.43,0-28.86.1-43.29,0-2.55-.29-4.65-3-5.66a1.81,1.81,0,0,1-1.36-2.16h0c.27-1.08,1.17-1.37,2.19-1.37h10.91c2.4,0,2.51,1.52,2.51,3.31v25.34Z"/><path d="M121.38,248.66c8.4-1.37,8.4-1.37,8.4,6.55v8.45c0,1.56.51,2.89,2.3,2.94s3.77-.72,3.89-2.75c.24-4.2.06-8.44,0-12.66,0-1.67-1.66-1.72-2.82-2.67,2.69-.92,5.25-.32,7.74-.46,1.59-.1,1.51,1.06,1.51,2.15v12.68c0,1.91-.18,3.8,2.17,5-2.44.44-5.8,2.08-7.15,1.07-3-2.25-4.64.42-6.84.65-4.12.43-6.93-1.69-7.09-5.85-.13-3.52-.07-7,0-10.56C123.51,251.36,123.54,249.63,121.38,248.66Z"/><path d="M182.38,268.78H172.25c2.8-4.11,2.83-26.92-.39-30.57h7.2c1.9,0,1.5,1.41,1.5,2.5v22.83C180.53,265.45,180.52,267.26,182.38,268.78Z"/><path d="M294.82,268.55H282.66c3.25-3.55,3.26-17.3.23-20.17,4.86-1.48,7.66-.88,8.54,1.89a30.92,30.92,0,0,1,3.7-2.52c2-.95,4-.78,5.22,1.29a2.88,2.88,0,0,1-.39,3.88c-1.81,1.57-3.25.7-4.81-.83-2.23-2.19-3.43.1-3.58,1.66a115.44,115.44,0,0,0-.17,11.91C291.42,267.32,293.26,267.17,294.82,268.55Z"/><path d="M216,264.27c-3.76,5.32-9.35,6.63-13.85,3.71s-6-10.23-3-15.5c2.64-4.56,9.09-6.49,13.53-4.07a4.86,4.86,0,0,1,2.37,2.5,3,3,0,0,1-.43,3.31,2.93,2.93,0,0,1-2.89.87c-1.42-.29-1.78-1.39-1.94-2.61-.19-1.43.38-3.44-1.85-3.57s-3.14,1.78-3.51,3.7a20.55,20.55,0,0,0-.41,4.88C204.45,265.5,208.41,268,216,264.27Z"/><path d="M196.11,268.75H185c2.82-4.67,2.76-17.51-.62-20.84h7.3c1.86,0,1.6,1.3,1.6,2.44v12C193.27,264.56,192.71,267,196.11,268.75Z"/><path d="M302.24,269.25c-2.44-.35-3.75-1.79-3.56-4.07a3.49,3.49,0,0,1,3.48-3.49,3.81,3.81,0,0,1,.59,0,3.46,3.46,0,0,1,3.49,3.4,3,3,0,0,1-.05.6C306,268.16,304.46,269.17,302.24,269.25Z"/><path d="M190.26,237.58a3.2,3.2,0,0,1,3.25,3.14,2.88,2.88,0,0,1,0,.59c-.12,2.12-1.47,3.14-3.51,3.1a3,3,0,0,1-3.29-2.67,3.53,3.53,0,0,1,0-.65C186.68,238.85,187.93,237.67,190.26,237.58Z"/><path d="M406.5,65.93a37.65,37.65,0,0,0-11.88-8.06c-9.64-4.36-19.88-6.42-30.28-7.71-27.89-3.45-55.81-2.26-83.72-.23-25.55,1.87-51,5.11-76.29,8.8a17,17,0,0,1-10.51-1.85,157.58,157.58,0,0,1-25.48-16.33c-9.12-7.22-9-17.22.28-24.3A41.4,41.4,0,0,1,192.8,7.69c12.64-.46,24,2.93,33.36,11.6,6.43,6,6.49,14.22.68,20.77a24.63,24.63,0,0,1-15.23,8.11c-3.59.56-7.17,1.25-10.71,2.06-1.41.32-3.49.67-3.23,2.57.2,1.5,2.25,1.35,3.54,1.74,2,.59,4,.11,6-.1,10-1.08,19.83-2.77,28.39-8.51,11.93-8,13.18-22.27,2.92-32.26A31.74,31.74,0,0,0,229,7.16a86.66,86.66,0,0,0-49.69-5.82C169.44,3,160.07,5.88,152.41,12.73c-5.72,5.1-7.38,11.46-5.9,18.84,1.14,5.76,4.48,10,9,13.4A124,124,0,0,0,177,57.72c1.22.58,2.64.9,3.49,2.28-5.65,2.43-11.09,3.68-16.92.42a140.64,140.64,0,0,0-14-6.59C120.11,41.52,89.55,36,57.63,39.12,45.75,40.28,34.2,42.94,23.44,48.3,16,52,9.44,56.81,4.92,64.09,2.18,68.53,2.51,72.76,5.2,77c3,4.64,7.36,7.54,12.2,9.81a78,78,0,0,0,32.36,7.45c21,.34,41.24-4,61.19-10.38,17.54-5.64,35.2-11,53.38-14.34A7.94,7.94,0,0,1,172,71.76,231.71,231.71,0,0,1,196.46,99.9a1,1,0,0,1,0,1.42h-3.69c-7.36.29-13.38,3.19-17.85,9.14-9.6,12.83-9.12,37,1,49.43,3.26,4,7.24,6.23,12.6,5.42a26.43,26.43,0,0,1,8.42,0c7.4,1.3,12.21-2.12,15.34-8.45A56.26,56.26,0,0,0,217.82,123c-.81-5.44-2.39-10.93-6.79-14.35-5.27-4.09-8.53-9.59-12.42-14.67a178.38,178.38,0,0,0-22.84-25.36c11.73-5.38,22.84-3.91,33.83,1,3.11,1.38,6.22,2.78,9.43,3.9a634.65,634.65,0,0,0,83.59,22.66c23.39,4.76,46.9,8.65,70.92,7.87,9.57-.3,19-1.26,27.71-5.72C413.91,91.73,416.37,76.22,406.5,65.93ZM157,64.77c-.17,1.24-1.69,1.5-2.81,1.79l-23.56,6c-18.1,4.57-36.11,9.6-54.71,11.9C63.82,86,51.82,86.8,39.75,84.26a32.12,32.12,0,0,1-11.09-4.37c-8.33-5.45-9.27-14-2.29-21.19,4.77-4.89,10.91-7.25,17.32-9,11-2.92,22.24-3.53,33.55-3.57,25.23,0,49.44,5.16,72.9,14.21a41.37,41.37,0,0,1,4.47,2.09c1,.57,2.53,1,2.34,2.34ZM207,116.26c3.3,9.27,3.79,18.47-.36,27.45-3.13,6.78-9.33,9.51-16.68,7.9-6.56-1.44-9.26-7.61-6.28-14.37a13.46,13.46,0,0,1,5.27-6c2.49-1.55,5.09-2.93,7.66-4.32,4.52-2.45,8.77-5.12,10.39-10.66Zm-4.51-5.64c1.11,3.35.06,6.25-2.43,8.61a25.18,25.18,0,0,1-6.24,3.88c-10,5.07-11.14,6.3-15.71,16.81-1.82-8.39-2-16,1-23.45s8.87-11.17,16.46-10.4c3.06.3,5.85,1.3,6.92,4.55Zm181.39-21c-5.31,3.35-11.33,4.48-17.43,5.1-14.72,1.51-29.32,0-43.85-2.12A516.48,516.48,0,0,1,228,69.38c-1.87-.66-3.69-1.49-5.52-2.28a22.74,22.74,0,0,1-2.1-1.29c6.47-2.41,12.5-3.25,18.5-4.14,30.59-4.5,61.33-7.14,92.28-6.28,14.68.41,29.33,1.39,43.4,6.19a32.1,32.1,0,0,1,11.08,6C393.1,74.14,392.28,84.33,383.9,89.62Z"/><path d="M392.38,184.47c-6.59-4.51-14.1-6.92-21.81-8.63-21.76-4.85-43.82-4.71-65.91-3.68-26.56,1.24-52.81,5.16-79.07,9-32,4.66-64,8.67-96.28,10.13-23.69,1.08-47.14.66-70.48-3.92C46.52,185,34,183.82,21.59,181.27c.16,1.36,1.13,1.74,1.8,2.34C32,191.3,40.59,198.9,49.06,206.7a7.51,7.51,0,0,0,6.9,2.07,259.15,259.15,0,0,1,52-2.15c10.78.67,21,3.8,31.45,5.89a956.92,956.92,0,0,0,120.76,15.94c28.14,2,56.31,2.77,84.43-.44,13.57-1.55,27-3.9,39.34-10.19,6-3,11.45-6.9,14-13.36C402,193.81,400.12,189.76,392.38,184.47Zm-23,23.43c-8.26,5.93-18,8-27.75,9.49-21.45,3.37-43.06,3.32-64.68,2.33a842.19,842.19,0,0,1-126.52-15c-2.22-.44-4.53-.69-6.46-2.33,12.26-1.69,24.42-3.52,36.57-5.35,30.31-4.57,60.61-9.3,91.11-12.47,24.77-2.57,49.58-4.79,74.52-2.51A70.73,70.73,0,0,1,361.36,185a41.23,41.23,0,0,1,6.51,2.63c9.95,5.21,10.64,13.7,1.49,20.27Z"/><path d="M294.49,159c-2.71-1.19-3.17-3.21-3.11-5.91.15-7.63.05-15.26.05-22.89h.06c0-8.1-.06-16.2,0-24.3,0-3-1.09-4.29-4.16-4.14-3.4.15-6.81,0-10.21,0-1.3,0-2.77-.12-3.21,1.48-.48,1.77.89,2.67,2.2,3.11,3.53,1.18,4.62,3.57,4.11,7.07a27.77,27.77,0,0,0,0,3.87c0,4.65,0,4.65-4.38,2.65-9.76-4.5-18.73-1.77-24.18,7.47-4.56,7.75-5.09,16-2.51,24.47,2.74,9,9.35,14,18.73,13.27A201.36,201.36,0,0,1,290,164.8a13.57,13.57,0,0,0,3.48-.4c1.48-.34,3.27-.68,3.56-2.42S295.72,159.53,294.49,159Zm-14.36-20.31h0v8.79c0,2.71-1.29,4.24-4,4.33-3.4.11-6.8.15-10.19,0-2.63-.11-4.13-2-5.36-4.08-3.31-5.52-2.52-15.64,1.55-20.68,2.77-3.42,6.44-4.13,10.47-3.13,6.13,1.52,7.52,3.46,7.5,9.84Z"/><path d="M339.45,148.62c-1.28-1.44-2.65-3-4.14,0a7.29,7.29,0,0,1-4.4,3.32c-4.74,1.7-9.43,1.22-14.17-.13-2.89-.82-3-2.33-1.74-4.64,1.94-3.46,5.12-5.41,8.43-7.21,4.53-2.46,9.45-4.21,13.53-7.46,3.32-2.65,4.8-6.21,3.7-9.19-1.38-3.76-4.78-4.28-8.09-4.4-5.28-.18-10.57-.17-15.84,0a15.46,15.46,0,0,0-12.68,6.6c-6.71,9.7-8.05,20.19-2.81,30.94,3,6.15,7.93,9.8,15.33,8.73,1.62-.24,3.27-.27,4.9-.39v.47c3.16,0,6.34.17,9.48,0a10.74,10.74,0,0,0,9.68-7.06C342,154.84,342,151.5,339.45,148.62Zm-29.51-2c-3-5.37-2.41-15,.88-19.15,3.13-3.94,12.68-5.44,17-2.59,2.35,1.56,2.32,3.65.87,5.79a10,10,0,0,1-4.17,3.17c-5.95,2.9-11.78,5.92-14.58,12.74Z"/><path d="M154.31,149.25c-1.43-1.83-2.9-3.7-4.76-.14-1,1.93-3.12,2.79-5.2,3.37a21.54,21.54,0,0,1-12.81-.44c-3.47-1.15-3.77-1.88-1.93-5,2.33-3.94,6.25-5.9,10.13-7.87s8.15-3.66,11.66-6.48c2.95-2.36,4.86-5.37,3.69-9.19s-4.73-4.31-8-4.43c-5.28-.18-10.56-.14-15.84,0a16.56,16.56,0,0,0-12.08,5.68c-7.66,8.35-8.71,24.94-2.16,34.19,3.29,4.65,7.55,7.27,13.48,6.48,1.86-.25,3.74-.27,5.61-.4v.44c3.16,0,6.34.15,9.48,0a10.63,10.63,0,0,0,9.33-6.52C156.42,155.64,156.68,152.29,154.31,149.25Zm-29.92-2.52c-5.14-8.8-1.22-20.93,7-22.72a17.78,17.78,0,0,1,9.38.32c3.74,1.24,4.48,4.61,1.58,7.31a13.52,13.52,0,0,1-3.18,2.16C133.21,136.86,127.18,139.75,124.39,146.73Z"/><path d="M252.05,253.76c-1-.57-2.15-1-3.63-1.67,3.74-1.6,6.68-3.33,6.17-7.58-.41-3.46-2.89-5.09-5.88-5.73-6.45-1.39-13-.47-19.63-.26,3.55.88,3.81,3.29,3.72,6.2-.18,5.63-.15,11.27,0,16.9.06,3,.23,5.9-3.88,6.8,7,.18,13.87,1.16,20.62-.53a9.82,9.82,0,0,0,2.87-1.31C257.61,263.32,257.45,256.74,252.05,253.76Zm-12-11.16c.14-2.86,1.86-3.88,4.46-2.65s2.53,3.69,2.53,6-.48,4.42-3.07,5.32c-3.17,1.1-3.91.62-3.94-2.75v-2.45h0c0-1.13,0-2.3.05-3.47Zm6.19,23.57a4.77,4.77,0,0,1-4.63.89c-1.91-.66-1.55-2.39-1.59-3.87v-3.51a16.83,16.83,0,0,1,0-2.46c.22-1.29-.84-3.12.81-3.78s3.25,0,4.69.88c3.39,2.05,3.85,9.47.75,11.85Z"/><path d="M112.94,238.81c-6.33-1.05-12.73-.25-19.48,0,4.07.75,3.78,3.64,3.78,6.34V261.7c0,2.92.28,6-3.55,7.13h14.45l1-1c-5.08.32-4.61-2.71-4.59-5.47a31.23,31.23,0,0,0,0-3.87c-.24-2.3.34-3.5,3-3.27a18.53,18.53,0,0,0,5.25-.48c4.27-.86,7.11-4.1,7.18-8C120.05,242.66,117.62,239.59,112.94,238.81Zm-.88,9.13c-.09,2.62-1,4.8-4,5.4-2.33.47-3.91.13-3.45-2.85a25.41,25.41,0,0,0,0-3.49v-3.85c.08-3,1.77-4.16,4.55-2.83C112.48,241.89,112.16,245.06,112.06,247.94Z"/><path d="M169,254.06a8.79,8.79,0,0,0-4.35-5.71c-3.1-1.61-6.07-.78-9.26,1v-3.87c0-7.76,0-7.76-8-7.15a11.53,11.53,0,0,0-1.12.54c2.84.93,2.79,2.87,2.77,4.9q-.09,10.74,0,21.46c0,1.33-.38,2.75.56,4.28,2.2-2.46,4.37-2.17,6.8-.56,1.5,1,3.41.7,5.15.3C167.7,267.87,171,261,169,254.06Zm-7.31,11.69a3.1,3.1,0,0,1-3.55,2.23c-1.82-.23-2.55-1.57-2.65-3.21-.11-2,0-4,0-6h0v-5.26a3.23,3.23,0,0,1,2.78-3.5,3.11,3.11,0,0,1,3.52,2.3A20.25,20.25,0,0,1,161.7,265.75Z"/><path d="M278,265.39c-.06-.58-.08-1.16-.09-1.75v-4.93c0-1.64-.07-3.06,0-4.58.2-3.37-1.54-5.28-4.57-6.21a14.26,14.26,0,0,0-8.67,0,6,6,0,0,0-4.19,3.94,3.08,3.08,0,0,0,4.9,3.4A2.32,2.32,0,0,0,266,252l-.16-.21c-1.6-2.4.15-2.95,1.91-3.06s3.63.52,3.79,2.77c.16,2.05,1.21,4.5-2.21,5.28a18.12,18.12,0,0,0-7.92,3.67,4.9,4.9,0,0,0-1.52,6c1,2.23,2.91,3,5.19,2.83a8.6,8.6,0,0,0,4.89-1.79c1-.81,1.51-.82,2.44.36,1.79,2.28,4.13,1.68,6.32.39C281.94,266.45,278.12,266.4,278,265.39Zm-6.47-4.52c.24,2.63.1,4.91-3,5.1-1.83.11-2.34-1.42-2.29-2.89a4.72,4.72,0,0,1,4.24-4.83c2.16-.25.52,2,1.05,2.62Z"/></g></svg>