<svg xmlns="http://www.w3.org/2000/svg" viewBox="0 0 25 25"><defs><style>.cls-1{fill:#ffe255;}</style></defs><g id="Capa_1" data-name="Capa 1"><path class="cls-1" d="M12.51,8.34a4.17,4.17,0,1,0,4.16,4.16A4.16,4.16,0,0,0,12.51,8.34Z"/><path class="cls-1" d="M24.94,7.35a9.34,9.34,0,0,0-.58-3A6.42,6.42,0,0,0,20.7.66a9.2,9.2,0,0,0-3-.58C16.32,0,15.9,0,12.51,0S8.69,0,7.35.07a9.34,9.34,0,0,0-3,.58A6.19,6.19,0,0,0,2.1,2.1,6.22,6.22,0,0,0,.66,4.31a9.19,9.19,0,0,0-.58,3C0,8.68,0,9.11,0,12.5s0,3.82.07,5.16a9.4,9.4,0,0,0,.58,3,6.42,6.42,0,0,0,3.66,3.66,9.47,9.47,0,0,0,3,.58C8.68,25,9.11,25,12.5,25s3.82,0,5.15-.07a9.41,9.41,0,0,0,3-.58,6.4,6.4,0,0,0,3.66-3.66,9.46,9.46,0,0,0,.58-3C25,16.32,25,15.9,25,12.5S25,8.68,24.94,7.35ZM12.51,18.92a6.42,6.42,0,1,1,6.42-6.42A6.42,6.42,0,0,1,12.51,18.92ZM19.18,7.33a1.5,1.5,0,1,1,1.5-1.5A1.5,1.5,0,0,1,19.18,7.33Z"/></g></svg>