<svg id="Capa_1" data-name="Capa 1" xmlns="http://www.w3.org/2000/svg" viewBox="0 0 108.37 71.13"><defs><style>.cls-1{fill:#ffe255;}</style></defs><path class="cls-1" d="M7.8,26.51h6.05a2.19,2.19,0,0,1,1.33.25c.09.07.17.19.31.12,1.47-.78,3-.21,4.58-.36.37,0,.91-.06,1,.41s-.38.65-.75.77a.64.64,0,0,0-.53.72q0,1.7,0,3.39c0,.63.26.58.67.36s.74-.42,1.12-.62A4.53,4.53,0,0,1,23.87,31a2.67,2.67,0,0,1,2.93,2.9q0,3.16,0,6.33c0,.64.08,1.13.74,1.39.27.11.6.28.55.65s-.34.44-.6.51a8.58,8.58,0,0,1-4.33,0c-.26-.07-.54-.22-.57-.53s.26-.49.5-.59c.69-.27.81-.78.8-1.46-.05-1.8,0-3.6,0-5.41,0-1.43-.77-2-2.14-1.63l-.62.17c-1.3.33-1.3.33-1.3,1.74,0,1.74,0,3.48,0,5.22,0,.6.08,1.08.71,1.33.27.11.61.27.59.62s-.41.54-.73.6a8.31,8.31,0,0,1-4.23-.08c-.76-.25-.79-.69-.09-1A1.5,1.5,0,0,0,16.88,40c0-3.79-.05-7.58,0-11.37,0-.92-.62-1-1.12-1.3-.13-.08-.21,0-.27.14-.55,1.15-1.72,1.61-2.61,2.38-.51.44-1.05.79-.26,1.49a.63.63,0,0,1-.16,1,.94.94,0,0,1-1.31-.22A1.42,1.42,0,0,1,11,30.88a9.06,9.06,0,0,1,.88-2.11c.36-.72.12-.93-.6-.92-2.42,0-2-.24-2,1.95,0,3.24,0,6.48,0,9.72a1.66,1.66,0,0,0,1,1.74l.16.09c.38.32,1.13.45,1,1s-.88.65-1.41.64a34.28,34.28,0,0,0-4.3,0,1.84,1.84,0,0,1-.72-.14c-.31-.1-.72-.16-.78-.54s.29-.62.59-.73c1.41-.55,1.64-1.6,1.6-3-.09-3.27-.05-6.54,0-9.81,0-.76-.23-1-1-1-2.24,0-2.18-.09-1.22,1.88a3.94,3.94,0,0,1,.49,1.66,1,1,0,0,1-.81,1.16.83.83,0,0,1-1-.34A.68.68,0,0,1,3,31.28c.63-.51.31-.87-.15-1.22-.67-.53-1.37-1-2-1.57-.41-.34-1-.69-.71-1.35s.84-.62,1.4-.62H7.8Z"/><path class="cls-1" d="M95.46,30.9h2.67a3.54,3.54,0,0,1,1.17.19,1.07,1.07,0,0,1,.8,1.1.92.92,0,0,1-.82,1c-.55.1-1.18.13-1.4-.52-.16-.47-.43-.51-.82-.5-.82,0-1.65,0-2.47,0-.43,0-.93,0-1,.55s.37.66.73.8c1,.43,2,.81,3.06,1.23a7.06,7.06,0,0,1,2.3,1.47,4.25,4.25,0,0,1,.75,5.14A2.87,2.87,0,0,1,97.57,43a28.25,28.25,0,0,0-5.12,0,2.62,2.62,0,0,1-2.73-1.3,2.55,2.55,0,0,1,.37-3c.16-.21.36-.53.31-.74-.22-1,.46-.86,1-.82a1.49,1.49,0,0,1,1.47,1.48c.06.91.55,1.21,1.36,1.28a6.44,6.44,0,0,0,1.91-.08,1.49,1.49,0,0,0,1.27-1.06,1.47,1.47,0,0,0-.65-1.51,11.5,11.5,0,0,0-2.46-1.4,23.18,23.18,0,0,1-3.23-1.71c-.61-.4-1.14-.88-1-1.7s.81-1.09,1.5-1.29A15.09,15.09,0,0,1,95.46,30.9Z"/><path class="cls-1" d="M102.71,36.85c0-1,0-2,0-2.94,0-.73.09-1.41-.83-1.78-.49-.2-.43-.61.13-.82.81-.31.91-.89.2-1.44s-.25-.65.14-.84a16,16,0,0,0,2.9-1.73c.17-.14.37-.28.58-.14s.11.37,0,.58c-.39,1.07-.11,2.17-.2,3.26,0,.32.15.44.45.39s.36-.08.53-.12c1.57-.31,2,.15,1.53,1.63a1.74,1.74,0,0,0-.06,1.08c.14.42.39.8-.28,1a1.15,1.15,0,0,1-1.49-.52,1.72,1.72,0,0,1-.13-1.16c0-.23,0-.45-.28-.44s-.27.2-.27.39c0,2.51,0,5,0,7.51,0,.52.47.58.78.8.65.46.66.85-.07,1.07a7.19,7.19,0,0,1-4.47,0c-.67-.23-.7-.67,0-1a1.41,1.41,0,0,0,.82-1.54c0-1.07,0-2.14,0-3.2Z"/><path class="cls-1" d="M62.34,33.93c0,2,0,4.09,0,6.13,0,.7.06,1.26.81,1.54.25.08.53.27.48.59a.71.71,0,0,1-.6.51,8.51,8.51,0,0,1-4.31,0c-.26-.08-.55-.23-.59-.52s.25-.49.49-.59c.68-.27.81-.77.81-1.45,0-3.76,0-7.51,0-11.27,0-.66-.07-1.2-.78-1.47a.46.46,0,0,1-.35-.56c.07-.28.3-.36.57-.36h2.83c.63,0,.66.39.66.86q0,3.29,0,6.59Z"/><path class="cls-1" d="M31.62,64.68c2.19-.36,2.19-.36,2.19,1.7,0,.73,0,1.46,0,2.2,0,.4.13.75.6.76s1-.18,1-.71c.06-1.1,0-2.2,0-3.3,0-.43-.44-.44-.74-.69a7,7,0,0,1,2-.12c.41,0,.39.28.39.56,0,1.1,0,2.2,0,3.3,0,.49,0,1,.57,1.29-.64.11-1.51.54-1.86.28-.78-.59-1.21.11-1.78.17a1.51,1.51,0,0,1-1.85-1.53c0-.91,0-1.83,0-2.74C32.18,65.38,32.18,64.93,31.62,64.68Z"/><path class="cls-1" d="M47.49,69.91H44.85c.73-1.07.74-7-.1-7.95h1.87c.5,0,.4.36.4.64,0,2,0,4,0,5.94A1.51,1.51,0,0,0,47.49,69.91Z"/><path class="cls-1" d="M76.73,69.85H73.57c.85-.92.85-4.5.06-5.25,1.27-.38,2-.23,2.23.49a6.75,6.75,0,0,1,1-.65,1,1,0,0,1,1.36.33.75.75,0,0,1-.11,1c-.47.41-.84.19-1.25-.21-.58-.57-.89,0-.93.43-.09,1,0,2.06,0,3.1C75.85,69.53,76.33,69.49,76.73,69.85Z"/><path class="cls-1" d="M56.23,68.74a2.59,2.59,0,0,1-3.61,1,3.09,3.09,0,0,1-.76-4,2.75,2.75,0,0,1,3.52-1.06,1.25,1.25,0,0,1,.61.65.79.79,0,0,1-.11.86.75.75,0,0,1-.75.23c-.37-.08-.46-.36-.51-.68s.1-.9-.48-.93-.81.46-.91,1A5.46,5.46,0,0,0,53.12,67C53.23,69.06,54.26,69.69,56.23,68.74Z"/><path class="cls-1" d="M51.06,69.9h-2.9c.74-1.21.72-4.55-.16-5.42h1.9c.49,0,.42.34.42.63v3.11C50.32,68.81,50.17,69.44,51.06,69.9Z"/><path class="cls-1" d="M78.67,70A.93.93,0,0,1,77.74,69a.91.91,0,0,1,1.06-.89.9.9,0,0,1,.9,1A.94.94,0,0,1,78.67,70Z"/><path class="cls-1" d="M49.54,61.79a.83.83,0,0,1,.83,1,.89.89,0,0,1-1.77,0A.86.86,0,0,1,49.54,61.79Z"/><path class="cls-1" d="M105.79,17.14a9.7,9.7,0,0,0-3.09-2.09,26.89,26.89,0,0,0-7.88-2A110.84,110.84,0,0,0,73,13c-6.64.49-13.25,1.33-19.84,2.29a4.44,4.44,0,0,1-2.75-.48,41,41,0,0,1-6.62-4.25c-2.38-1.88-2.34-4.48.07-6.32A10.76,10.76,0,0,1,50.19,2a11.65,11.65,0,0,1,8.68,3,3.65,3.65,0,0,1,.17,5.4,6.35,6.35,0,0,1-4,2.11c-.93.15-1.86.33-2.78.54-.37.08-.91.17-.85.67s.59.35.93.45a3.86,3.86,0,0,0,1.55,0,15.87,15.87,0,0,0,7.38-2.21,5.16,5.16,0,0,0,.76-8.39,8.3,8.3,0,0,0-2.48-1.7A22.58,22.58,0,0,0,46.66.34a13.38,13.38,0,0,0-7,3,4.84,4.84,0,0,0-1.53,4.91,5.64,5.64,0,0,0,2.35,3.48A32.43,32.43,0,0,0,46.08,15c.31.15.68.23.9.59a4.64,4.64,0,0,1-4.4.11A34.48,34.48,0,0,0,38.94,14,48.66,48.66,0,0,0,15,10.17a25.1,25.1,0,0,0-8.9,2.39,11.28,11.28,0,0,0-4.82,4.1A2.93,2.93,0,0,0,1.39,20a7.13,7.13,0,0,0,3.17,2.55A20.24,20.24,0,0,0,13,24.51a49,49,0,0,0,15.91-2.7,111.15,111.15,0,0,1,13.89-3.73,2,2,0,0,1,2,.58A60,60,0,0,1,51.14,26a.25.25,0,0,1,0,.37c-.29,0-.62,0-1,0a5.8,5.8,0,0,0-4.64,2.38c-2.5,3.34-2.37,9.62.26,12.86A3.36,3.36,0,0,0,49.06,43a6.71,6.71,0,0,1,2.19,0,3.5,3.5,0,0,0,4-2.2A14.68,14.68,0,0,0,56.7,32a5.51,5.51,0,0,0-1.76-3.73,19.59,19.59,0,0,1-3.24-3.82,45.79,45.79,0,0,0-5.94-6.6,10.19,10.19,0,0,1,8.8.25c.81.36,1.62.73,2.46,1A166.55,166.55,0,0,0,78.76,25,79.55,79.55,0,0,0,97.21,27a16.57,16.57,0,0,0,7.21-1.49A5.18,5.18,0,0,0,105.79,17.14Zm-64.91-.3c-.05.32-.45.39-.74.47L34,18.87A117.3,117.3,0,0,1,19.78,22a28.19,28.19,0,0,1-9.39-.06A8.4,8.4,0,0,1,7.5,20.77c-2.16-1.41-2.41-3.64-.59-5.51a9.42,9.42,0,0,1,4.5-2.33A34.2,34.2,0,0,1,20.14,12a52,52,0,0,1,19,3.7,9.42,9.42,0,0,1,1.16.54C40.52,16.38,40.92,16.5,40.88,16.84Zm13,13.4a9.1,9.1,0,0,1-.1,7.13,3.59,3.59,0,0,1-4.33,2.06c-1.71-.37-2.41-2-1.64-3.74a3.58,3.58,0,0,1,1.37-1.56c.65-.4,1.33-.76,2-1.12A4.76,4.76,0,0,0,53.9,30.24Zm-1.17-1.47A2.06,2.06,0,0,1,52.09,31a6.78,6.78,0,0,1-1.62,1c-2.59,1.31-2.9,1.63-4.09,4.37a10.1,10.1,0,0,1,.27-6.1,4,4,0,0,1,4.28-2.71A1.85,1.85,0,0,1,52.73,28.77Zm47.18-5.46a10.2,10.2,0,0,1-4.53,1.32A45,45,0,0,1,84,24.08a134.42,134.42,0,0,1-24.61-6c-.48-.17-1-.39-1.43-.59a5.72,5.72,0,0,1-.55-.34A22.26,22.26,0,0,1,62.19,16a137.88,137.88,0,0,1,24-1.64A37.87,37.87,0,0,1,97.49,16a8.41,8.41,0,0,1,2.88,1.56A3.45,3.45,0,0,1,99.91,23.31Z"/><path class="cls-1" d="M102.12,48a16,16,0,0,0-5.68-2.25c-5.66-1.26-11.4-1.22-17.14-.95-6.91.32-13.74,1.34-20.57,2.34-8.31,1.21-16.64,2.25-25,2.63a76.56,76.56,0,0,1-18.33-1c-3.2-.63-6.46-.92-9.69-1.59,0,.36.3.46.47.61,2.23,2,4.48,4,6.68,6a2,2,0,0,0,1.79.54,67.25,67.25,0,0,1,13.53-.56,61.08,61.08,0,0,1,8.18,1.53,249.8,249.8,0,0,0,31.41,4.15,120.33,120.33,0,0,0,22-.12,29.31,29.31,0,0,0,10.23-2.65,6.86,6.86,0,0,0,3.63-3.48C104.63,50.41,104.13,49.36,102.12,48Zm-6,6.09a16.21,16.21,0,0,1-7.22,2.47,83.8,83.8,0,0,1-16.83.61,219.42,219.42,0,0,1-32.91-3.9,3.42,3.42,0,0,1-1.68-.6c3.19-.44,6.35-.92,9.52-1.39,7.88-1.19,15.76-2.42,23.7-3.25,6.44-.67,12.89-1.24,19.38-.65a18.44,18.44,0,0,1,4,.74,11.75,11.75,0,0,1,1.69.69C98.34,50.16,98.51,52.36,96.13,54.07Z"/><path class="cls-1" d="M76.65,41.35c-.7-.31-.82-.83-.81-1.54,0-2,0-4,0-6h0c0-2.11,0-4.21,0-6.32,0-.78-.28-1.12-1.08-1.08s-1.77,0-2.66,0c-.33,0-.72,0-.83.39s.23.69.57.8A1.48,1.48,0,0,1,73,29.5a6.8,6.8,0,0,0,0,1c0,1.21,0,1.21-1.14.69a4.56,4.56,0,0,0-6.29,1.94,7.7,7.7,0,0,0-.65,6.37A4.44,4.44,0,0,0,69.73,43a52.58,52.58,0,0,1,5.75-.09,4,4,0,0,0,.91-.1c.38-.09.85-.18.93-.63S77,41.49,76.65,41.35Zm-3.73-5.28h0c0,.76,0,1.52,0,2.29a1,1,0,0,1-1,1.12c-.88,0-1.77,0-2.65,0a1.75,1.75,0,0,1-1.39-1.06,5.39,5.39,0,0,1,.4-5.37A2.47,2.47,0,0,1,71,32.23c1.59.4,2,.9,2,2.56Z"/><path class="cls-1" d="M88.35,38.65c-.34-.37-.69-.77-1.08,0a1.92,1.92,0,0,1-1.14.86,5.89,5.89,0,0,1-3.69,0c-.75-.22-.79-.61-.45-1.21a5.06,5.06,0,0,1,2.19-1.88,22.31,22.31,0,0,0,3.52-1.94,2.2,2.2,0,0,0,1-2.39c-.36-1-1.24-1.11-2.1-1.14-1.37-.05-2.75-.05-4.12,0a4,4,0,0,0-3.3,1.72,7.54,7.54,0,0,0-.73,8,3.6,3.6,0,0,0,4,2.27c.43-.06.85-.06,1.28-.1V43c.82,0,1.65,0,2.47,0a2.8,2.8,0,0,0,2.51-1.84A2.2,2.2,0,0,0,88.35,38.65Zm-7.68-.53a5.31,5.31,0,0,1,.23-5,4.05,4.05,0,0,1,4.41-.67,1,1,0,0,1,.23,1.5,2.72,2.72,0,0,1-1.09.83C82.91,35.56,81.4,36.35,80.67,38.12Z"/><path class="cls-1" d="M40.19,38.82c-.37-.48-.76-1-1.24,0a2,2,0,0,1-1.35.88,5.6,5.6,0,0,1-3.34-.12c-.9-.3-1-.49-.5-1.3a5.8,5.8,0,0,1,2.64-2.05,16.59,16.59,0,0,0,3-1.68,2.18,2.18,0,0,0,1-2.4c-.3-1-1.23-1.12-2.09-1.15-1.37,0-2.75,0-4.12,0A4.36,4.36,0,0,0,31,32.44a7.85,7.85,0,0,0-.56,8.89A3.53,3.53,0,0,0,34,43c.48-.06,1-.07,1.46-.1V43c.82,0,1.65,0,2.47,0a2.77,2.77,0,0,0,2.42-1.7A2.24,2.24,0,0,0,40.19,38.82Zm-7.79-.66c-1.33-2.29-.31-5.44,1.82-5.91a4.47,4.47,0,0,1,2.43.09,1,1,0,0,1,.42,1.9,3.9,3.9,0,0,1-.83.56C34.7,35.59,33.13,36.35,32.4,38.16Z"/><path class="cls-1" d="M65.61,66c-.27-.15-.56-.26-.94-.43,1-.42,1.73-.87,1.6-2a1.72,1.72,0,0,0-1.53-1.5,20.69,20.69,0,0,0-5.1-.06c.92.23,1,.85,1,1.61,0,1.46,0,2.93,0,4.4,0,.78.06,1.53-1,1.76A19.66,19.66,0,0,0,65,69.68a2.92,2.92,0,0,0,.74-.34A1.86,1.86,0,0,0,65.61,66ZM62.5,63.1c0-.74.48-1,1.16-.69s.66,1,.66,1.57-.13,1.15-.8,1.39c-.83.28-1,.16-1-.72V64h0C62.5,63.71,62.48,63.4,62.5,63.1Zm1.61,6.13a1.26,1.26,0,0,1-1.21.23c-.49-.17-.4-.62-.41-1s0-.6,0-.91a3.42,3.42,0,0,1,0-.64c0-.33-.22-.81.21-1a1.4,1.4,0,0,1,1.22.23A2.21,2.21,0,0,1,64.11,69.23Z"/><path class="cls-1" d="M29.43,62.11a26,26,0,0,0-5.07,0c1.06.19,1,.94,1,1.65v4.3c0,.76.08,1.55-.92,1.86h3.76l.26-.27c-1.32.08-1.2-.71-1.19-1.43a8.34,8.34,0,0,0,0-1c-.06-.6.09-.91.78-.85a5.31,5.31,0,0,0,1.37-.13,2.2,2.2,0,0,0,1.87-2.07A2,2,0,0,0,29.43,62.11Zm-.23,2.38a1.29,1.29,0,0,1-1.05,1.4c-.6.12-1,0-.89-.74a6.91,6.91,0,0,0,0-.91c0-.33,0-.66,0-1,0-.79.46-1.08,1.18-.73S29.22,63.74,29.2,64.49Z"/><path class="cls-1" d="M44,66.08a2.26,2.26,0,0,0-1.13-1.48,2.38,2.38,0,0,0-2.41.26v-1c0-2,0-2-2.07-1.86l-.29.14c.74.25.72.75.72,1.28,0,1.86,0,3.72,0,5.58A1.77,1.77,0,0,0,39,70.1,1.19,1.19,0,0,1,40.74,70a1.72,1.72,0,0,0,1.34.08A3,3,0,0,0,44,66.08Zm-1.9,3a.81.81,0,0,1-.92.58.77.77,0,0,1-.69-.83c0-.52,0-1,0-1.55h0c0-.46,0-.92,0-1.37a.83.83,0,0,1,.72-.91.81.81,0,0,1,.92.59A5.35,5.35,0,0,1,42.11,69.12Z"/><path class="cls-1" d="M72.37,69a3.55,3.55,0,0,1,0-.46V67.29c0-.4,0-.79,0-1.19a1.47,1.47,0,0,0-1.19-1.62,3.68,3.68,0,0,0-2.25,0,1.54,1.54,0,0,0-1.09,1,.76.76,0,0,0,.33,1,.78.78,0,0,0,.94-.07.6.6,0,0,0,.12-.9c-.41-.62,0-.77.5-.79s.94.13,1,.72.31,1.17-.58,1.37a4.76,4.76,0,0,0-2.06,1,1.29,1.29,0,0,0,1,2.3,2.27,2.27,0,0,0,1.27-.47c.27-.21.39-.21.63.1.47.59,1.08.43,1.65.1C73.39,69.3,72.39,69.29,72.37,69Zm-1.69-1.18c.06.69,0,1.28-.77,1.33-.48,0-.61-.37-.6-.75a1.22,1.22,0,0,1,1.11-1.26C71,67.1,70.54,67.68,70.68,67.85Z"/></svg>