<svg xmlns="http://www.w3.org/2000/svg" viewBox="0 0 74.79 58.51"><defs><style>.cls-1{fill:#fff;}</style></defs><g id="Capa_1" data-name="Capa 1"><path class="cls-1" d="M8.46,19.47c-.16.55-.3,1.09-.43,1.6L7.6,22.81c-.13.51-.23.93-.28,1.23a1.18,1.18,0,0,1-1,1,3.13,3.13,0,0,1-1.53-.12A3.67,3.67,0,0,1,3.36,24a2.27,2.27,0,0,1-.66-1.63,13,13,0,0,1,.41-2.54c.26-1.15.64-2.52,1.13-4.06s1.07-3.22,1.74-5c.58-1.54,1.23-3.1,1.93-4.63a1.58,1.58,0,0,1,1.25-.91,9.48,9.48,0,0,1,3.24.1A.9.9,0,0,1,13,6.58c-.59,1.31-1.13,2.63-1.61,3.9-.4,1-.77,2.06-1.13,3.06a.11.11,0,0,0,.16.14,11.28,11.28,0,0,0,1.4-.76,10.4,10.4,0,0,0,2-1.71A8.69,8.69,0,0,0,15.31,9a6.11,6.11,0,0,0,.54-2.55,3.18,3.18,0,0,0-.95-2.56,4.16,4.16,0,0,0-2.7-.81A6.48,6.48,0,0,0,8.89,4,10.19,10.19,0,0,0,6.31,6.1,10.42,10.42,0,0,0,4.64,8.77a6.38,6.38,0,0,0-.59,2.4,1,1,0,0,1-.72,1A2,2,0,0,1,2,12.09a2.82,2.82,0,0,1-1.21-1A3.06,3.06,0,0,1,.26,9.21a5.42,5.42,0,0,1,.8-2.5A10.34,10.34,0,0,1,3.38,3.92,13.73,13.73,0,0,1,7.16,1.63a13.54,13.54,0,0,1,5.2-.95,14.48,14.48,0,0,1,3.28.38,10.21,10.21,0,0,1,2.93,1.17,6.91,6.91,0,0,1,2.11,1.94A4.63,4.63,0,0,1,21.5,6.9,6.71,6.71,0,0,1,20.78,10a8.82,8.82,0,0,1-1.94,2.52A12.47,12.47,0,0,1,16,14.44a18.5,18.5,0,0,1-2.82,1.15c-.06,0-.08.05-.08.12,0,.49.06,1,.11,1.43s.13,1.06.22,1.55.19,1,.31,1.41.2.68.31,1,.15.41.23.6a11.67,11.67,0,0,0,.5,1.07,8.54,8.54,0,0,0,.57.93,6.85,6.85,0,0,0,.62.78,8,8,0,0,0,.67.64,6.54,6.54,0,0,0,.71.5,5.68,5.68,0,0,0,.74.37,4.88,4.88,0,0,0,1.57.35,5.91,5.91,0,0,0,.84,0,6.83,6.83,0,0,0,.87-.14,7.76,7.76,0,0,0,.9-.28,8.56,8.56,0,0,0,.93-.42l.36-.19a.86.86,0,0,1,1,1.39c-.16.15-.33.29-.49.42-.4.33-.79.63-1.18.9s-.75.49-1.12.7c-.18.11-.38.21-.57.31a9.63,9.63,0,0,1-1.15.51,10.26,10.26,0,0,1-1.12.35,8.89,8.89,0,0,1-1.11.19,6.74,6.74,0,0,1-.77,0h-.31a6,6,0,0,1-1-.12,4.05,4.05,0,0,1-.5-.12,4.66,4.66,0,0,1-.49-.16,5.53,5.53,0,0,1-.93-.42,7.7,7.7,0,0,1-.85-.55,8.24,8.24,0,0,1-.65-.55,7.6,7.6,0,0,1-.72-.77,10,10,0,0,1-.64-.88c-.2-.3-.39-.63-.57-1s-.34-.71-.49-1.08-.29-.76-.42-1.16-.23-.82-.33-1.25-.19-.89-.26-1.34-.12-.82-.16-1.24a.12.12,0,0,0-.23,0"/><path class="cls-1" d="M74.53,3.29A3.29,3.29,0,1,1,71.24,0a3.29,3.29,0,0,1,3.29,3.29"/><path class="cls-1" d="M73.8,16.56a1,1,0,0,0-.79-.41.9.9,0,0,0-.74.38c-.2.29-.44.62-.72,1a13,13,0,0,1-2,2.14,1.14,1.14,0,0,1-.66.33c-.08,0-.24,0-.28-.42a5.5,5.5,0,0,1,.2-1.67,17,17,0,0,1,.72-2.3c.31-.85.63-1.65.94-2.4s.6-1.42.84-2,.4-.9.46-1.06a1.17,1.17,0,0,0-.2-1.29,2.49,2.49,0,0,0-1.22-.74,3.24,3.24,0,0,0-1.58,0,2.11,2.11,0,0,0-1.4,1,23.5,23.5,0,0,0-1.14,2.25c-.46,1-.91,2.15-1.33,3.36-.26.73-.49,1.48-.71,2.23a6.32,6.32,0,0,1-2.08,3.18A13.88,13.88,0,0,1,61,21c-.17.11-.35.22-.52.31s-.12,0-.08-.08a14.81,14.81,0,0,0,.9-1.3,18.35,18.35,0,0,0,1.62-3.38,15.78,15.78,0,0,0,1-3.72A8,8,0,0,0,63.73,10,3.74,3.74,0,0,0,62.63,8a2.9,2.9,0,0,0-2-.7A4.58,4.58,0,0,0,58.17,8a10.72,10.72,0,0,0-1.39,1.08s-.07,0-.09,0a1.86,1.86,0,0,0-.38-.42A2.74,2.74,0,0,0,55,8.09a2.91,2.91,0,0,0-1.49.1,1.92,1.92,0,0,0-1.16,1.06c-.47,1-1,2.21-1.49,3.54s-1,2.72-1.48,4.13c0,.15-.11.31-.16.47a6.42,6.42,0,0,1-2.15,3l-.82.58c-.18.11-.35.22-.53.31s-.11,0-.07-.08c.3-.4.6-.83.89-1.3a18.35,18.35,0,0,0,1.63-3.38,16.21,16.21,0,0,0,.94-3.72A8,8,0,0,0,49,10,3.74,3.74,0,0,0,47.9,8a2.88,2.88,0,0,0-2-.7A4.52,4.52,0,0,0,43.45,8a10.19,10.19,0,0,0-1.4,1.08s-.07,0-.09,0a1.86,1.86,0,0,0-.38-.42,2.74,2.74,0,0,0-1.29-.59,2.88,2.88,0,0,0-1.48.1,1.91,1.91,0,0,0-1.17,1.06c-.47,1-1,2.21-1.48,3.54s-.95,2.54-1.4,3.86a6.09,6.09,0,0,1-1.58,2.51c-.2.19-.38.36-.57.51A1.12,1.12,0,0,1,32,20c-.08,0-.24,0-.27-.42a5.18,5.18,0,0,1,.19-1.67,18.53,18.53,0,0,1,.72-2.3c.31-.84.63-1.64.94-2.4s.6-1.42.85-2,.4-.9.46-1.06a1.19,1.19,0,0,0-.21-1.29,2.4,2.4,0,0,0-1.24-.74,3.24,3.24,0,0,0-1.58,0,2.1,2.1,0,0,0-1.38,1l-.21.36c0,.05-.09,0-.1,0a3.6,3.6,0,0,0-.31-.85,2.42,2.42,0,0,0-.93-1,2.94,2.94,0,0,0-1.55-.37,6.6,6.6,0,0,0-4.38,2,14.19,14.19,0,0,0-3.52,6.17,15,15,0,0,0-.74,3.7A8.25,8.25,0,0,0,19,22.06,3.93,3.93,0,0,0,20.16,24a3,3,0,0,0,2,.7,4.3,4.3,0,0,0,1.61-.29,5.93,5.93,0,0,0,1.34-.72,6.1,6.1,0,0,0,.86-.74.36.36,0,0,1,.6.14,2.38,2.38,0,0,0,.36.77,2,2,0,0,0,1.79.84,4.5,4.5,0,0,0,2.68-1c.41-.31.81-.64,1.21-1a.12.12,0,0,1,.19.12c-.23.76-.44,1.47-.62,2.13-.31,1.11-.56,2.06-.75,2.84a7.37,7.37,0,0,0-.29,1.45,2.34,2.34,0,0,0,.59,1.62,3.2,3.2,0,0,0,1.3.89,2.66,2.66,0,0,0,.93.17,1.86,1.86,0,0,0,.48-.05,1.14,1.14,0,0,0,.92-1h0c.05-.35.15-.82.29-1.4s.32-1.29.53-2,.43-1.58.71-2.55c.13-.44.26-.91.41-1.4a.12.12,0,0,1,.21,0,3.53,3.53,0,0,0,.21.32,2.47,2.47,0,0,0,2.11.9l.57,0h0A10.47,10.47,0,0,0,44.33,24a15.65,15.65,0,0,0,3.12-1.65.12.12,0,0,1,.18.13c-.27.89-.51,1.71-.72,2.47-.32,1.12-.57,2.07-.76,2.84a7.71,7.71,0,0,0-.28,1.45,2.34,2.34,0,0,0,.59,1.62,3.13,3.13,0,0,0,1.3.89,2.62,2.62,0,0,0,.93.17,1.91,1.91,0,0,0,.48-.05,1.15,1.15,0,0,0,.92-1h0c.06-.35.15-.82.3-1.4s.32-1.29.53-2,.43-1.59.71-2.55c.12-.44.26-.91.4-1.4a.12.12,0,0,1,.22,0,2.2,2.2,0,0,0,.21.32,2.47,2.47,0,0,0,2.11.9l.57,0h0A10.51,10.51,0,0,0,59.06,24a15.88,15.88,0,0,0,3.59-2l.52-.41a.12.12,0,0,1,.19.09v.14a3.5,3.5,0,0,0,.53,2,2,2,0,0,0,1.78.84,4.57,4.57,0,0,0,2.7-1,15.06,15.06,0,0,0,2.4-2.2A21.91,21.91,0,0,0,72.67,19c.54-.8.91-1.35,1.11-1.68a.71.71,0,0,0,0-.79M28.28,12.27a15.16,15.16,0,0,1-.37,2,19,19,0,0,1-.74,2.3c-.3.78-.63,1.52-1,2.2a12.1,12.1,0,0,1-1,1.66,4.84,4.84,0,0,1-.9,1,.71.71,0,0,1-.36.17h-.05s-.16-.1-.23-.5a5.84,5.84,0,0,1,0-1.41,13.08,13.08,0,0,1,.35-2,18.47,18.47,0,0,1,.74-2.3,22.9,22.9,0,0,1,1-2.2,11.61,11.61,0,0,1,1-1.69,4.19,4.19,0,0,1,.9-1,.67.67,0,0,1,.35-.17H28s.17.11.26.51a5,5,0,0,1,0,1.41m15.94,0a20.21,20.21,0,0,1-.49,2,23,23,0,0,1-.83,2.3c-.37.79-.74,1.53-1.12,2.2a13.42,13.42,0,0,1-1.1,1.69,5.07,5.07,0,0,1-1,1,.78.78,0,0,1-.38.17h-.05s-.16-.1-.21-.49a4.86,4.86,0,0,1,.08-1.42,17.21,17.21,0,0,1,.48-2,22.52,22.52,0,0,1,.84-2.3,19.43,19.43,0,0,1,1.09-2.19,13.94,13.94,0,0,1,1.12-1.68,5.49,5.49,0,0,1,1-1,.78.78,0,0,1,.38-.17h0s.16.1.21.5a4.59,4.59,0,0,1-.07,1.39m14.72,0a17.47,17.47,0,0,1-.48,2,21.69,21.69,0,0,1-.84,2.3c-.36.79-.73,1.53-1.11,2.2a14.63,14.63,0,0,1-1.1,1.69,5.07,5.07,0,0,1-1,1,.78.78,0,0,1-.38.17h0s-.16-.1-.21-.49a4.79,4.79,0,0,1,.07-1.42,19.8,19.8,0,0,1,.49-2,22.52,22.52,0,0,1,.84-2.3,17.88,17.88,0,0,1,1.09-2.19,12.85,12.85,0,0,1,1.12-1.68,5.17,5.17,0,0,1,1-1,.78.78,0,0,1,.38-.17h.05s.16.1.21.5a4.64,4.64,0,0,1-.08,1.39"/><path class="cls-1" d="M73.82,42.46c-3.94,3.45-7.43,3.66-11.62.58-1.93-1.42-3.65-3.11-5.59-4.52a21.85,21.85,0,0,0-4.78-2.84,9.47,9.47,0,0,0-8.64.86A56.52,56.52,0,0,0,38,40.37a1,1,0,0,1-.6.27.93.93,0,0,1-.59-.27,56.52,56.52,0,0,0-5.2-3.83A9.48,9.48,0,0,0,23,35.68a22.33,22.33,0,0,0-4.78,2.84c-1.93,1.41-3.66,3.1-5.58,4.52C8.4,46.12,4.91,45.91,1,42.46l-1-.85A21.82,21.82,0,0,0,3.71,50.4a18.57,18.57,0,0,0,9.42,7.1c9.16,3.1,20.72-1.22,24.26-9.36C40.94,56.28,52.5,60.6,61.66,57.5a18.55,18.55,0,0,0,9.41-7.1,21.7,21.7,0,0,0,3.72-8.79l-1,.85"/></g></svg>