<svg xmlns="http://www.w3.org/2000/svg" viewBox="0 0 26.17 22.38"><defs><style>.cls-1{fill:#ffe255;}</style></defs><g id="Capa_1" data-name="Capa 1"><path class="cls-1" d="M26.17,3.08a11.13,11.13,0,0,1-3.09.84,5.32,5.32,0,0,0,2.36-3A10.85,10.85,0,0,1,22,2.26a5.36,5.36,0,0,0-9.28,3.67,5.43,5.43,0,0,0,.12,1.22A15.22,15.22,0,0,1,1.82,1.54a5.41,5.41,0,0,0-.73,2.71A5.36,5.36,0,0,0,3.47,8.71a5.36,5.36,0,0,1-2.42-.66v.06a5.39,5.39,0,0,0,4.3,5.27,5.39,5.39,0,0,1-1.41.18,4.36,4.36,0,0,1-1-.1,5.42,5.42,0,0,0,5,3.74,10.8,10.8,0,0,1-6.66,2.29A10.75,10.75,0,0,1,0,19.42a15.12,15.12,0,0,0,8.23,2.4A15.16,15.16,0,0,0,23.5,6.56c0-.24,0-.47,0-.7A10.62,10.62,0,0,0,26.17,3.08Z"/></g></svg>