<svg xmlns="http://www.w3.org/2000/svg" viewBox="0 0 58.37 58.51"><defs><style>.cls-1,.cls-2{fill:#fff;}.cls-2{fill-rule:evenodd;}</style></defs><g id="Capa_1" data-name="Capa 1"><path class="cls-1" d="M0,58.51,4.19,42.86A29,29,0,1,1,15.73,54.29ZM16.51,48.43l1,.59a23.53,23.53,0,1,0-8-8l.61,1L7.73,50.78Z"/><path class="cls-2" d="M40.22,32.92c-1.19-.71-2.74-1.51-4.14-.94-1.08.44-1.76,2.13-2.46,3a1,1,0,0,1-1.33.28,18.72,18.72,0,0,1-9.36-8,1.14,1.14,0,0,1,.15-1.56,6.43,6.43,0,0,0,1.7-2.76A6.07,6.07,0,0,0,24,19.65c-.57-1.21-1.2-2.95-2.41-3.63a3.31,3.31,0,0,0-3.59.53,7.27,7.27,0,0,0-2.52,5.77,8,8,0,0,0,.22,1.83,15,15,0,0,0,1.76,4.05A31.87,31.87,0,0,0,19.31,31a28.29,28.29,0,0,0,8,7.38,23.76,23.76,0,0,0,5,2.36c1.94.64,3.67,1.31,5.77.91a6.94,6.94,0,0,0,5.23-3.89,3.42,3.42,0,0,0,.25-2C43.18,34.39,41.32,33.58,40.22,32.92Z"/></g></svg>